<?xml version="1.0" encoding="utf-8"?>
<!-- Generator: Adobe Illustrator 23.0.0, SVG Export Plug-In . SVG Version: 6.00 Build 0)  -->
<svg version="1.1" id="Layer_1" xmlns="http://www.w3.org/2000/svg" xmlns:xlink="http://www.w3.org/1999/xlink" x="0px" y="0px"
	 viewBox="0 0 113.7 58.9" style="enable-background:new 0 0 113.7 58.9;" xml:space="preserve">
<style type="text/css">
	.Drop_x0020_Shadow{fill:none;}
	.Round_x0020_Corners_x0020_2_x0020_pt{fill:#FFFFFF;stroke:#000000;stroke-miterlimit:10;}
	.Live_x0020_Reflect_x0020_X{fill:none;}
	.Bevel_x0020_Soft{fill:url(#SVGID_1_);}
	.Dusk{fill:#FFFFFF;}
	.Foliage_GS{fill:#FFDD00;}
	.Pompadour_GS{fill-rule:evenodd;clip-rule:evenodd;fill:#44ADE2;}
	.st0{fill:#D3C6A9;}
</style>
<linearGradient id="SVGID_1_" gradientUnits="userSpaceOnUse" x1="0" y1="8.9143" x2="0.7071" y2="9.6214">
	<stop  offset="0" style="stop-color:#DEDFE3"/>
	<stop  offset="0.1738" style="stop-color:#D8D9DD"/>
	<stop  offset="0.352" style="stop-color:#C9CACD"/>
	<stop  offset="0.5323" style="stop-color:#B4B5B8"/>
	<stop  offset="0.7139" style="stop-color:#989A9C"/>
	<stop  offset="0.8949" style="stop-color:#797C7E"/>
	<stop  offset="1" style="stop-color:#656B6C"/>
</linearGradient>
<g>
	<path class="st0" d="M29.7,35.8c-1.4,0-2.4,0-3.6,0c0-5.1,0-10.3,0-15.9c1.3,0.3,2.6,0.6,4.4,1c2.4-1.8,4-1.6,5.9,0.3
		c2.7-0.4,4.9-1.4,6.6-0.8c1.2,0.5,2.1,3,2.2,4.7c0.3,3.5,0.1,7.1,0.1,10.7c-1.4,0-2.5,0-3.9,0c0-3.3,0.1-6.4-0.1-9.5
		c-0.1-1-1.2-1.9-1.8-2.9c-0.6,1-1.8,1.9-1.9,3c-0.3,3-0.1,6.1-0.1,9.4c-1.3,0.1-2.3,0.1-3.9,0.2c0-2.5,0-4.8,0-7
		c0-1.1,0.2-2.3-0.1-3.3c-0.3-0.9-1.2-1.5-1.9-2.3c-0.6,0.8-1.7,1.6-1.8,2.4C29.6,29,29.7,32.3,29.7,35.8z"/>
	<path class="st0" d="M61.1,34.5c-0.3,0.2-1,0.9-1.9,1.6c-0.7-0.6-1.4-1.1-2.2-1.8c-2.2,1.8-4.8,2.7-7.1,1c-1.1-0.9-1.9-3.3-1.6-4.7
		c0.8-4.2,4.7-4.1,8.6-4.7c-0.5-1.2-0.7-2.6-1.5-2.9c-0.7-0.3-1.9,0.4-2.9,0.7c-1.2,0.4-2.3,0.9-4,1.5c1-4.2,3.3-5.8,6.9-5.5
		c3.6,0.3,5,1.8,5.2,5.4C60.7,27.9,60.9,30.8,61.1,34.5z M56.3,28.1c-2.4,0.2-4.4,0.7-4,3.5c0.1,0.7,1.4,1.8,1.9,1.6
		C56.7,32.5,56.7,30.5,56.3,28.1z"/>
	<path class="st0" d="M103.7,35.8c-1.1,0-2.1,0-3.6,0c0-3.1,0.2-6.1-0.1-9c-0.1-1.2-1.1-2.3-1.6-3.5c-0.8,1.1-2.1,2.2-2.2,3.4
		c-0.3,2.9-0.1,5.8-0.1,9c-1.4,0-2.5,0-3.8,0c0-5.1,0-10.2,0-15.9c1.5,0.4,2.6,0.8,3.8,1.1c0,0.3-0.1,0.6-0.1,0.9
		c0.4-0.4,0.8-0.8,1.2-1.1c2.6-2,6.2-0.9,6.5,2.3C104,27.2,103.7,31.4,103.7,35.8z"/>
	<path class="st0" d="M22.8,34.4c-1.9,1.9-1.9,1.9-4-0.1c-2.3,1.6-5,2.8-7.4,0.9c-1.1-0.9-1.7-3.3-1.4-4.8c0.8-4.3,4.8-3.9,8.7-4.7
		c-0.6-1.2-0.9-2.5-1.7-2.9c-0.5-0.3-1.8,0.4-2.7,0.7c-1.2,0.4-2.5,1-4.3,1.7c1.4-4.6,3.9-6,7.7-5.5c3.4,0.5,4.5,2,4.7,5.9
		C22.4,28.4,22.6,31.1,22.8,34.4z M17.9,28.1c-2.2,0.4-4.3,0.6-4,3.4c0.1,0.7,1.6,1.9,2.1,1.7C18.5,32.4,18.4,30.4,17.9,28.1z"/>
	<path class="st0" d="M90.1,28.1c-0.6,1.8-0.9,3.8-1.9,5.4c-2.3,3.8-7.9,3.7-10.1-0.2c-2-3.4-2-7-0.1-10.5c2.3-4.2,8.1-4.2,10.5-0.1
		C89.2,24.4,89.5,26.2,90.1,28.1z M80.1,28.4c1,1.6,2,4.7,2.9,4.7c3-0.1,2.6-3.1,2.5-5.2c-0.1-2,0.5-5.1-2.4-5
		C80.2,22.9,81.2,26,80.1,28.4z"/>
	<path class="st0" d="M67.2,41.4c-10,7.7-29.5,8.9-43.1-2.7C38.5,46,52.7,46.7,67.2,41.4z"/>
	<path class="st0" d="M69.4,23.1c-1.7,0-3.2,0-4.9,0c-0.1-1-0.2-1.9-0.2-2.9c3.5,0,6.8,0,10.4,0c0.5,4.6-4,6.7-5.1,10.4
		c5.6,1.1,5.6,1.1,5.1,4.1c-3.6,0-7.1,0-10.9,0C62.9,30,67.9,27.6,69.4,23.1z"/>
	<path class="st0" d="M70.8,44.8c0.8-6.6,0.8-6.7-4.9-6.7c0-0.2,0-0.5,0.1-0.7c2.1,0.2,4.2,0.5,6.2,0.7
		C71.7,40.3,71.3,42.5,70.8,44.8z"/>
</g>
</svg>
