<?xml version="1.0" encoding="utf-8"?>
<!-- Generator: Adobe Illustrator 23.0.0, SVG Export Plug-In . SVG Version: 6.00 Build 0)  -->
<svg version="1.1" id="Layer_1" xmlns="http://www.w3.org/2000/svg" xmlns:xlink="http://www.w3.org/1999/xlink" x="0px" y="0px"
	 viewBox="0 0 85.2 50" style="enable-background:new 0 0 85.2 50;" xml:space="preserve">
<style type="text/css">
	.Drop_x0020_Shadow{fill:none;}
	.Round_x0020_Corners_x0020_2_x0020_pt{fill:#FFFFFF;stroke:#000000;stroke-miterlimit:10;}
	.Live_x0020_Reflect_x0020_X{fill:none;}
	.Bevel_x0020_Soft{fill:url(#SVGID_1_);}
	.Dusk{fill:#FFFFFF;}
	.Foliage_GS{fill:#FFDD00;}
	.Pompadour_GS{fill-rule:evenodd;clip-rule:evenodd;fill:#44ADE2;}
	.st0{fill-rule:evenodd;clip-rule:evenodd;fill:#D3C6A9;}
</style>
<linearGradient id="SVGID_1_" gradientUnits="userSpaceOnUse" x1="0" y1="0" x2="0.7071" y2="0.7071">
	<stop  offset="0" style="stop-color:#DEDFE3"/>
	<stop  offset="0.1738" style="stop-color:#D8D9DD"/>
	<stop  offset="0.352" style="stop-color:#C9CACD"/>
	<stop  offset="0.5323" style="stop-color:#B4B5B8"/>
	<stop  offset="0.7139" style="stop-color:#989A9C"/>
	<stop  offset="0.8949" style="stop-color:#797C7E"/>
	<stop  offset="1" style="stop-color:#656B6C"/>
</linearGradient>
<path class="st0" d="M30.1,39.8h-7.5V29.1h-4.8v10.7h-7.7V12.2h7.7v10.3h4.8V12.2h7.5V39.8z M64.5,39.9c7.7,0,13.9-6.4,13.9-14.1
	c0-7.9-6.3-14-13.9-14c-7.8,0-11.7,5.6-12.6,7.9c0-3.4-3.4-7.5-7.4-7.5H31.7v27.5h11.9c4.8,0,8.2-4.1,8.2-7.8
	C52.9,34.3,56.7,39.9,64.5,39.9L64.5,39.9z M42.6,28.7c1.1,0,2,1.1,2,2.3c0,1.3-0.9,2.4-2,2.4h-3.8v-4.7H42.6z M42.6,18.4
	c1.1,0,2,1.1,2,2.3c0,1.2-0.9,2.3-2,2.3h-3.8v-4.6H42.6z M47.7,25.8c0.9-0.1,2.3-1.1,2.9-1.7c-0.2,0.7-0.2,3.1,0,3.8
	C49.9,27,48.5,25.9,47.7,25.8z M57.5,25.8c0-3.9,3.2-7,7-7c3.9,0,7,3.2,6.9,7c0,0,0,0.1,0,0.1c-0.1,3.8-3.2,6.9-7,6.9
	C60.6,32.8,57.5,29.7,57.5,25.8z M64.5,31.3c3,0,5.5-2.5,5.5-5.5s-2.5-5.5-5.5-5.5c-3.1,0-5.5,2.4-5.5,5.5S61.4,31.3,64.5,31.3
	L64.5,31.3z"/>
</svg>
