<?xml version="1.0" encoding="utf-8"?>
<!-- Generator: Adobe Illustrator 23.0.0, SVG Export Plug-In . SVG Version: 6.00 Build 0)  -->
<svg version="1.1" id="Layer_1" xmlns="http://www.w3.org/2000/svg" xmlns:xlink="http://www.w3.org/1999/xlink" x="0px" y="0px"
	 viewBox="0 0 1200 441.4" style="enable-background:new 0 0 1200 441.4;" xml:space="preserve">
<style type="text/css">
	.Drop_x0020_Shadow{fill:none;}
	.Round_x0020_Corners_x0020_2_x0020_pt{fill:#FFFFFF;stroke:#000000;stroke-miterlimit:10;}
	.Live_x0020_Reflect_x0020_X{fill:none;}
	.Bevel_x0020_Soft{fill:url(#SVGID_1_);}
	.Dusk{fill:#FFFFFF;}
	.Foliage_GS{fill:#FFDD00;}
	.Pompadour_GS{fill-rule:evenodd;clip-rule:evenodd;fill:#44ADE2;}
	.st0{fill:#D3C6A9;}
</style>
<linearGradient id="SVGID_1_" gradientUnits="userSpaceOnUse" x1="0" y1="-509.3448" x2="0.7071" y2="-508.6377">
	<stop  offset="0" style="stop-color:#DEDFE3"/>
	<stop  offset="0.1738" style="stop-color:#D8D9DD"/>
	<stop  offset="0.352" style="stop-color:#C9CACD"/>
	<stop  offset="0.5323" style="stop-color:#B4B5B8"/>
	<stop  offset="0.7139" style="stop-color:#989A9C"/>
	<stop  offset="0.8949" style="stop-color:#797C7E"/>
	<stop  offset="1" style="stop-color:#656B6C"/>
</linearGradient>
<g>
	<path class="st0" d="M254.2,83.8c-1.4,2.2-2.9,4.3-4.3,6.4c-4.9,7.9-6.4,16.7-6.3,25.8c0.1,22.2,0.2,44.3,0.3,66.5
		c0,0.8,0.3,1.6,0.2,1c16-0.8,31.5-1.7,47.1-2.3c2.6-0.1,5.2,0.7,8.4,1.2c-0.8,1.2-1.2,2.1-1.8,2.6c-4.4,3.8-8.9,7.5-13.2,11.4
		c-0.9,0.9-1.5,2.6-1.4,3.9c1.1,17.8,6.5,34.7,11.8,52c4.6-2.4,7.8-5.1,8-10.6c1.5-31.3,1.7-62.6-1.6-93.8c-0.3-2.5-0.4-4.9-0.7-8.9
		c-8.6,4.7-16.7,8.5-23.9,13.6c-2.2,1.6-1.9,6.6-2.8,10.1c-0.5,2-1.1,4.1-1.7,6.1c-1.5-1.5-3.5-2.7-4.5-4.5
		c-4.1-7.4-7.9-14.9-11.7-22.5c-2.2-4.5-2.2-8.2,3.1-11.1c10.3-5.6,20.3-11.9,30.6-17.6c1.5-0.9,5-0.6,6.1,0.5
		c11.2,11.6,22.1,23.5,33.1,35.4c5.7,6.2,6.9,14,7,21.8c0.2,21,0.1,42,0,63c0,8.3,0,8.4,8.1,8.2c0.8,0,1.5,0,3.5,0
		c-4.8,4.4-8.9,7.9-12.7,11.7c-3.9,3.8-7.3,8.2-11.4,11.8c-2.9,2.5-6.3,5-9.9,5.9c-6.6,1.7-10.4-1.5-11.6-8.2
		c-0.3-1.4-0.7-2.8-1.2-4.8c-5.4,4-10.3,7.7-15.2,11.4c-7.5,5.6-16.6,2.9-19.4-5.8c-4.9-15.3-9.5-30.7-14.5-46
		c-1.4-4.3-0.5-7.9,2.1-11.2c4-5.1,8.3-9.9,12.2-15.9c-6.6,2.1-13.3,3.9-19.8,6.4c-1.2,0.5-2.1,3.5-2.1,5.3
		c0.2,36.5,0.5,73,0.8,109.5c0.1,5.3,0.3,10.7,1.2,15.9c1.2,7.4,4,14.1,11.1,18c1.1,0.6,1.6,2.1,2.4,3.3c-1.4,0.6-2.8,1.8-4.1,1.6
		c-9.1-0.8-18.2-2.4-27.3-2.8c-11.6-0.5-23.3-0.2-34.9-0.1c-2.7,0-5.4-0.1-5.7-3.1c-0.1-1.4,1.8-3.5,3.3-4.5
		c9.6-5.9,12.6-15.6,12.9-25.7c0.8-28.1,0.8-56.3,1-84.4c0-2.3-0.6-4.6-0.8-6.2c-12.4,5-24.9,10.1-38,15.4c0,11.4,0,24.1,0,36.7
		c0,12,0.4,24,0.1,36c-0.1,6.9,2.3,11.9,8.4,15.1c1.7,0.9,3.2,2.5,4.7,3.7c-25.9-1.4-51.4-2.7-77-4.1c-1.5-3.2,1.6-3.8,3.7-4.7
		c8.3-3.9,14.5-9.4,15.1-19.3c0.4-6.8,0.8-13.6,0.9-20.5c0.1-12-0.2-24-0.1-36c0-3.4-0.9-5.4-4.3-6.8c-6-2.5-11.6-5.8-17.5-8.4
		c-13.8-6-19.4-18.3-25.9-32.1c10.6-2.5,20.5-4.7,31.6-7.3c-1.9,6-6.4,6.4-9.4,8.5c-3.3,2.2-6.8,4-11,6.4
		c10.7,9.4,22.5,15.2,35.5,20.9c0-11,0.3-21.1-0.1-31.1c-0.7-24.3-1.9-48.6-2.6-72.9c-0.4-15.9-0.2-16-13.6-24.8
		c1.8-0.8,3.1-1.8,4.4-1.9c20.2-0.4,40.3-0.7,60.5-0.9c0.5,0,0.9,0.2,2.3,0.5c-1,1.7-2,3.1-2.7,4.5c-1.7,3.3-4.4,6.5-4.8,9.9
		c-0.9,7.6-0.9,15.3-0.7,22.9c0.5,25.7,1.2,51.3,1.9,77c0.1,3,0.5,5.9,0.8,9.6c3-1.2,5.6-1.9,7.7-3.2c9.2-5.6,18.4-11.3,27.3-17.4
		c1.5-1,2.8-3.8,2.8-5.7c-0.9-32.5-2-64.9-3-97.4c-0.1-3.9-1.6-7-5.2-9c-1.3-0.8-2.2-2.4-3.8-4.2C213.3,83.8,233.6,83.8,254.2,83.8z
		"/>
	<path class="st0" d="M653.8,46.8c-0.3,6.5-0.6,12.2-0.9,19.1c6.7-2.4,12.5-4.3,18.2-6.4c12.1-4.5,12.2-4.6,20.5,5.3
		c9.4,11.2,18.6,22.7,27.9,34c4.6,5.6,6,11.6,5.1,19c-2.2,19.5-3.5,39.1-5,58.7c-0.1,1.1,1,2.7,2,3.3c1.8,1,4,1.9,6.1,2
		c1.6,0.1,4.5-0.9,4.7-1.9c2.4-9.8,10.7-13.6,18.2-18c8.2-4.7,16.6-9,25.1-13.3c5.1-2.6,10.3-2.6,15,1c7,5.3,14.1,10.5,20.9,16.2
		c4.9,4.1,7.3,9.9,7.8,16.2c1.8,20.7,3.9,41.4,5.2,62.1c0.4,6.4-1,12.9-1.7,19.4c-0.9,7.9-4.6,14.4-11,18.8
		c-10.2,7.1-21,13.7-33.7,15.2c-4,0.5-9.2-0.7-12.5-3.1c-8.7-6.1-16.6-13.3-24.9-20c-7.6-6.2-11.1-14.1-11-24c0.2-18,0-36,0-54
		c0-2.2,0.7-4.9-2.6-5.6c-4.1-0.9-8-5-12.5-1.2c-11,9.4-24.2,13.7-38.1,16c-1.8,0.3-4.8-1.3-5.9-2.9c-4.7-6.9-8.8-14.1-13.2-21.2
		c-0.8-1.3-1.8-2.6-3.1-3.7c0.6,27.2,3,54.2,4,81.3c-0.7,0.1-1.4,0.2-2,0.3c-3.9-7.7-7.8-15.4-11.7-23.2c-0.4,0.1-0.9,0.1-1.3,0.2
		c0,30.4,0,60.7,0,91.1c-0.6,0.2-1.3,0.4-1.9,0.6c-3.6-6.6-7.3-13.3-11.6-21.2c-2.9,30.3-3.5,59.7-8.7,88.7
		c-8-48.7-16-97.3-24.2-147c3.8,4.4,7.1,8.1,10.4,11.9c0.8-0.4,1.6-0.8,2.4-1.2c-4.4-30.2-8.9-60.4-13.5-92.1
		c6.3,3,11.5,5.5,17.8,8.5c-5.6-43.5-11-86.2-16.4-128.9C616.7,46.8,635.2,46.8,653.8,46.8z M654,167.6c10.2-0.8,19.7-1.5,29.2-2.2
		c0.1-0.3,0.3-0.6,0.3-0.9c0.2-29.3-1-58.6-5.6-87.6c-0.5-3.5-2.6-4.3-5.7-3.7c-4.9,1.1-9.7,2.3-14.6,3.2c-3.3,0.7-4.6,2.3-4.6,5.8
		c0.3,26.8,0.4,53.6,0.6,80.5C653.6,164.3,653.9,165.9,654,167.6z M786.3,186.7c-7.4-1.2-13.2,1.5-19.2,3.9c-3.8,1.5-5,3.4-4.8,7.3
		c1.4,25.7,2.5,51.5,3.8,77.3c0.2,3.5,6.1,10.5,8.8,10.6c4.7,0.1,12.5-6.1,13.3-10.8c3.3-20.2,3.7-40.4,1.5-60.7
		C788.6,205,787.4,195.9,786.3,186.7z M762.5,182.2c15.3-5.3,22.6-13.3,21-23.4c-5.4,3.7-10.3,7.5-15.8,10.6
		C762.4,172.5,760.9,176.6,762.5,182.2z M663.2,175.4c-0.2,0.5-0.5,1-0.7,1.4c3.8,4.1,7.5,8.3,11.3,12.3c0.6,0.6,2.6,1.1,2.9,0.7
		c2.3-2.8,4.5-5.7,6.4-8.7c0.2-0.4-1.4-2.6-2.4-2.8C674.9,177.2,669.1,176.4,663.2,175.4z"/>
	<path class="st0" d="M1087.8,196c0.3-0.7,0.4-1.3,0.7-1.6c7.2-6.4,6.6-13.7,3.1-21.9c-2.5-5.9-4-12.2-5.9-18.6
		c-4.7,1.5-6.9,3.8-6.7,9c1.5,36.9,2.7,73.9,3.9,110.9c0.1,3.5,0.4,7,0.2,10.5c-0.3,7.8,3.4,13.3,10.3,16.1c7.8,3.1,16,5.3,24.4,8
		c0,0.4,0,1.7,0,3.5c-16.5,0.2-32.7,0.1-48.6-4.2c-9.1-2.5-18.3-4.8-27.5-6.9c-3.2-0.7-6.6-0.3-9.9-0.8c-1.6-0.3-3.1-1.5-5.9-3
		c15.4-5.5,20.6-15.7,20.5-29.6c-0.4-29.2-0.6-58.3-0.8-87.5c-0.1-6.3,0-12.6,0-19.4c-3.4,0-6.1,0-10.4,0c1.9-3.2,2.8-5.9,4.6-7.5
		c10.8-9.8,21.8-19.4,32.9-28.9c2.7-2.3,4.7-1.1,5.4,3.2c0.7,4.4,1,8.8,1.5,14.1c6.7-4.1,13-7.8,19.1-11.7c5.1-3.2,6.4-3.2,9.4,2
		c5.3,9.2,10.6,18.5,15.4,27.9c3.9,7.7,3,11.2-3.5,16.5c-9.1,7.5-18.5,14.7-27.7,22.1c-0.4,0.3-0.9,0.5-1.6,0.8
		C1089.7,198,1088.8,197,1087.8,196z"/>
	<path class="st0" d="M898.4,160c-4.9,0-8.2,0.2-11.5-0.1c-1.6-0.2-3.6-1.1-4.4-2.3c-0.5-0.8,0.6-3,1.6-4.2
		c6.4-7.6,13.6-14.7,19.4-22.8c6.8-9.4,12.3-19.7,18.5-29.6c1.3-2.1,2.8-4.2,5.1-6.1c3.3,17.2,2.3,34.4,4.2,51.8
		c7.7,0,15.4,0,22.9,0c0.5,0.7,0.8,0.9,0.8,1.2c0.8,10.7,0.8,10.7-9.8,11.7c-1.7,0.2-3.3,0.4-5,0.4c-8.7,0.4-8.8,0.4-8.7,8.9
		c0.5,41.5,1.1,83,1.7,124.4c0.1,6.2,0.3,12.3,0.9,18.5c0.2,1.6,1.5,3.6,2.9,4.4c5.9,3.4,11.9,6.6,18,9.6c1.3,0.6,3.5,0.9,4.4,0.3
		c4.1-3,8-6.3,11.9-9.6c-0.1-0.5-0.1-1-0.2-1.6c-9-2.1-18.1-4.2-27.1-6.3c0.1-0.6,0.2-1.1,0.3-1.7c7.1,0,14.1-0.2,21.2,0.1
		c7.5,0.3,14.9,0.9,22.4,1.8c4,0.5,4.5,2.1,1.8,4.9c-6.6,7-13.1,14.2-20,20.9c-1.7,1.7-5.3,3.4-7.2,2.7
		c-18.1-6.6-35.9-13.7-53.9-20.7c-0.3-0.1-0.6-0.4-0.9-0.5c-6.1-3-9.4-7-9.3-14.7c0.3-29.5-0.2-59-0.3-88.5
		C898.3,195.7,898.4,178.2,898.4,160z"/>
	<path class="st0" d="M465.4,164.7c17.6-2.6,35.5-1.2,53.1-3.7c0.2,0.4,0.4,0.8,0.6,1.2c-2,1.2-3.9,2.6-6,3.6
		c-2.8,1.4-4.6,3.4-3.7,6.7c3.6,13.5,7.3,26.9,11,40.3c0.1,0.4,0.6,0.7,1.4,1.6c10.4-19,23.2-36.3,28-57.5c-3-1.6-6-3.2-9-4.8
		c0.1-0.4,0.2-0.9,0.3-1.3c11.9,0.6,23.9,1.2,36,1.8c-0.2,0.8-0.1,1.6-0.5,2.3c-24.4,47.1-48.4,94.3-78.6,138.1
		c-3.7,5.3-7.4,10.6-11.5,15.7c-1.3,1.5-3.8,3-5.6,3c-30.7-0.6-60.3-6.5-88.1-20.3c-3.9-1.9-4.7-4.1-2.2-7.2
		c4.6-5.7,9.4-11.2,14.1-16.7c0.6-0.7,1.7-1.4,2.5-1.4c9.5,0.7,19.1,1.5,28.8,3.4c-0.8,0.5-1.6,1.3-2.5,1.5
		c-4.3,1.3-8.6,2.4-12.9,3.6c-8,2.2-9.3,3.8-10.4,13.8c7.2,1.2,14.5,3,21.8,3.5c12.6,0.8,25.3,0.8,37.9,1.2c3.4,0.1,5.4-1.2,7.2-4.2
		c6.7-10.9,13.7-21.6,20.4-32.5c1-1.6,1.4-4.2,0.9-5.9c-7.8-25.4-15.7-50.7-23.7-76C473.1,169.5,472.9,169.6,465.4,164.7z"/>
	<path class="st0" d="M871.8,82.3c0,14.1,0,28.3,0,43.2c6,0,10.7,0.1,15.3,0c2.7-0.1,3.9,1,4,3.8c0.2,3.4,0.7,6.9,1.2,11.3
		c-5.1,0-9.7,0.4-14.3-0.1c-4.3-0.5-5.1,1.2-5.1,4.9c-0.2,20.8-0.2,41.6-0.9,62.4c-0.9,28.3-1.9,56.6-3.7,84.8
		c-0.6,9.1,1.7,15.5,9.2,20.2c2.5,1.6,4.9,3.4,7.4,5.2c-1.4,4-3.8,4.7-7.3,2.9c-10.6-5.6-21.2-11.1-31.8-16.6
		c-7.1-3.7-10.2-9.3-9.8-17.5c1.3-29.3,2.7-58.5,3.2-87.8c0.3-18.4-0.8-36.7-1.2-55.1c-0.1-2.8-1.1-4.1-4.3-4
		c-6.2,0.2-12.3,0.1-18.5-0.1c-1.4-0.1-2.7-1.2-4.1-1.8c0.8-1.5,1.1-3.6,2.3-4.3c20.3-12.6,38-28.1,52-47.6c1.2-1.6,2.4-3.2,3.5-4.8
		C870,81.7,870.9,82,871.8,82.3z"/>
	<path class="st0" d="M1014,237.5c2.4,2.7,4.4,4.4,5.7,6.5c9.8,15.8,10.1,10.1-0.4,24.3c-3.9,5.2-7.6,10.6-11.9,15.4
		c-1.9,2.1-4.9,3.9-7.7,4.4c-12.5,2.5-21.8-3.6-30-12c-5.7-5.8-11.6-11.5-17-17.6c-1.6-1.8-2.4-4.9-2.5-7.4
		c-0.1-14.8-0.1-29.6,0.5-44.4c0.5-12.4,1.6-24.8,2.9-37.2c0.2-2,1.9-4.2,3.6-5.5c9.1-7.5,18.5-14.7,27.6-22.3
		c5-4.2,10.2-4.8,15.7-2.2c8.2,3.9,16.3,8.2,24.3,12.7c1.7,0.9,3.1,3,3.9,4.8c3.9,10,7.8,20.1,11.2,30.3c0.8,2.3,0.4,5.6-0.7,7.8
		c-8.3,16.4-8.5,16.3-26.2,11.9c-7.6-1.9-15.2-3.3-22.8-5.3c-4.6-1.2-5.8,1.2-5.8,4.8c0,5.5,0.4,11,0.6,16.4
		c0.4,12.2,0.6,24.3,1.2,36.5c0.5,9.6,5.8,16.3,14.7,22.1c2.6-7.4,5.2-14.1,7.3-20.9C1010.2,253.6,1011.7,246.5,1014,237.5z
		 M984.4,190.9c9.5,0.9,17.9,1.7,27,2.5c-5.8-14.8-11.3-28.8-16.9-42.7c-1.2-2.9-3.7-1.9-5.1,0c-1.1,1.5-1.9,3.6-2.1,5.5
		C986.2,167.6,985.4,179,984.4,190.9z"/>
	<path class="st0" d="M400.4,255.8c-20.2,0-38.7,0-57.1,0c-0.3-0.3-0.6-0.6-0.9-0.9c2.3-2.1,4.4-4.4,6.9-6.1c3.4-2.2,5-4.5,5-8.8
		c-0.5-36.6-0.8-73.3-1.2-109.9c0-2.1-0.4-4.3-0.6-7.4c-7.1,0-14.1,0-21,0c-0.3-0.7-0.7-1.4-1-2.1c1-0.5,2.1-0.9,3-1.5
		c12-8.4,23.9-16.9,35.9-25.2c6.3-4.4,12-1.6,12.8,5.9c0.5,4.3,1,8.6,1.6,12.9c0.1,0.6,0.4,1.2,0.7,2.2c4-2.5,7.7-5.1,11.5-7.3
		c8.3-4.7,12.2-3.6,16,5.1c4.1,9.6,7.8,19.4,11.6,29.1c1.7,4.3,0.5,7.6-3.7,10c-7.5,4.3-14.8,8.9-22.1,13.5
		c-2.5,1.5-4.3,1.5-5.6-2.1c6.8-3.4,4.3-9,2.7-14.4c-1.9-6.5-3.8-13.1-5.8-19.6c-0.5-1.5-1.6-2.9-2.4-4.3c-0.5,0.1-1,0.2-1.5,0.3
		c-0.2,1.5-0.6,3-0.5,4.4c1.7,31.2,3.5,62.5,5.3,93.7c0.3,5.8,0.8,11.6,1.1,17.4c0.3,4.8,1.2,9.2,6.3,11.5
		C398.3,252.4,398.8,253.8,400.4,255.8z"/>
	<path class="st0" d="M431.1,111.2c-2.4,0-4.6,0-6.7,0c-0.5-0.7-1-1.3-1.5-2c1.9-1.2,4.1-2.2,5.7-3.8c8.4-8.1,16.6-16.4,24.9-24.5
		c1.4-1.4,3-2.8,4.7-3.5c3.7-1.6,5.6-0.2,5.8,3.9c0.4,7.4,0.8,14.9,1.2,23.3c4.7-3.1,8.7-5.8,12.8-8.5c9-5.9,10.3-6,15.1,3.5
		c4.6,9,8.3,18.4,12,27.8c0.6,1.5-0.4,4.9-1.7,5.8c-8.6,5.9-17.5,11.6-26.5,16.9c-1.2,0.7-3.7-0.5-5.7-0.9c0.4-1.6,0.4-2,0.6-2.2
		c5.5-4.1,5.1-9.2,2.9-14.9c-1.6-4-2.3-8.3-3.9-12.3c-0.5-1.3-2.5-2.9-3.5-2.8c-1.2,0.2-2.8,2.1-3.1,3.5c-0.5,2.4-0.2,5-0.2,7.5
		c0.3,33.8,0.8,67.6,0.6,101.4c0,7.3,4.5,10.6,8.7,15.5c-5,0-9.5-0.1-14,0c-9.6,0.2-19.3,0.4-28.9,0.9c-5.7,0.3-11.3,0.1-16.2-3.3
		c0.2-0.3,0.2-0.7,0.5-0.9c12.4-6.7,15-18.1,15.2-30.8c0.3-22.8,0.7-45.6,1-68.4c0.1-9.3,0.2-18.6,0.3-28
		C431.5,113.4,431.2,112.3,431.1,111.2z"/>
</g>
</svg>
