<?xml version="1.0" encoding="utf-8"?>
<!-- Generator: Adobe Illustrator 23.0.0, SVG Export Plug-In . SVG Version: 6.00 Build 0)  -->
<svg version="1.1" id="Layer_1" xmlns="http://www.w3.org/2000/svg" xmlns:xlink="http://www.w3.org/1999/xlink" x="0px" y="0px"
	 viewBox="0 0 224 251.6" style="enable-background:new 0 0 224 251.6;" xml:space="preserve">
<style type="text/css">
	.st0{fill:#D3C6A9;}
</style>
<g>
	<path class="st0" d="M214.3,64.3c-0.7,6.2-1.5,12.3-2.1,18.5c-0.6,6.7-0.7,13.5-1.7,20.1c-0.3,2.2-2.3,4.6-4.1,6.1
		c-6.5,5.2-14.3,7.6-22.3,9.1c-1.3,0.2-3.5-0.7-4.2-1.8c-3.5-5.3-6.7-10.8-10.1-16.3c2.4-1.6,4-1.1,5.7,1.1c2.1,2.8,4.6,5.2,7.3,8.1
		c2.6-3,5.3-5.2,5.4-9.5c0.3-20.6-0.7-41.2-3.3-61.7c-0.6-4.9-1-5.2-6-4.2c-10.6,2.1-10.6,2.1-10.5,13c0.1,12.5-0.2,25,0.2,37.5
		c0.8,20.7,2,41.4,3,62.1c0.1,1.8,0,3.7,0,5.5c-0.4,0.1-0.7,0.3-1.1,0.4c-2.5-4.9-5-9.8-7.5-14.8c-0.3,0.1-0.6,0.1-0.9,0.2
		c0,19.4,0,38.9,0,58.3c-0.4,0.1-0.8,0.2-1.2,0.3c-2.4-4.4-4.7-8.8-7.5-13.9c-1.5,19.7-2.9,38.4-4.4,57.2c-0.3,0-0.6,0.1-1,0.1
		c-5.1-30.8-10.1-61.5-15.2-92.3c0.4-0.2,0.7-0.5,1.1-0.7c1.7,2.4,3.4,4.8,5.1,7.2c0.5-0.3,1-0.7,1.5-1c-0.7-5.8-1.2-11.7-2.1-17.5
		c-1.6-10.5-3.4-20.9-4.9-31.4c-0.4-2.8-1.7-3.8-4.2-3.2c-3.7,0.9-7.5,1.8-11.1,3.2c-0.8,0.3-1.4,2.4-1.4,3.7
		c-0.1,11.5,0,23,0.1,34.5c0,12.4-0.1,24.7,0.2,37.1c0.1,4.2,0.7,8.5,2.1,12.4c1,2.8,3.8,5,5.7,7.5c0.6,0.7,1.1,1.5,1.6,2.2
		c-1,0.3-1.9,0.9-2.9,0.8c-9.7-0.7-19.4-1.6-29.1-2.2c-3.6-0.2-7.2,0.5-10.8,0.5c-0.9,0-2.2-0.9-2.6-1.7c-0.3-0.5,0.4-2.1,1.1-2.5
		c6.7-4.1,8.9-10.5,9-17.9c0.3-16.7,0.5-33.5,0.6-50.2c0-2.6-0.4-5.1-0.6-7c-8.1,3.3-16.2,6.5-24.6,9.9c0,8.8,0,18.4,0,28
		c0,6.2,0.5,12.5,0.2,18.7c-0.2,4.8,1.8,7.8,5.7,10c0.8,0.5,1.6,1.2,2.4,1.7c-0.1,0.3-0.3,0.6-0.4,0.9c-2.4-0.4-4.7-1.1-7.1-1.2
		c-12.5-0.6-25-1-37.4-1.5c-1.2-0.1-2.5-0.6-3.7-0.9c0.8-0.9,1.5-2,2.6-2.6c5.7-3.1,9.4-7.4,9.4-14.2c0.1-11.9,0.2-23.7,0.2-35.6
		c0-0.9-1-2.2-1.9-2.7c-3.3-1.8-6.6-3.6-10.1-4.9c-7.8-3-12.4-9-15.9-16c-0.7-1.3-1.3-2.7-2-4c0-0.3,0-0.5,0-0.8
		c5.9-3.1,12.3-3.6,18.6-4.5c0.2,0.4,0.3,0.8,0.5,1.2c-4.1,2.4-8.1,4.9-12.7,7.6c7,6,14.5,10.1,23.2,13.4c0-3.6,0.1-6.3,0-9
		c-0.6-20.5-1.4-41-1.8-61.4c-0.1-4.8-2-8.1-5.9-10.4c-0.8-0.5-1.5-1-2.3-1.6c0.1-0.4,0.1-0.7,0.2-1.1c13.7,0,27.5,0,41.5,0
		c-0.4,0.7-0.7,1.6-1.2,2.1c-2.7,2.4-3.6,5.4-3.5,9.1c0.3,18.1,0.5,36.2,0.7,54.3c0.1,4.3,0.4,8.7,0.7,13.2c0.9-0.1,1.6,0,2.1-0.3
		c7.2-4.2,14.4-8.5,21.4-12.9c0.7-0.4,1.1-1.9,1.1-2.9c-0.6-20.7-1.3-41.4-2-62.2c-0.1-2.9-0.8-5.4-3.7-6.8
		c-0.6-0.3-0.9-1.4-1.5-2.4c13.4,0,26.1,0,39.2,0c-5.1,6.2-7,13.1-6.8,20.7c0.1,6.6-0.1,13.2-0.2,19.9c0,8.1,0,16.1,0,24.7
		c9.7-2.3,18.5-5,26.7,2.8c0-1.9,0.1-2.8,0-3.6c-2.4-19.6-4.7-39.1-7.1-58.7c-0.9-7.1-1.8-14.1-2.6-21.2c3.8,0,7.5,0,11.3,0
		c7.9,0.4,15.8,0.7,24.2,1.1c0,3.6,0,7.2,0,11.4c5.6-2,10.6-3.7,15.6-5.5c2.2-0.8,4-0.7,5.6,1.3c8.1,10.3,16.2,20.5,24.3,30.7
		C214.3,58.3,214.3,61.3,214.3,64.3z"/>
</g>
</svg>
