<?xml version="1.0" encoding="utf-8"?>
<!-- Generator: Adobe Illustrator 23.0.0, SVG Export Plug-In . SVG Version: 6.00 Build 0)  -->
<svg version="1.1" id="Layer_1" xmlns="http://www.w3.org/2000/svg" xmlns:xlink="http://www.w3.org/1999/xlink" x="0px" y="0px"
	 viewBox="0 0 207 209" style="enable-background:new 0 0 207 209;" xml:space="preserve">
<style type="text/css">
	.st0{fill:#D1C5AB;}
</style>
<g>
	<g>
		<path class="st0" d="M128.6,124.44c-1.8-11.77-3.57-23.29-5.38-35.12c-1.48,2.56-1.95,5.07-1.96,7.95
			c-0.64-0.74-1.09-1.28-1.56-1.8c-3.26-3.58-6.51-4.33-11.02-2.55c-3.51,1.38-3.52,1.38-3.45,5.08
			c0.41,21.99,0.83,43.98,1.25,65.97c0.03,1.87,0.69,3.52,2.11,4.66c1.55,1.24,3.3,2.22,4.97,3.29c0.32,0.21,0.68,0.34,0.98,0.72
			c-13.15-0.19-26.31-0.38-39.46-0.56c-0.02-0.07-0.04-0.13-0.06-0.2c0.33-0.17,0.69-0.3,0.97-0.53c1.73-1.33,3.61-2.52,5.11-4.08
			c1.63-1.7,2.33-3.87,2.33-6.35c-0.06-16.88-0.03-33.76-0.03-50.64c0-0.5,0-1.01,0-1.69c-0.56,0.28-0.94,0.46-1.32,0.66
			c-5.39,2.91-10.93,5.48-16.86,7.12c-0.68,0.19-0.86,0.5-0.86,1.17c0.02,12.32-0.01,24.64,0.03,36.96
			c0.01,2.34,1.19,4.27,2.92,5.71c1.67,1.4,3.57,2.51,5.4,3.77c-14.17-0.18-28.43-0.37-42.68-0.56c-0.02-0.07-0.04-0.13-0.06-0.2
			c0.52-0.21,1.07-0.37,1.55-0.65c1.74-1.03,3.6-1.94,5.15-3.21c2.24-1.85,3.2-4.45,3.21-7.35c0.02-12.12,0-24.24,0.02-36.36
			c0-0.74-0.23-1.02-0.96-1.21c-3.35-0.84-6.55-2.08-9.42-4.05c-5.56-3.81-7.91-9.22-7.92-15.8c0-0.32,0.22-0.81,0.48-0.95
			c4.29-2.31,8.75-3.95,13.75-3.27c0.03,0,0.04,0.05,0.19,0.22c-1.47,0.58-2.9,1.12-4.31,1.69c-1,0.41-2.02,0.78-2.94,1.32
			c-1.16,0.67-1.65,1.71-1.58,3.12c0.13,3.02,1.52,5.33,3.8,7.17c2.57,2.06,5.57,3.22,8.81,4.2c0.03-0.48,0.08-0.85,0.07-1.23
			c-0.2-19.48-0.36-38.95-0.64-58.43c-0.06-3.92-2.13-6.87-5.43-8.94c-0.47-0.3-0.97-0.55-1.67-0.94c11.9,0,23.58,0,35.25,0
			c0.1,0.08,0.2,0.15,0.29,0.23c-0.34,0.23-0.72,0.41-1.01,0.69c-2.17,2.05-3.31,4.51-3.26,7.56c0.28,15.79,0.5,31.59,0.74,47.38
			c0.06,4.16,0.11,8.32,0.17,12.48c0.01,0.47,0.05,0.94,0.09,1.62c0.98-0.37,1.86-0.61,2.66-1.02c5.2-2.63,10.39-5.29,15.55-7.99
			c0.38-0.2,0.74-0.84,0.74-1.28c0.03-18.12,0.03-36.24,0.01-54.36c0-1.04-0.14-2.07-0.21-3.11c-0.13-1.84-1.02-3.3-2.46-4.35
			c-1.67-1.22-3.44-2.3-5.35-3.56c12.21-0.19,24.3-0.38,36.39-0.57c0.09,0.12,0.18,0.24,0.28,0.37c-0.3,0.17-0.65,0.29-0.89,0.53
			c-1.37,1.4-2.78,2.76-4.04,4.26c-1.88,2.24-2.81,4.74-2.7,7.81c0.31,8.43,0.34,16.87,0.48,25.31c0.08,4.6,0.16,9.2,0.24,13.79
			c0.01,0.55,0.05,1.09,0.09,1.75c5.4-2.47,10.52-5.6,16.93-3.74c-0.28-1.94-0.52-3.65-0.8-5.59c3.24,1.42,6.33,2.76,9.59,4.19
			c-2.7-22.6-5.38-45-8.07-67.49c9.93,0,19.74,0,29.67,0c0,3.41,0,6.76,0,10.28c0.55-0.21,0.95-0.36,1.34-0.52
			c5.35-2.22,10.7-4.44,16.04-6.7c0.78-0.33,1.22-0.31,1.77,0.43c6.74,9.04,13.53,18.04,20.28,27.08c0.34,0.45,0.52,1.16,0.47,1.73
			c-1.28,13.61-2.61,27.22-3.89,40.84c-0.11,1.21-0.5,1.96-1.65,2.57c-6.44,3.37-12.83,6.85-19.35,10.35
			c-4.84-5.03-9.69-10.06-14.67-15.24c0,13.66,0,27.15,0,40.99c-2.74-4.19-5.3-8.11-8.01-12.25c0.38,16.61,0.75,33,1.12,49.39
			c-0.08,0.03-0.16,0.06-0.24,0.08c-1.9-2.95-3.79-5.91-5.69-8.86c-0.08,0.02-0.17,0.04-0.25,0.06
			c-1.37,14.99-2.75,29.98-4.12,44.97c-0.08,0.01-0.16,0.03-0.23,0.04c-4.56-26.16-9.12-52.32-13.73-78.8
			C124.08,121.44,126.23,122.87,128.6,124.44z M165.96,87.49c1.13-1.47,2.22-2.8,3.2-4.21c0.35-0.51,0.61-1.22,0.59-1.83
			c-0.61-15.89-1.27-31.79-1.92-47.68c-0.1-2.5-0.23-5-0.34-7.63c-0.53,0.2-0.9,0.34-1.26,0.49c-4.2,1.75-8.39,3.53-12.61,5.23
			c-0.84,0.34-1.11,0.74-1.1,1.65c0.06,8.55,0.06,17.11,0.09,25.66c0.03,6.75,0.06,13.51,0.14,20.26c0.01,0.48,0.2,1.21,0.54,1.39
			C157.44,83.08,161.66,85.25,165.96,87.49z"/>
	</g>
</g>
</svg>
