<?xml version="1.0" encoding="utf-8"?>
<!-- Generator: Adobe Illustrator 23.0.0, SVG Export Plug-In . SVG Version: 6.00 Build 0)  -->
<svg version="1.1" id="Layer_1" xmlns="http://www.w3.org/2000/svg" xmlns:xlink="http://www.w3.org/1999/xlink" x="0px" y="0px"
	 viewBox="0 0 130.1 50" style="enable-background:new 0 0 130.1 50;" xml:space="preserve">
<style type="text/css">
	.Drop_x0020_Shadow{fill:none;}
	.Round_x0020_Corners_x0020_2_x0020_pt{fill:#FFFFFF;stroke:#000000;stroke-miterlimit:10;}
	.Live_x0020_Reflect_x0020_X{fill:none;}
	.Bevel_x0020_Soft{fill:url(#SVGID_1_);}
	.Dusk{fill:#FFFFFF;}
	.Foliage_GS{fill:#FFDD00;}
	.Pompadour_GS{fill-rule:evenodd;clip-rule:evenodd;fill:#44ADE2;}
	.st0{fill:#D3C6A9;}
</style>
<linearGradient id="SVGID_1_" gradientUnits="userSpaceOnUse" x1="0" y1="0" x2="0.7071" y2="0.7071">
	<stop  offset="0" style="stop-color:#DEDFE3"/>
	<stop  offset="0.1738" style="stop-color:#D8D9DD"/>
	<stop  offset="0.352" style="stop-color:#C9CACD"/>
	<stop  offset="0.5323" style="stop-color:#B4B5B8"/>
	<stop  offset="0.7139" style="stop-color:#989A9C"/>
	<stop  offset="0.8949" style="stop-color:#797C7E"/>
	<stop  offset="1" style="stop-color:#656B6C"/>
</linearGradient>
<path class="st0" d="M37.2,30.7c-0.8,1.7-1.2,2.5-2.2,4.1c-1.4,2.1-3.4,4.8-5.9,4.8c-2.2,0-2.8-1.4-5.7-1.4c-3,0-3.6,1.4-5.8,1.4
	c-2.5,0-4.3-2.4-5.8-4.6c-3.9-6-4.4-13.1-1.9-16.8c1.7-2.7,4.5-4.2,7-4.2c2.6,0,4.3,1.4,6.4,1.4c2.1,0,3.4-1.4,6.4-1.4
	c2.3,0,4.7,1.2,6.4,3.4C30.5,20.5,31.5,28.6,37.2,30.7L37.2,30.7z"/>
<path class="st0" d="M27.5,11.6c1.1-1.4,1.9-3.4,1.6-5.4C27.3,6.3,25.2,7.5,24,9c-1.1,1.3-2,3.3-1.7,5.3
	C24.3,14.3,26.3,13.2,27.5,11.6z"/>
<g>
	<path class="st0" d="M47.2,21.2c0,1.2-0.9,2.2-2.4,2.2c-1.4,0-2.3-1-2.3-2.2c0-1.3,0.9-2.2,2.3-2.2C46.2,19,47.1,19.9,47.2,21.2z
		 M42.6,39.3V25.1H47v14.2H42.6z M54.5,23.5h-5.2v-3.7h15v3.7h-5.3v15.8h-4.4L54.5,23.5z M78.3,34.8c0,1.9,0.1,3.4,0.1,4.6h-3.8
		l-0.2-2h-0.1c-0.6,0.9-1.9,2.3-4.4,2.3c-2.9,0-5-1.8-5-6.2v-8.3h4.4v7.6c0,2.1,0.7,3.3,2.2,3.3c1.2,0,1.9-0.8,2.2-1.5
		c0.1-0.3,0.1-0.6,0.1-1v-8.4h4.4L78.3,34.8L78.3,34.8L78.3,34.8z M81.8,29.7c0-1.8-0.1-3.3-0.1-4.5h3.8l0.2,1.9h0.1
		c0.6-0.9,2-2.3,4.4-2.3c2.9,0,5.1,1.9,5.1,6.1v8.4h-4.4v-7.9c0-1.8-0.6-3.1-2.2-3.1c-1.2,0-1.9,0.8-2.2,1.7
		c-0.1,0.3-0.2,0.7-0.2,1.1v8.2h-4.4L81.8,29.7L81.8,29.7L81.8,29.7z M102.2,33.6c0.1,1.8,1.9,2.7,4,2.7c1.5,0,2.7-0.2,3.9-0.6
		l0.6,3c-1.4,0.6-3.2,0.9-5.1,0.9c-4.8,0-7.6-2.8-7.6-7.3c0-3.6,2.2-7.6,7.2-7.6c4.6,0,6.3,3.6,6.3,7.1c0,0.8-0.1,1.4-0.1,1.7
		L102.2,33.6L102.2,33.6z M107.4,30.6c0-1.1-0.5-2.9-2.5-2.9c-1.9,0-2.6,1.7-2.7,2.9H107.4z M114.1,35.5c0.8,0.5,2.5,1.1,3.8,1.1
		c1.3,0,1.9-0.5,1.9-1.2s-0.4-1.1-2.1-1.6c-2.9-1-4.1-2.6-4-4.2c0-2.7,2.3-4.7,5.8-4.7c1.7,0,3.1,0.4,4,0.8l-0.8,3
		c-0.6-0.3-1.9-0.8-3.1-0.8c-1.1,0-1.7,0.4-1.7,1.2c0,0.7,0.6,1,2.3,1.6c2.7,0.9,3.8,2.3,3.9,4.4c0,2.6-2.1,4.6-6.1,4.6
		c-1.9,0-3.5-0.4-4.6-1L114.1,35.5L114.1,35.5z"/>
</g>
</svg>
