<?xml version="1.0" encoding="utf-8"?>
<!-- Generator: Adobe Illustrator 23.0.0, SVG Export Plug-In . SVG Version: 6.00 Build 0)  -->
<svg version="1.1" id="Layer_1" xmlns="http://www.w3.org/2000/svg" xmlns:xlink="http://www.w3.org/1999/xlink" x="0px" y="0px"
	 viewBox="0 0 113.7 58.9" style="enable-background:new 0 0 113.7 58.9;" xml:space="preserve">
<style type="text/css">
	.Drop_x0020_Shadow{fill:none;}
	.Round_x0020_Corners_x0020_2_x0020_pt{fill:#FFFFFF;stroke:#000000;stroke-miterlimit:10;}
	.Live_x0020_Reflect_x0020_X{fill:none;}
	.Bevel_x0020_Soft{fill:url(#SVGID_1_);}
	.Dusk{fill:#FFFFFF;}
	.Foliage_GS{fill:#FFDD00;}
	.Pompadour_GS{fill-rule:evenodd;clip-rule:evenodd;fill:#44ADE2;}
	.st0{fill:#D3C6A9;}
</style>
<linearGradient id="SVGID_1_" gradientUnits="userSpaceOnUse" x1="0" y1="8.9143" x2="0.7071" y2="9.6214">
	<stop  offset="0" style="stop-color:#DEDFE3"/>
	<stop  offset="0.1738" style="stop-color:#D8D9DD"/>
	<stop  offset="0.352" style="stop-color:#C9CACD"/>
	<stop  offset="0.5323" style="stop-color:#B4B5B8"/>
	<stop  offset="0.7139" style="stop-color:#989A9C"/>
	<stop  offset="0.8949" style="stop-color:#797C7E"/>
	<stop  offset="1" style="stop-color:#656B6C"/>
</linearGradient>
<g>
	<path class="st0" d="M22,8.7c0.3,0.1,0.6,0.1,0.9,0.3c2.9,1.6,5.9,3,9,4.1c3.3,1.1,6.6,2,10.1,2.5c3.9,0.6,7.8,0.8,11.8,0.6
		c4.4-0.2,8.8-1,13-2.3c1.7-0.5,3.4-1.2,5.1-1.7c0.5-0.2,1.1,0,1.7,0c0.2,0.5-0.1,0.7-0.4,0.9c-0.8,0.5-1.6,1-2.5,1.5
		c-1.2,0.7-2.3,1.4-3.6,1.9c-3.2,1.5-6.5,2.3-10,2.9c-3.4,0.6-6.7,0.7-10.1,0.5c-3.9-0.2-7.6-1-11.2-2.4c-4.2-1.6-8-3.8-11.7-6.3
		c-0.6-0.4-1.1-0.9-1.7-1.5c-0.2-0.2-0.3-0.5-0.5-0.8C22,8.8,22,8.7,22,8.7z"/>
	<path class="st0" d="M71.6,37.2c0,4,0,8.1,0,12.1c0,0.6-0.2,1-0.8,1.2c-3.1,1.1-6.2,1.2-9.2-0.1c-2.7-1.2-4.1-3.5-4.6-6.3
		c-0.4-2.5,0.1-4.9,1.4-7.1c1.3-2.3,3.3-3.7,6-4.2c1.4-0.2,2.7-0.1,4,0.1c0.6,0.1,0.8-0.1,0.8-0.6c0-2.4,0-4.8,0-7.2
		c0-0.6,0.1-0.8,0.8-0.8c1.7,0,1.7,0,1.7,1.7C71.6,29.7,71.6,33.5,71.6,37.2C71.6,37.2,71.6,37.2,71.6,37.2z M69.2,42.1c0-2,0-4,0-6
		c0-0.5-0.1-0.8-0.7-1c-2.5-0.7-4.7-0.3-6.6,1.4c-2.4,2.1-3.1,5.8-1.8,8.7c1,2.3,2.7,3.8,5.3,4.2c0.9,0.1,1.8,0.1,2.7,0
		c0.7-0.1,1.2-0.8,1.2-1.5C69.2,45.9,69.2,44,69.2,42.1z"/>
	<path class="st0" d="M30.2,50.9c-1,0-1.9,0-2.7,0c-0.3,0-0.6-0.3-0.8-0.5c-2.3-2.8-4.6-5.5-6.9-8.3c-0.1-0.2-0.3-0.3-0.6-0.5
		c0,0.4-0.1,0.6-0.1,0.8c0,2.6,0,5.2,0,7.8c0,0.6-0.2,0.7-0.7,0.7c-1.8,0-1.8,0-1.8-1.8c0-8,0-15.9,0-23.9c0-0.9,0-0.9,0.9-0.9
		c1.6,0,1.6,0,1.6,1.6c0,4.3,0,8.6,0,12.9c0,0.3,0,0.5,0.1,0.9c0.7-0.6,1.2-1.2,1.8-1.7c1.5-1.5,3.1-3,4.6-4.4
		c0.2-0.2,0.4-0.3,0.6-0.4c0.9,0,1.9,0,2.9,0c-1.4,1.3-2.8,2.6-4.2,3.9c-0.9,0.8-1.8,1.7-2.7,2.5c-0.2,0.1-0.4,0.2-0.5,0.4
		c-0.1,0.2-0.2,0.5-0.2,0.6c0.3,0.5,0.7,0.9,1,1.3c2.3,2.8,4.7,5.5,7,8.3C29.9,50.3,30,50.6,30.2,50.9z"/>
	<path class="st0" d="M96.2,48c0.2,0.5,0.5,0.9,0.6,1.4c0,0.2-0.2,0.5-0.3,0.6c-1.3,0.7-2.7,1.3-4.2,1.5c-2.4,0.2-4.4-0.5-6.1-2
		c-1.5-1.4-2.4-3.2-2.8-5.2c-0.6-2.9-0.2-5.7,1.4-8.2c0.9-1.5,2.2-2.6,4-3c3.3-0.7,6.7,0.6,7.9,4.2c0.6,1.6,0.4,3.3,0.5,4.9
		c0,0.4-0.3,0.4-0.6,0.4c-3-0.1-6-0.1-9.1-0.2c-0.4,0-0.8,0.1-1.2,0.2c-0.2,0.1-0.4,0.3-0.4,0.5c0,2.2,1.2,4.7,3.4,5.7
		c2.1,1,4.1,0.7,6.1-0.2C95.5,48.3,95.8,48.2,96.2,48z M90.2,40.3c1.3,0,2.5,0,3.8,0c0.4,0,0.7-0.1,0.6-0.6
		c-0.1-1.2-0.4-2.3-1.1-3.3c-1.3-1.7-3.3-2.2-5.2-1.1c-1.7,1-2.3,2.6-2.5,4.5c0,0.5,0.3,0.6,0.7,0.5C87.7,40.3,89,40.3,90.2,40.3z"
		/>
	<path class="st0" d="M39.6,42c0-2.7,0-5.4,0-8.1c0-0.6,0.2-0.8,0.7-0.7c0,0,0,0,0.1,0c1.2,0,1.2,0,1.4,1.2c0,0.1,0,0.3,0.1,0.4
		c0.1,0.4,0.3,0.5,0.7,0.3c1.2-0.7,2.4-1.4,3.7-1.9c1.1-0.5,2.3-0.6,3.4-0.4c2.2,0.4,3.2,2,3.6,4c0.2,1,0.3,2.1,0.3,3.1
		c0,3.4,0,6.9,0,10.3c0,0.6-0.1,0.8-0.7,0.7c-0.4,0-0.8,0-1.2,0c-0.4,0-0.5-0.2-0.5-0.5c0-1.7,0.1-3.3,0.1-5c0-2.4,0-4.8-0.2-7.1
		c-0.1-1.4-0.8-2.6-2.3-3c-0.9-0.3-1.8-0.1-2.6,0.2c-1.4,0.5-2.6,1.3-3.7,2.3c-0.2,0.2-0.3,0.6-0.3,0.8c0,3.8,0,7.7,0,11.5
		c0,0.8,0,0.8-0.8,0.8c-1.6,0-1.6,0-1.6-1.6C39.6,46.9,39.6,44.4,39.6,42z"/>
	<path class="st0" d="M76.1,36.8c0-3.9,0-7.8,0-11.8c0-0.6,0.2-0.8,0.8-0.8c1.7,0,1.7,0,1.7,1.6c0,7,0,14,0,21c0,0.3,0,0.7,0.1,1
		c0.2,0.9,0.6,1.1,1.5,1.2c0.3,0,0.8,0,0.9,0.2c0.2,0.4,0.2,0.9,0.2,1.4c0,0.1-0.2,0.2-0.4,0.3c-0.9,0.4-1.9,0.4-2.9,0.2
		c-1.1-0.3-1.8-1.3-1.8-2.6C76.1,44.6,76.1,40.7,76.1,36.8C76.1,36.8,76.1,36.8,76.1,36.8z"/>
	<path class="st0" d="M32.7,42c0-2.7,0-5.4,0-8.2c0-0.5,0.1-0.7,0.6-0.7c0.4,0,0.9,0,1.3,0c0.2,0,0.3,0.3,0.5,0.4
		c0.1,0.1,0,0.2,0,0.4c0,5.3,0,10.6,0,16c0,0.9,0,0.9-0.8,0.9c-1.6,0-1.6,0-1.6-1.6C32.7,46.8,32.7,44.4,32.7,42z"/>
	<path class="st0" d="M74.3,17.6c0.4-1.1,0.9-2.1,1.2-3c0.3-1.1,0.6-2.2,0.8-3.4c0.1-0.9-0.3-1.5-1.2-1.6c-1.4-0.1-2.9-0.1-4.3-0.1
		c-0.8,0-1.5,0.1-2.2,0.2c0-0.1-0.1-0.1-0.1-0.2c0.3-0.2,0.5-0.6,0.8-0.7c1.2-0.4,2.3-0.9,3.5-1.1c1.5-0.3,3-0.2,4.6,0.1
		c1.2,0.2,1.5,0.5,1.4,1.7c-0.3,2.9-1.1,5.7-3.4,7.7c-0.1,0.1-0.3,0.2-0.5,0.3C74.7,17.5,74.6,17.5,74.3,17.6z"/>
	<path class="st0" d="M33.9,25.5c1,0,1.8,0.8,1.8,1.8c0,1-0.8,1.8-1.8,1.8c-0.9,0-1.8-0.9-1.8-1.8C32.1,26.3,32.9,25.5,33.9,25.5z"
		/>
</g>
</svg>
