<?xml version="1.0" encoding="utf-8"?>
<!-- Generator: Adobe Illustrator 23.0.0, SVG Export Plug-In . SVG Version: 6.00 Build 0)  -->
<svg version="1.1" id="Layer_1" xmlns="http://www.w3.org/2000/svg" xmlns:xlink="http://www.w3.org/1999/xlink" x="0px" y="0px"
	 viewBox="0 0 47.3 500.9" style="enable-background:new 0 0 47.3 500.9;" xml:space="preserve">
<style type="text/css">
	.Drop_x0020_Shadow{fill:none;}
	.Round_x0020_Corners_x0020_2_x0020_pt{fill:#FFFFFF;stroke:#000000;stroke-miterlimit:10;}
	.Live_x0020_Reflect_x0020_X{fill:none;}
	.Bevel_x0020_Soft{fill:url(#SVGID_1_);}
	.Dusk{fill:#FFFFFF;}
	.Foliage_GS{fill:#FFDD00;}
	.Pompadour_GS{fill-rule:evenodd;clip-rule:evenodd;fill:#44ADE2;}
	.st0{fill:#D3C6A9;}
</style>
<linearGradient id="SVGID_1_" gradientUnits="userSpaceOnUse" x1="-274.8857" y1="-313.5428" x2="-274.1786" y2="-312.8358">
	<stop  offset="0" style="stop-color:#DEDFE3"/>
	<stop  offset="0.1738" style="stop-color:#D8D9DD"/>
	<stop  offset="0.352" style="stop-color:#C9CACD"/>
	<stop  offset="0.5323" style="stop-color:#B4B5B8"/>
	<stop  offset="0.7139" style="stop-color:#989A9C"/>
	<stop  offset="0.8949" style="stop-color:#797C7E"/>
	<stop  offset="1" style="stop-color:#656B6C"/>
</linearGradient>
<g>
	<path class="st0" d="M25.9,460.2c-0.5-9.3,0.1-18.7-0.7-28c-0.5-5.8-0.8-11.5-0.9-17.3c-0.1-2.9-0.1-5.9-0.3-8.8
		c-0.1-2.8,0.1-6-0.8-8.7c-0.2-0.6-1.2-0.7-1.3,0c-0.4,2.7,0,5.6,0,8.4c0.1,2.9,0.1,5.9,0.2,8.8c0.1,5.9,0.3,11.7,0.8,17.6
		c0.8,9.3,0.3,18.7,0.9,28C23.9,461.5,26,461.6,25.9,460.2z"/>
	<path class="st0" d="M23.8,83.4c0.3-8.7,0.3-17.4,0.1-26c-0.1-4.3-0.2-8.6-0.3-12.9c0-2,0-4-0.1-6c0-2,0.2-4.1-0.3-6
		c-0.2-0.6-1.1-0.6-1.3,0c-0.6,1.8-0.4,3.8-0.4,5.7c0,2.1,0,4.2,0,6.3c0,4.3,0.1,8.6,0.1,12.9c0.1,8.7,0.3,17.4,0.1,26
		C21.7,84.8,23.7,84.7,23.8,83.4z"/>
	<path class="st0" d="M23.8,171.4c0.3-8.7,0.3-17.4,0.1-26c-0.1-4.3-0.2-8.6-0.3-12.9c0-2,0-4-0.1-6c0-2,0.2-4.1-0.3-6
		c-0.2-0.6-1.1-0.6-1.3,0c-0.6,1.8-0.4,3.8-0.4,5.7c0,2.1,0,4.2,0,6.3c0,4.3,0.1,8.6,0.1,12.9c0.1,8.7,0.3,17.4,0.1,26
		C21.7,172.8,23.7,172.8,23.8,171.4z"/>
	<path class="st0" d="M24,28.5c0.4-0.4,0.6-1,0.6-1.6c-0.1-1.3-1.5-2.2-2.7-1.7c-1.1,0.4-1.6,2-1,3c0.3,0.5,0.8,0.9,1.4,0.9
		c0,0,0.1,0,0.1,0C23,29.3,23.7,28.8,24,28.5z M21.7,27.7c-0.1-0.6,0-1.4,0.7-1.6c0.7-0.2,1.3,0.4,1.3,1.1c0,0.3-0.1,0.7-0.4,0.9
		c-0.3,0.3-0.6,0.3-0.9,0.5c-0.1,0-0.1-0.1-0.2-0.1C21.9,28.2,21.8,28,21.7,27.7z"/>
	<path class="st0" d="M24.3,88.2c-0.3-0.5-0.9-0.8-1.5-0.7c-0.1,0-0.1,0-0.2,0c-0.5-0.1-1.1,0.3-1.5,0.7c-0.4,0.5-0.5,1.1-0.4,1.7
		c0.2,1.3,1.7,2,2.9,1.4C24.7,90.8,25,89.2,24.3,88.2z M21.6,89.6c0-0.3,0-0.7,0.2-0.9c0.2-0.3,0.6-0.4,0.9-0.7
		c0.1,0,0.1,0.1,0.2,0.1c0.3,0.2,0.5,0.4,0.6,0.7c0.2,0.6,0.2,1.4-0.5,1.6C22.4,90.8,21.7,90.3,21.6,89.6z"/>
	<path class="st0" d="M22.7,116.2c0.5,0.1,1.1-0.3,1.5-0.7c0.4-0.5,0.5-1.1,0.4-1.7c-0.2-1.3-1.7-2-2.9-1.4c-1,0.6-1.3,2.1-0.7,3.1
		c0.3,0.5,0.9,0.8,1.5,0.7C22.6,116.2,22.6,116.2,22.7,116.2z M21.8,114.9c-0.2-0.6-0.2-1.4,0.5-1.6c0.6-0.3,1.4,0.2,1.5,0.9
		c0,0.3,0,0.7-0.2,0.9c-0.2,0.3-0.6,0.4-0.9,0.7c-0.1,0-0.1-0.1-0.2-0.1C22,115.4,21.9,115.2,21.8,114.9z"/>
	<path class="st0" d="M23.6,23.4c0.3-0.2,0.7-0.4,1-0.7c0.3-0.4,0.6-0.8,0.9-1.2c0.6-0.9,1.3-1.8,1.9-2.7c0.1-0.1,0.2-0.2,0.1-0.3
		c-0.2-2.2-1-4.4-1.7-6.5c-0.6-2-0.9-4.6-2.1-6.4c-0.1-0.1-0.3-0.1-0.3,0.1c0,0,0,0,0,0C23,6.3,22.7,7.2,22.4,8
		c-0.4,1-0.8,1.9-1.1,3c-0.7,2.5-0.9,5.1-1.6,7.6c0,0.1,0,0.2,0,0.2c0.1,0.9,0.7,1.7,1.2,2.4c0.5,0.8,1.1,1.5,1.8,2.2
		C23.1,23.7,23.4,23.6,23.6,23.4z M21.8,20.9c-0.6-0.7-1-1.4-1.5-2.2c0,0,0-0.1,0-0.1c0.3-2.6,1.5-5.1,2-7.6c0.2-1.1,0.6-2.1,1-3.1
		c0.1-0.4,0.3-0.7,0.4-1.1c0.3,1.7,0.8,3.5,1.2,5.2c0.5,2.2,1.1,4.4,1.8,6.5c-0.7,0.6-1.2,1.3-1.7,2c-0.4,0.5-0.7,1-1.1,1.5
		c-0.2,0.2-0.3,0.5-0.4,0.7C22.9,22.1,22.3,21.5,21.8,20.9z"/>
	<path class="st0" d="M26.9,464.3c-0.3-0.5-0.8-0.9-1.4-0.9c0,0-0.1,0-0.1,0c-0.5-0.2-1.2,0.2-1.6,0.6c-0.4,0.4-0.6,1-0.6,1.6
		c0.1,1.3,1.5,2.2,2.7,1.7C27,466.9,27.5,465.3,26.9,464.3z M24.1,465.3c0-0.3,0.1-0.7,0.4-0.9c0.3-0.3,0.6-0.3,0.9-0.5
		c0.1,0,0.1,0.1,0.2,0.1c0.3,0.2,0.4,0.4,0.5,0.8c0.1,0.6,0,1.4-0.7,1.6C24.7,466.6,24.1,466,24.1,465.3z"/>
	<path class="st0" d="M24.3,486.9C24.3,486.8,24.3,486.8,24.3,486.9c0.5-0.7,0.8-1.6,1.1-2.4c0.4-1,0.8-1.9,1.1-3
		c0.7-2.5,0.9-5.1,1.6-7.6c0-0.1,0-0.2,0-0.2c-0.1-0.9-0.7-1.7-1.2-2.4c-0.5-0.8-1.1-1.5-1.8-2.2c-0.2-0.3-0.6-0.2-0.7,0.1
		c-0.3,0.2-0.7,0.4-1,0.7c-0.3,0.4-0.6,0.8-0.9,1.2c-0.6,0.9-1.3,1.8-1.9,2.7c-0.1,0.1-0.2,0.2-0.1,0.3c0.2,2.2,1,4.4,1.7,6.5
		c0.6,2,0.9,4.6,2.1,6.4C24.1,487,24.3,487,24.3,486.9z M21.1,474c0.7-0.6,1.2-1.3,1.7-2c0.4-0.5,0.7-1,1.1-1.5
		c0.2-0.2,0.3-0.5,0.4-0.7c0.6,0.6,1.2,1.1,1.7,1.8c0.6,0.7,1,1.4,1.5,2.2c0,0,0,0.1,0,0.1c-0.3,2.6-1.5,5.1-2,7.6
		c-0.2,1.1-0.6,2.1-1,3.1c-0.1,0.4-0.3,0.7-0.4,1.1c-0.3-1.7-0.8-3.5-1.2-5.2C22.4,478.4,21.9,476.1,21.1,474z"/>
	<path class="st0" d="M29.8,106.2c1.1-1.4,1.7-3.3,1.5-5.1c0.1-3-2.6-5.5-5.3-6.3c-3.7-1.1-7.3,0.6-8.8,4.1
		c-1.4,3.3-0.4,7.5,2.7,9.4C23.1,110.3,27.6,109.1,29.8,106.2z M18.4,104.1c-1.5-3.6,0.8-8.2,4.9-8.5c3.2-0.2,6.5,2,7.1,5.1
		c0,0.2,0,0.4,0,0.6c-0.1,2.2-1.1,4.1-2.9,5.3C24.2,108.7,19.9,107.8,18.4,104.1z"/>
	<path class="st0" d="M24.3,178.6c-0.3-0.5-0.9-0.8-1.5-0.7c-0.1,0-0.1,0-0.2,0c-0.5-0.1-1.1,0.3-1.5,0.7c-0.4,0.5-0.5,1.1-0.4,1.7
		c0.2,1.3,1.7,2,2.9,1.4C24.7,181.1,25,179.6,24.3,178.6z M21.6,180c0-0.3,0-0.7,0.2-0.9c0.2-0.3,0.6-0.4,0.9-0.7
		c0.1,0,0.1,0.1,0.2,0.1c0.3,0.2,0.5,0.4,0.6,0.7c0.2,0.6,0.2,1.4-0.5,1.6C22.4,181.1,21.7,180.7,21.6,180z"/>
	<path class="st0" d="M22.7,206.6c0.5,0.1,1.1-0.3,1.5-0.7c0.4-0.5,0.5-1.1,0.4-1.7c-0.2-1.3-1.7-2-2.9-1.4c-1,0.6-1.3,2.1-0.7,3.1
		c0.3,0.5,0.9,0.8,1.5,0.7C22.6,206.6,22.6,206.6,22.7,206.6z M21.8,205.2c-0.2-0.6-0.2-1.4,0.5-1.6c0.6-0.3,1.4,0.2,1.5,0.9
		c0,0.3,0,0.7-0.2,0.9c-0.2,0.3-0.6,0.4-0.9,0.7c-0.1,0-0.1-0.1-0.2-0.1C22,205.8,21.9,205.6,21.8,205.2z"/>
	<path class="st0" d="M29.8,196.6c1.1-1.4,1.7-3.3,1.5-5.1c0.1-3-2.6-5.5-5.3-6.3c-3.7-1.1-7.3,0.6-8.8,4.1
		c-1.4,3.3-0.4,7.5,2.7,9.4C23.1,200.6,27.6,199.4,29.8,196.6z M18.4,194.5c-1.5-3.6,0.8-8.2,4.9-8.5c3.2-0.2,6.5,2,7.1,5.1
		c0,0.2,0,0.4,0,0.6c-0.1,2.2-1.1,4.1-2.9,5.3C24.2,199,19.9,198.2,18.4,194.5z"/>
	<path class="st0" d="M23.8,264.5c0.3-8.7,0.3-17.4,0.1-26c-0.1-4.3-0.2-8.6-0.3-12.9c0-2,0-4-0.1-6c0-2,0.2-4.1-0.3-6
		c-0.2-0.6-1.1-0.6-1.3,0c-0.6,1.8-0.4,3.8-0.4,5.7c0,2.1,0,4.2,0,6.3c0,4.3,0.1,8.6,0.1,12.9c0.1,8.7,0.3,17.4,0.1,26
		C21.7,265.8,23.7,265.8,23.8,264.5z"/>
	<path class="st0" d="M24.3,271.7c-0.3-0.5-0.9-0.8-1.5-0.7c-0.1,0-0.1,0-0.2,0c-0.5-0.1-1.1,0.3-1.5,0.7c-0.4,0.5-0.5,1.1-0.4,1.7
		c0.2,1.3,1.7,2,2.9,1.4C24.7,274.2,25,272.6,24.3,271.7z M21.6,273.1c0-0.3,0-0.7,0.2-0.9c0.2-0.3,0.6-0.4,0.9-0.7
		c0.1,0,0.1,0.1,0.2,0.1c0.3,0.2,0.5,0.4,0.6,0.7c0.2,0.6,0.2,1.4-0.5,1.6C22.4,274.2,21.7,273.7,21.6,273.1z"/>
	<path class="st0" d="M22.7,299.6c0.5,0.1,1.1-0.3,1.5-0.7c0.4-0.5,0.5-1.1,0.4-1.7c-0.2-1.3-1.7-2-2.9-1.4c-1,0.6-1.3,2.1-0.7,3.1
		c0.3,0.5,0.9,0.8,1.5,0.7C22.6,299.7,22.6,299.7,22.7,299.6z M21.8,298.3c-0.2-0.6-0.2-1.4,0.5-1.6c0.6-0.3,1.4,0.2,1.5,0.9
		c0,0.3,0,0.7-0.2,0.9c-0.2,0.3-0.6,0.4-0.9,0.7c-0.1,0-0.1-0.1-0.2-0.1C22,298.8,21.9,298.7,21.8,298.3z"/>
	<path class="st0" d="M29.8,289.7c1.1-1.4,1.7-3.3,1.5-5.1c0.1-3-2.6-5.5-5.3-6.3c-3.7-1.1-7.3,0.6-8.8,4.1
		c-1.4,3.3-0.4,7.5,2.7,9.4C23.1,293.7,27.6,292.5,29.8,289.7z M18.4,287.6c-1.5-3.6,0.8-8.2,4.9-8.5c3.2-0.2,6.5,2,7.1,5.1
		c0,0.2,0,0.4,0,0.6c-0.1,2.2-1.1,4.1-2.9,5.3C24.2,292.1,19.9,291.3,18.4,287.6z"/>
	<path class="st0" d="M23.8,356.6c0.3-8.7,0.3-17.4,0.1-26c-0.1-4.3-0.2-8.6-0.3-12.9c0-2,0-4-0.1-6c0-2,0.2-4.1-0.3-6
		c-0.2-0.6-1.1-0.6-1.3,0c-0.6,1.8-0.4,3.8-0.4,5.7c0,2.1,0,4.2,0,6.3c0,4.3,0.1,8.6,0.1,12.9c0.1,8.7,0.3,17.4,0.1,26
		C21.7,357.9,23.7,357.9,23.8,356.6z"/>
	<path class="st0" d="M24.3,363.7c-0.3-0.5-0.9-0.8-1.5-0.7c-0.1,0-0.1,0-0.2,0c-0.5-0.1-1.1,0.3-1.5,0.7c-0.4,0.5-0.5,1.1-0.4,1.7
		c0.2,1.3,1.7,2,2.9,1.4C24.7,366.3,25,364.7,24.3,363.7z M21.6,365.1c0-0.3,0-0.7,0.2-0.9c0.2-0.3,0.6-0.4,0.9-0.7
		c0.1,0,0.1,0.1,0.2,0.1c0.3,0.2,0.5,0.4,0.6,0.7c0.2,0.6,0.2,1.4-0.5,1.6C22.4,366.3,21.7,365.8,21.6,365.1z"/>
	<path class="st0" d="M22.7,391.7c0.5,0.1,1.1-0.3,1.5-0.7c0.4-0.5,0.5-1.1,0.4-1.7c-0.2-1.3-1.7-2-2.9-1.4c-1,0.6-1.3,2.1-0.7,3.1
		c0.3,0.5,0.9,0.8,1.5,0.7C22.6,391.7,22.6,391.7,22.7,391.7z M21.8,390.4c-0.2-0.6-0.2-1.4,0.5-1.6c0.6-0.3,1.4,0.2,1.5,0.9
		c0,0.3,0,0.7-0.2,0.9c-0.2,0.3-0.6,0.4-0.9,0.7c-0.1,0-0.1-0.1-0.2-0.1C22,390.9,21.9,390.7,21.8,390.4z"/>
	<path class="st0" d="M29.8,381.7c1.1-1.4,1.7-3.3,1.5-5.1c0.1-3-2.6-5.5-5.3-6.3c-3.7-1.1-7.3,0.6-8.8,4.1
		c-1.4,3.3-0.4,7.5,2.7,9.4C23.1,385.8,27.6,384.6,29.8,381.7z M18.4,379.6c-1.5-3.6,0.8-8.2,4.9-8.5c3.2-0.2,6.5,2,7.1,5.1
		c0,0.2,0,0.4,0,0.6c-0.1,2.2-1.1,4.1-2.9,5.3C24.2,384.2,19.9,383.3,18.4,379.6z"/>
	<ellipse class="st0" cx="24.4" cy="102" rx="7" ry="6.4"/>
</g>
<g>
	<path class="st0" d="M93.2,460.2c-0.5-9.3,0.1-18.7-0.7-28c-0.5-5.8-0.8-11.5-0.9-17.3c-0.1-2.9-0.1-5.9-0.3-8.8
		c-0.1-2.8,0.1-6-0.8-8.7c-0.2-0.6-1.2-0.7-1.3,0c-0.4,2.7,0,5.6,0,8.4c0.1,2.9,0.1,5.9,0.2,8.8c0.1,5.9,0.3,11.7,0.8,17.6
		c0.8,9.3,0.3,18.7,0.9,28C91.2,461.5,93.3,461.6,93.2,460.2z"/>
	<path class="st0" d="M91.1,83.4c0.3-8.7,0.3-17.4,0.1-26c-0.1-4.3-0.2-8.6-0.3-12.9c0-2,0-4-0.1-6c0-2,0.2-4.1-0.3-6
		c-0.2-0.6-1.1-0.6-1.3,0c-0.6,1.8-0.4,3.8-0.4,5.7c0,2.1,0,4.2,0,6.3c0,4.3,0.1,8.6,0.1,12.9c0.1,8.7,0.3,17.4,0.1,26
		C89,84.8,91.1,84.7,91.1,83.4z"/>
	<path class="st0" d="M91.1,171.4c0.3-8.7,0.3-17.4,0.1-26c-0.1-4.3-0.2-8.6-0.3-12.9c0-2,0-4-0.1-6c0-2,0.2-4.1-0.3-6
		c-0.2-0.6-1.1-0.6-1.3,0c-0.6,1.8-0.4,3.8-0.4,5.7c0,2.1,0,4.2,0,6.3c0,4.3,0.1,8.6,0.1,12.9c0.1,8.7,0.3,17.4,0.1,26
		C89,172.8,91.1,172.8,91.1,171.4z"/>
	<path class="st0" d="M91.3,28.5c0.4-0.4,0.6-1,0.6-1.6c-0.1-1.3-1.5-2.2-2.7-1.7c-1.1,0.4-1.6,2-1,3c0.3,0.5,0.8,0.9,1.4,0.9
		c0,0,0.1,0,0.1,0C90.3,29.3,91,28.8,91.3,28.5z M89,27.7c-0.1-0.6,0-1.4,0.7-1.6c0.7-0.2,1.3,0.4,1.3,1.1c0,0.3-0.1,0.7-0.4,0.9
		c-0.3,0.3-0.6,0.3-0.9,0.5c-0.1,0-0.1-0.1-0.2-0.1C89.2,28.2,89.1,28,89,27.7z"/>
	<path class="st0" d="M91.6,88.2c-0.3-0.5-0.9-0.8-1.5-0.7c-0.1,0-0.1,0-0.2,0c-0.5-0.1-1.1,0.3-1.5,0.7c-0.4,0.5-0.5,1.1-0.4,1.7
		c0.2,1.3,1.7,2,2.9,1.4C92,90.8,92.3,89.2,91.6,88.2z M88.9,89.6c0-0.3,0-0.7,0.2-0.9c0.2-0.3,0.6-0.4,0.9-0.7
		c0.1,0,0.1,0.1,0.2,0.1c0.3,0.2,0.5,0.4,0.6,0.7c0.2,0.6,0.2,1.4-0.5,1.6C89.8,90.8,89,90.3,88.9,89.6z"/>
	<path class="st0" d="M90,116.2c0.5,0.1,1.1-0.3,1.5-0.7c0.4-0.5,0.5-1.1,0.4-1.7c-0.2-1.3-1.7-2-2.9-1.4c-1,0.6-1.3,2.1-0.7,3.1
		c0.3,0.5,0.9,0.8,1.5,0.7C89.9,116.2,89.9,116.2,90,116.2z M89.1,114.9c-0.2-0.6-0.2-1.4,0.5-1.6c0.6-0.3,1.4,0.2,1.5,0.9
		c0,0.3,0,0.7-0.2,0.9c-0.2,0.3-0.6,0.4-0.9,0.7c-0.1,0-0.1-0.1-0.2-0.1C89.3,115.4,89.2,115.2,89.1,114.9z"/>
	<path class="st0" d="M90.9,23.4c0.3-0.2,0.7-0.4,1-0.7c0.3-0.4,0.6-0.8,0.9-1.2c0.6-0.9,1.3-1.8,1.9-2.7c0.1-0.1,0.2-0.2,0.1-0.3
		c-0.2-2.2-1-4.4-1.7-6.5c-0.6-2-0.9-4.6-2.1-6.4c-0.1-0.1-0.3-0.1-0.3,0.1c0,0,0,0,0,0c-0.6,0.7-0.8,1.6-1.1,2.3
		c-0.4,1-0.8,1.9-1.1,3c-0.7,2.5-0.9,5.1-1.6,7.6c0,0.1,0,0.2,0,0.2c0.1,0.9,0.7,1.7,1.2,2.4c0.5,0.8,1.1,1.5,1.8,2.2
		C90.4,23.7,90.7,23.6,90.9,23.4z M89.1,20.9c-0.6-0.7-1-1.4-1.5-2.2c0,0,0-0.1,0-0.1c0.3-2.6,1.5-5.1,2-7.6c0.2-1.1,0.6-2.1,1-3.1
		c0.1-0.4,0.3-0.7,0.4-1.1c0.3,1.7,0.8,3.5,1.2,5.2c0.5,2.2,1.1,4.4,1.8,6.5c-0.7,0.6-1.2,1.3-1.7,2c-0.4,0.5-0.7,1-1.1,1.5
		c-0.2,0.2-0.3,0.5-0.4,0.7C90.2,22.1,89.6,21.5,89.1,20.9z"/>
	<path class="st0" d="M94.2,464.3c-0.3-0.5-0.8-0.9-1.4-0.9c0,0-0.1,0-0.1,0c-0.5-0.2-1.2,0.2-1.6,0.6c-0.4,0.4-0.6,1-0.6,1.6
		c0.1,1.3,1.5,2.2,2.7,1.7C94.3,466.9,94.8,465.3,94.2,464.3z M91.4,465.3c0-0.3,0.1-0.7,0.4-0.9c0.3-0.3,0.6-0.3,0.9-0.5
		c0.1,0,0.1,0.1,0.2,0.1c0.3,0.2,0.4,0.4,0.5,0.8c0.1,0.6,0,1.4-0.7,1.6C92,466.6,91.4,466,91.4,465.3z"/>
	<path class="st0" d="M91.6,486.9C91.6,486.8,91.6,486.8,91.6,486.9c0.5-0.7,0.8-1.6,1.1-2.4c0.4-1,0.8-1.9,1.1-3
		c0.7-2.5,0.9-5.1,1.6-7.6c0-0.1,0-0.2,0-0.2c-0.1-0.9-0.7-1.7-1.2-2.4c-0.5-0.8-1.1-1.5-1.8-2.2c-0.2-0.3-0.6-0.2-0.7,0.1
		c-0.3,0.2-0.7,0.4-1,0.7c-0.3,0.4-0.6,0.8-0.9,1.2c-0.6,0.9-1.3,1.8-1.9,2.7c-0.1,0.1-0.2,0.2-0.1,0.3c0.2,2.2,1,4.4,1.7,6.5
		c0.6,2,0.9,4.6,2.1,6.4C91.4,487,91.6,487,91.6,486.9z M88.4,474c0.7-0.6,1.2-1.3,1.7-2c0.4-0.5,0.7-1,1.1-1.5
		c0.2-0.2,0.3-0.5,0.4-0.7c0.6,0.6,1.2,1.1,1.7,1.8c0.6,0.7,1,1.4,1.5,2.2c0,0,0,0.1,0,0.1c-0.3,2.6-1.5,5.1-2,7.6
		c-0.2,1.1-0.6,2.1-1,3.1c-0.1,0.4-0.3,0.7-0.4,1.1c-0.3-1.7-0.8-3.5-1.2-5.2C89.7,478.4,89.2,476.1,88.4,474z"/>
	<path class="st0" d="M97.2,106.2c1.1-1.4,1.7-3.3,1.5-5.1c0.1-3-2.6-5.5-5.3-6.3c-3.7-1.1-7.3,0.6-8.8,4.1
		c-1.4,3.3-0.4,7.5,2.7,9.4C90.4,110.3,94.9,109.1,97.2,106.2z M85.7,104.1c-1.5-3.6,0.8-8.2,4.9-8.5c3.2-0.2,6.5,2,7.1,5.1
		c0,0.2,0,0.4,0,0.6c-0.1,2.2-1.1,4.1-2.9,5.3C91.5,108.7,87.2,107.8,85.7,104.1z"/>
	<path class="st0" d="M91.6,178.6c-0.3-0.5-0.9-0.8-1.5-0.7c-0.1,0-0.1,0-0.2,0c-0.5-0.1-1.1,0.3-1.5,0.7c-0.4,0.5-0.5,1.1-0.4,1.7
		c0.2,1.3,1.7,2,2.9,1.4C92,181.1,92.3,179.6,91.6,178.6z M88.9,180c0-0.3,0-0.7,0.2-0.9c0.2-0.3,0.6-0.4,0.9-0.7
		c0.1,0,0.1,0.1,0.2,0.1c0.3,0.2,0.5,0.4,0.6,0.7c0.2,0.6,0.2,1.4-0.5,1.6C89.8,181.1,89,180.7,88.9,180z"/>
	<path class="st0" d="M90,206.6c0.5,0.1,1.1-0.3,1.5-0.7c0.4-0.5,0.5-1.1,0.4-1.7c-0.2-1.3-1.7-2-2.9-1.4c-1,0.6-1.3,2.1-0.7,3.1
		c0.3,0.5,0.9,0.8,1.5,0.7C89.9,206.6,89.9,206.6,90,206.6z M89.1,205.2c-0.2-0.6-0.2-1.4,0.5-1.6c0.6-0.3,1.4,0.2,1.5,0.9
		c0,0.3,0,0.7-0.2,0.9c-0.2,0.3-0.6,0.4-0.9,0.7c-0.1,0-0.1-0.1-0.2-0.1C89.3,205.8,89.2,205.6,89.1,205.2z"/>
	<path class="st0" d="M97.2,196.6c1.1-1.4,1.7-3.3,1.5-5.1c0.1-3-2.6-5.5-5.3-6.3c-3.7-1.1-7.3,0.6-8.8,4.1
		c-1.4,3.3-0.4,7.5,2.7,9.4C90.4,200.6,94.9,199.4,97.2,196.6z M85.7,194.5c-1.5-3.6,0.8-8.2,4.9-8.5c3.2-0.2,6.5,2,7.1,5.1
		c0,0.2,0,0.4,0,0.6c-0.1,2.2-1.1,4.1-2.9,5.3C91.5,199,87.2,198.2,85.7,194.5z"/>
	<path class="st0" d="M91.1,264.5c0.3-8.7,0.3-17.4,0.1-26c-0.1-4.3-0.2-8.6-0.3-12.9c0-2,0-4-0.1-6c0-2,0.2-4.1-0.3-6
		c-0.2-0.6-1.1-0.6-1.3,0c-0.6,1.8-0.4,3.8-0.4,5.7c0,2.1,0,4.2,0,6.3c0,4.3,0.1,8.6,0.1,12.9c0.1,8.7,0.3,17.4,0.1,26
		C89,265.8,91.1,265.8,91.1,264.5z"/>
	<path class="st0" d="M91.6,271.7c-0.3-0.5-0.9-0.8-1.5-0.7c-0.1,0-0.1,0-0.2,0c-0.5-0.1-1.1,0.3-1.5,0.7c-0.4,0.5-0.5,1.1-0.4,1.7
		c0.2,1.3,1.7,2,2.9,1.4C92,274.2,92.3,272.6,91.6,271.7z M88.9,273.1c0-0.3,0-0.7,0.2-0.9c0.2-0.3,0.6-0.4,0.9-0.7
		c0.1,0,0.1,0.1,0.2,0.1c0.3,0.2,0.5,0.4,0.6,0.7c0.2,0.6,0.2,1.4-0.5,1.6C89.8,274.2,89,273.7,88.9,273.1z"/>
	<path class="st0" d="M90,299.6c0.5,0.1,1.1-0.3,1.5-0.7c0.4-0.5,0.5-1.1,0.4-1.7c-0.2-1.3-1.7-2-2.9-1.4c-1,0.6-1.3,2.1-0.7,3.1
		c0.3,0.5,0.9,0.8,1.5,0.7C89.9,299.7,89.9,299.7,90,299.6z M89.1,298.3c-0.2-0.6-0.2-1.4,0.5-1.6c0.6-0.3,1.4,0.2,1.5,0.9
		c0,0.3,0,0.7-0.2,0.9c-0.2,0.3-0.6,0.4-0.9,0.7c-0.1,0-0.1-0.1-0.2-0.1C89.3,298.8,89.2,298.7,89.1,298.3z"/>
	<path class="st0" d="M97.2,289.7c1.1-1.4,1.7-3.3,1.5-5.1c0.1-3-2.6-5.5-5.3-6.3c-3.7-1.1-7.3,0.6-8.8,4.1
		c-1.4,3.3-0.4,7.5,2.7,9.4C90.4,293.7,94.9,292.5,97.2,289.7z M85.7,287.6c-1.5-3.6,0.8-8.2,4.9-8.5c3.2-0.2,6.5,2,7.1,5.1
		c0,0.2,0,0.4,0,0.6c-0.1,2.2-1.1,4.1-2.9,5.3C91.5,292.1,87.2,291.3,85.7,287.6z"/>
	<path class="st0" d="M91.1,356.6c0.3-8.7,0.3-17.4,0.1-26c-0.1-4.3-0.2-8.6-0.3-12.9c0-2,0-4-0.1-6c0-2,0.2-4.1-0.3-6
		c-0.2-0.6-1.1-0.6-1.3,0c-0.6,1.8-0.4,3.8-0.4,5.7c0,2.1,0,4.2,0,6.3c0,4.3,0.1,8.6,0.1,12.9c0.1,8.7,0.3,17.4,0.1,26
		C89,357.9,91.1,357.9,91.1,356.6z"/>
	<path class="st0" d="M91.6,363.7c-0.3-0.5-0.9-0.8-1.5-0.7c-0.1,0-0.1,0-0.2,0c-0.5-0.1-1.1,0.3-1.5,0.7c-0.4,0.5-0.5,1.1-0.4,1.7
		c0.2,1.3,1.7,2,2.9,1.4C92,366.3,92.3,364.7,91.6,363.7z M88.9,365.1c0-0.3,0-0.7,0.2-0.9c0.2-0.3,0.6-0.4,0.9-0.7
		c0.1,0,0.1,0.1,0.2,0.1c0.3,0.2,0.5,0.4,0.6,0.7c0.2,0.6,0.2,1.4-0.5,1.6C89.8,366.3,89,365.8,88.9,365.1z"/>
	<path class="st0" d="M90,391.7c0.5,0.1,1.1-0.3,1.5-0.7c0.4-0.5,0.5-1.1,0.4-1.7c-0.2-1.3-1.7-2-2.9-1.4c-1,0.6-1.3,2.1-0.7,3.1
		c0.3,0.5,0.9,0.8,1.5,0.7C89.9,391.7,89.9,391.7,90,391.7z M89.1,390.4c-0.2-0.6-0.2-1.4,0.5-1.6c0.6-0.3,1.4,0.2,1.5,0.9
		c0,0.3,0,0.7-0.2,0.9c-0.2,0.3-0.6,0.4-0.9,0.7c-0.1,0-0.1-0.1-0.2-0.1C89.3,390.9,89.2,390.7,89.1,390.4z"/>
	<path class="st0" d="M97.2,381.7c1.1-1.4,1.7-3.3,1.5-5.1c0.1-3-2.6-5.5-5.3-6.3c-3.7-1.1-7.3,0.6-8.8,4.1
		c-1.4,3.3-0.4,7.5,2.7,9.4C90.4,385.8,94.9,384.6,97.2,381.7z M85.7,379.6c-1.5-3.6,0.8-8.2,4.9-8.5c3.2-0.2,6.5,2,7.1,5.1
		c0,0.2,0,0.4,0,0.6c-0.1,2.2-1.1,4.1-2.9,5.3C91.5,384.2,87.2,383.3,85.7,379.6z"/>
	<ellipse class="st0" cx="91.5" cy="192.2" rx="7" ry="6.4"/>
</g>
<g>
	<path class="st0" d="M160.5,460.2c-0.5-9.3,0.1-18.7-0.7-28c-0.5-5.8-0.8-11.5-0.9-17.3c-0.1-2.9-0.1-5.9-0.3-8.8
		c-0.1-2.8,0.1-6-0.8-8.7c-0.2-0.6-1.2-0.7-1.3,0c-0.4,2.7,0,5.6,0,8.4c0.1,2.9,0.1,5.9,0.2,8.8c0.1,5.9,0.3,11.7,0.8,17.6
		c0.8,9.3,0.3,18.7,0.9,28C158.5,461.5,160.6,461.6,160.5,460.2z"/>
	<path class="st0" d="M158.4,83.4c0.3-8.7,0.3-17.4,0.1-26c-0.1-4.3-0.2-8.6-0.3-12.9c0-2,0-4-0.1-6c0-2,0.2-4.1-0.3-6
		c-0.2-0.6-1.1-0.6-1.3,0c-0.6,1.8-0.4,3.8-0.4,5.7c0,2.1,0,4.2,0,6.3c0,4.3,0.1,8.6,0.1,12.9c0.1,8.7,0.3,17.4,0.1,26
		C156.3,84.8,158.4,84.7,158.4,83.4z"/>
	<path class="st0" d="M158.4,171.4c0.3-8.7,0.3-17.4,0.1-26c-0.1-4.3-0.2-8.6-0.3-12.9c0-2,0-4-0.1-6c0-2,0.2-4.1-0.3-6
		c-0.2-0.6-1.1-0.6-1.3,0c-0.6,1.8-0.4,3.8-0.4,5.7c0,2.1,0,4.2,0,6.3c0,4.3,0.1,8.6,0.1,12.9c0.1,8.7,0.3,17.4,0.1,26
		C156.3,172.8,158.4,172.8,158.4,171.4z"/>
	<path class="st0" d="M158.7,28.5c0.4-0.4,0.6-1,0.6-1.6c-0.1-1.3-1.5-2.2-2.7-1.7c-1.1,0.4-1.6,2-1,3c0.3,0.5,0.8,0.9,1.4,0.9
		c0,0,0.1,0,0.1,0C157.6,29.3,158.3,28.8,158.7,28.5z M156.3,27.7c-0.1-0.6,0-1.4,0.7-1.6c0.7-0.2,1.3,0.4,1.3,1.1
		c0,0.3-0.1,0.7-0.4,0.9c-0.3,0.3-0.6,0.3-0.9,0.5c-0.1,0-0.1-0.1-0.2-0.1C156.6,28.2,156.4,28,156.3,27.7z"/>
	<path class="st0" d="M159,88.2c-0.3-0.5-0.9-0.8-1.5-0.7c-0.1,0-0.1,0-0.2,0c-0.5-0.1-1.1,0.3-1.5,0.7c-0.4,0.5-0.5,1.1-0.4,1.7
		c0.2,1.3,1.7,2,2.9,1.4C159.3,90.8,159.6,89.2,159,88.2z M156.3,89.6c0-0.3,0-0.7,0.2-0.9c0.2-0.3,0.6-0.4,0.9-0.7
		c0.1,0,0.1,0.1,0.2,0.1c0.3,0.2,0.5,0.4,0.6,0.7c0.2,0.6,0.2,1.4-0.5,1.6C157.1,90.8,156.4,90.3,156.3,89.6z"/>
	<path class="st0" d="M157.3,116.2c0.5,0.1,1.1-0.3,1.5-0.7c0.4-0.5,0.5-1.1,0.4-1.7c-0.2-1.3-1.7-2-2.9-1.4c-1,0.6-1.3,2.1-0.7,3.1
		c0.3,0.5,0.9,0.8,1.5,0.7C157.2,116.2,157.2,116.2,157.3,116.2z M156.4,114.9c-0.2-0.6-0.2-1.4,0.5-1.6c0.6-0.3,1.4,0.2,1.5,0.9
		c0,0.3,0,0.7-0.2,0.9c-0.2,0.3-0.6,0.4-0.9,0.7c-0.1,0-0.1-0.1-0.2-0.1C156.7,115.4,156.5,115.2,156.4,114.9z"/>
	<path class="st0" d="M158.2,23.4c0.3-0.2,0.7-0.4,1-0.7c0.3-0.4,0.6-0.8,0.9-1.2c0.6-0.9,1.3-1.8,1.9-2.7c0.1-0.1,0.2-0.2,0.1-0.3
		c-0.2-2.2-1-4.4-1.7-6.5c-0.6-2-0.9-4.6-2.1-6.4c-0.1-0.1-0.3-0.1-0.3,0.1c0,0,0,0,0,0c-0.6,0.7-0.8,1.6-1.1,2.3
		c-0.4,1-0.8,1.9-1.1,3c-0.7,2.5-0.9,5.1-1.6,7.6c0,0.1,0,0.2,0,0.2c0.1,0.9,0.7,1.7,1.2,2.4c0.5,0.8,1.1,1.5,1.8,2.2
		C157.7,23.7,158.1,23.6,158.2,23.4z M156.4,20.9c-0.6-0.7-1-1.4-1.5-2.2c0,0,0-0.1,0-0.1c0.3-2.6,1.5-5.1,2-7.6
		c0.2-1.1,0.6-2.1,1-3.1c0.1-0.4,0.3-0.7,0.4-1.1c0.3,1.7,0.8,3.5,1.2,5.2c0.5,2.2,1.1,4.4,1.8,6.5c-0.7,0.6-1.2,1.3-1.7,2
		c-0.4,0.5-0.7,1-1.1,1.5c-0.2,0.2-0.3,0.5-0.4,0.7C157.5,22.1,156.9,21.5,156.4,20.9z"/>
	<path class="st0" d="M161.5,464.3c-0.3-0.5-0.8-0.9-1.4-0.9c0,0-0.1,0-0.1,0c-0.5-0.2-1.2,0.2-1.6,0.6c-0.4,0.4-0.6,1-0.6,1.6
		c0.1,1.3,1.5,2.2,2.7,1.7C161.6,466.9,162.1,465.3,161.5,464.3z M158.7,465.3c0-0.3,0.1-0.7,0.4-0.9c0.3-0.3,0.6-0.3,0.9-0.5
		c0.1,0,0.1,0.1,0.2,0.1c0.3,0.2,0.4,0.4,0.5,0.8c0.1,0.6,0,1.4-0.7,1.6C159.4,466.6,158.7,466,158.7,465.3z"/>
	<path class="st0" d="M158.9,486.9C158.9,486.8,158.9,486.8,158.9,486.9c0.5-0.7,0.8-1.6,1.1-2.4c0.4-1,0.8-1.9,1.1-3
		c0.7-2.5,0.9-5.1,1.6-7.6c0-0.1,0-0.2,0-0.2c-0.1-0.9-0.7-1.7-1.2-2.4c-0.5-0.8-1.1-1.5-1.8-2.2c-0.2-0.3-0.6-0.2-0.7,0.1
		c-0.3,0.2-0.7,0.4-1,0.7c-0.3,0.4-0.6,0.8-0.9,1.2c-0.6,0.9-1.3,1.8-1.9,2.7c-0.1,0.1-0.2,0.2-0.1,0.3c0.2,2.2,1,4.4,1.7,6.5
		c0.6,2,0.9,4.6,2.1,6.4C158.7,487,158.9,487,158.9,486.9z M155.7,474c0.7-0.6,1.2-1.3,1.7-2c0.4-0.5,0.7-1,1.1-1.5
		c0.2-0.2,0.3-0.5,0.4-0.7c0.6,0.6,1.2,1.1,1.7,1.8c0.6,0.7,1,1.4,1.5,2.2c0,0,0,0.1,0,0.1c-0.3,2.6-1.5,5.1-2,7.6
		c-0.2,1.1-0.6,2.1-1,3.1c-0.1,0.4-0.3,0.7-0.4,1.1c-0.3-1.7-0.8-3.5-1.2-5.2C157,478.4,156.5,476.1,155.7,474z"/>
	<path class="st0" d="M164.5,106.2c1.1-1.4,1.7-3.3,1.5-5.1c0.1-3-2.6-5.5-5.3-6.3c-3.7-1.1-7.3,0.6-8.8,4.1
		c-1.4,3.3-0.4,7.5,2.7,9.4C157.7,110.3,162.3,109.1,164.5,106.2z M153,104.1c-1.5-3.6,0.8-8.2,4.9-8.5c3.2-0.2,6.5,2,7.1,5.1
		c0,0.2,0,0.4,0,0.6c-0.1,2.2-1.1,4.1-2.9,5.3C158.8,108.7,154.5,107.8,153,104.1z"/>
	<path class="st0" d="M159,178.6c-0.3-0.5-0.9-0.8-1.5-0.7c-0.1,0-0.1,0-0.2,0c-0.5-0.1-1.1,0.3-1.5,0.7c-0.4,0.5-0.5,1.1-0.4,1.7
		c0.2,1.3,1.7,2,2.9,1.4C159.3,181.1,159.6,179.6,159,178.6z M156.3,180c0-0.3,0-0.7,0.2-0.9c0.2-0.3,0.6-0.4,0.9-0.7
		c0.1,0,0.1,0.1,0.2,0.1c0.3,0.2,0.5,0.4,0.6,0.7c0.2,0.6,0.2,1.4-0.5,1.6C157.1,181.1,156.4,180.7,156.3,180z"/>
	<path class="st0" d="M157.3,206.6c0.5,0.1,1.1-0.3,1.5-0.7c0.4-0.5,0.5-1.1,0.4-1.7c-0.2-1.3-1.7-2-2.9-1.4c-1,0.6-1.3,2.1-0.7,3.1
		c0.3,0.5,0.9,0.8,1.5,0.7C157.2,206.6,157.2,206.6,157.3,206.6z M156.4,205.2c-0.2-0.6-0.2-1.4,0.5-1.6c0.6-0.3,1.4,0.2,1.5,0.9
		c0,0.3,0,0.7-0.2,0.9c-0.2,0.3-0.6,0.4-0.9,0.7c-0.1,0-0.1-0.1-0.2-0.1C156.7,205.8,156.5,205.6,156.4,205.2z"/>
	<path class="st0" d="M164.5,196.6c1.1-1.4,1.7-3.3,1.5-5.1c0.1-3-2.6-5.5-5.3-6.3c-3.7-1.1-7.3,0.6-8.8,4.1
		c-1.4,3.3-0.4,7.5,2.7,9.4C157.7,200.6,162.3,199.4,164.5,196.6z M153,194.5c-1.5-3.6,0.8-8.2,4.9-8.5c3.2-0.2,6.5,2,7.1,5.1
		c0,0.2,0,0.4,0,0.6c-0.1,2.2-1.1,4.1-2.9,5.3C158.8,199,154.5,198.2,153,194.5z"/>
	<path class="st0" d="M158.4,264.5c0.3-8.7,0.3-17.4,0.1-26c-0.1-4.3-0.2-8.6-0.3-12.9c0-2,0-4-0.1-6c0-2,0.2-4.1-0.3-6
		c-0.2-0.6-1.1-0.6-1.3,0c-0.6,1.8-0.4,3.8-0.4,5.7c0,2.1,0,4.2,0,6.3c0,4.3,0.1,8.6,0.1,12.9c0.1,8.7,0.3,17.4,0.1,26
		C156.3,265.8,158.4,265.8,158.4,264.5z"/>
	<path class="st0" d="M159,271.7c-0.3-0.5-0.9-0.8-1.5-0.7c-0.1,0-0.1,0-0.2,0c-0.5-0.1-1.1,0.3-1.5,0.7c-0.4,0.5-0.5,1.1-0.4,1.7
		c0.2,1.3,1.7,2,2.9,1.4C159.3,274.2,159.6,272.6,159,271.7z M156.3,273.1c0-0.3,0-0.7,0.2-0.9c0.2-0.3,0.6-0.4,0.9-0.7
		c0.1,0,0.1,0.1,0.2,0.1c0.3,0.2,0.5,0.4,0.6,0.7c0.2,0.6,0.2,1.4-0.5,1.6C157.1,274.2,156.4,273.7,156.3,273.1z"/>
	<path class="st0" d="M157.3,299.6c0.5,0.1,1.1-0.3,1.5-0.7c0.4-0.5,0.5-1.1,0.4-1.7c-0.2-1.3-1.7-2-2.9-1.4c-1,0.6-1.3,2.1-0.7,3.1
		c0.3,0.5,0.9,0.8,1.5,0.7C157.2,299.7,157.2,299.7,157.3,299.6z M156.4,298.3c-0.2-0.6-0.2-1.4,0.5-1.6c0.6-0.3,1.4,0.2,1.5,0.9
		c0,0.3,0,0.7-0.2,0.9c-0.2,0.3-0.6,0.4-0.9,0.7c-0.1,0-0.1-0.1-0.2-0.1C156.7,298.8,156.5,298.7,156.4,298.3z"/>
	<path class="st0" d="M164.5,289.7c1.1-1.4,1.7-3.3,1.5-5.1c0.1-3-2.6-5.5-5.3-6.3c-3.7-1.1-7.3,0.6-8.8,4.1
		c-1.4,3.3-0.4,7.5,2.7,9.4C157.7,293.7,162.3,292.5,164.5,289.7z M153,287.6c-1.5-3.6,0.8-8.2,4.9-8.5c3.2-0.2,6.5,2,7.1,5.1
		c0,0.2,0,0.4,0,0.6c-0.1,2.2-1.1,4.1-2.9,5.3C158.8,292.1,154.5,291.3,153,287.6z"/>
	<path class="st0" d="M158.4,356.6c0.3-8.7,0.3-17.4,0.1-26c-0.1-4.3-0.2-8.6-0.3-12.9c0-2,0-4-0.1-6c0-2,0.2-4.1-0.3-6
		c-0.2-0.6-1.1-0.6-1.3,0c-0.6,1.8-0.4,3.8-0.4,5.7c0,2.1,0,4.2,0,6.3c0,4.3,0.1,8.6,0.1,12.9c0.1,8.7,0.3,17.4,0.1,26
		C156.3,357.9,158.4,357.9,158.4,356.6z"/>
	<path class="st0" d="M159,363.7c-0.3-0.5-0.9-0.8-1.5-0.7c-0.1,0-0.1,0-0.2,0c-0.5-0.1-1.1,0.3-1.5,0.7c-0.4,0.5-0.5,1.1-0.4,1.7
		c0.2,1.3,1.7,2,2.9,1.4C159.3,366.3,159.6,364.7,159,363.7z M156.3,365.1c0-0.3,0-0.7,0.2-0.9c0.2-0.3,0.6-0.4,0.9-0.7
		c0.1,0,0.1,0.1,0.2,0.1c0.3,0.2,0.5,0.4,0.6,0.7c0.2,0.6,0.2,1.4-0.5,1.6C157.1,366.3,156.4,365.8,156.3,365.1z"/>
	<path class="st0" d="M157.3,391.7c0.5,0.1,1.1-0.3,1.5-0.7c0.4-0.5,0.5-1.1,0.4-1.7c-0.2-1.3-1.7-2-2.9-1.4c-1,0.6-1.3,2.1-0.7,3.1
		c0.3,0.5,0.9,0.8,1.5,0.7C157.2,391.7,157.2,391.7,157.3,391.7z M156.4,390.4c-0.2-0.6-0.2-1.4,0.5-1.6c0.6-0.3,1.4,0.2,1.5,0.9
		c0,0.3,0,0.7-0.2,0.9c-0.2,0.3-0.6,0.4-0.9,0.7c-0.1,0-0.1-0.1-0.2-0.1C156.7,390.9,156.5,390.7,156.4,390.4z"/>
	<path class="st0" d="M164.5,381.7c1.1-1.4,1.7-3.3,1.5-5.1c0.1-3-2.6-5.5-5.3-6.3c-3.7-1.1-7.3,0.6-8.8,4.1
		c-1.4,3.3-0.4,7.5,2.7,9.4C157.7,385.8,162.3,384.6,164.5,381.7z M153,379.6c-1.5-3.6,0.8-8.2,4.9-8.5c3.2-0.2,6.5,2,7.1,5.1
		c0,0.2,0,0.4,0,0.6c-0.1,2.2-1.1,4.1-2.9,5.3C158.8,384.2,154.5,383.3,153,379.6z"/>
	<ellipse class="st0" cx="158.6" cy="285.1" rx="7" ry="6.4"/>
</g>
<g>
	<path class="st0" d="M227.8,460.2c-0.5-9.3,0.1-18.7-0.7-28c-0.5-5.8-0.8-11.5-0.9-17.3c-0.1-2.9-0.1-5.9-0.3-8.8
		c-0.1-2.8,0.1-6-0.8-8.7c-0.2-0.6-1.2-0.7-1.3,0c-0.4,2.7,0,5.6,0,8.4c0.1,2.9,0.1,5.9,0.2,8.8c0.1,5.9,0.3,11.7,0.8,17.6
		c0.8,9.3,0.3,18.7,0.9,28C225.8,461.5,227.9,461.6,227.8,460.2z"/>
	<path class="st0" d="M225.7,83.4c0.3-8.7,0.3-17.4,0.1-26c-0.1-4.3-0.2-8.6-0.3-12.9c0-2,0-4-0.1-6c0-2,0.2-4.1-0.3-6
		c-0.2-0.6-1.1-0.6-1.3,0c-0.6,1.8-0.4,3.8-0.4,5.7c0,2.1,0,4.2,0,6.3c0,4.3,0.1,8.6,0.1,12.9c0.1,8.7,0.3,17.4,0.1,26
		C223.6,84.8,225.7,84.7,225.7,83.4z"/>
	<path class="st0" d="M225.7,171.4c0.3-8.7,0.3-17.4,0.1-26c-0.1-4.3-0.2-8.6-0.3-12.9c0-2,0-4-0.1-6c0-2,0.2-4.1-0.3-6
		c-0.2-0.6-1.1-0.6-1.3,0c-0.6,1.8-0.4,3.8-0.4,5.7c0,2.1,0,4.2,0,6.3c0,4.3,0.1,8.6,0.1,12.9c0.1,8.7,0.3,17.4,0.1,26
		C223.6,172.8,225.7,172.8,225.7,171.4z"/>
	<path class="st0" d="M226,28.5c0.4-0.4,0.6-1,0.6-1.6c-0.1-1.3-1.5-2.2-2.7-1.7c-1.1,0.4-1.6,2-1,3c0.3,0.5,0.8,0.9,1.4,0.9
		c0,0,0.1,0,0.1,0C224.9,29.3,225.6,28.8,226,28.5z M223.7,27.7c-0.1-0.6,0-1.4,0.7-1.6c0.7-0.2,1.3,0.4,1.3,1.1
		c0,0.3-0.1,0.7-0.4,0.9c-0.3,0.3-0.6,0.3-0.9,0.5c-0.1,0-0.1-0.1-0.2-0.1C223.9,28.2,223.7,28,223.7,27.7z"/>
	<path class="st0" d="M226.3,88.2c-0.3-0.5-0.9-0.8-1.5-0.7c-0.1,0-0.1,0-0.2,0c-0.5-0.1-1.1,0.3-1.5,0.7c-0.4,0.5-0.5,1.1-0.4,1.7
		c0.2,1.3,1.7,2,2.9,1.4C226.6,90.8,226.9,89.2,226.3,88.2z M223.6,89.6c0-0.3,0-0.7,0.2-0.9c0.2-0.3,0.6-0.4,0.9-0.7
		c0.1,0,0.1,0.1,0.2,0.1c0.3,0.2,0.5,0.4,0.6,0.7c0.2,0.6,0.2,1.4-0.5,1.6C224.4,90.8,223.7,90.3,223.6,89.6z"/>
	<path class="st0" d="M224.6,116.2c0.5,0.1,1.1-0.3,1.5-0.7c0.4-0.5,0.5-1.1,0.4-1.7c-0.2-1.3-1.7-2-2.9-1.4c-1,0.6-1.3,2.1-0.7,3.1
		c0.3,0.5,0.9,0.8,1.5,0.7C224.5,116.2,224.6,116.2,224.6,116.2z M223.7,114.9c-0.2-0.6-0.2-1.4,0.5-1.6c0.6-0.3,1.4,0.2,1.5,0.9
		c0,0.3,0,0.7-0.2,0.9c-0.2,0.3-0.6,0.4-0.9,0.7c-0.1,0-0.1-0.1-0.2-0.1C224,115.4,223.8,115.2,223.7,114.9z"/>
	<path class="st0" d="M225.5,23.4c0.3-0.2,0.7-0.4,1-0.7c0.3-0.4,0.6-0.8,0.9-1.2c0.6-0.9,1.3-1.8,1.9-2.7c0.1-0.1,0.2-0.2,0.1-0.3
		c-0.2-2.2-1-4.4-1.7-6.5c-0.6-2-0.9-4.6-2.1-6.4c-0.1-0.1-0.3-0.1-0.3,0.1c0,0,0,0,0,0c-0.6,0.7-0.8,1.6-1.1,2.3
		c-0.4,1-0.8,1.9-1.1,3c-0.7,2.5-0.9,5.1-1.6,7.6c0,0.1,0,0.2,0,0.2c0.1,0.9,0.7,1.7,1.2,2.4c0.5,0.8,1.1,1.5,1.8,2.2
		C225,23.7,225.4,23.6,225.5,23.4z M223.7,20.9c-0.6-0.7-1-1.4-1.5-2.2c0,0,0-0.1,0-0.1c0.3-2.6,1.5-5.1,2-7.6
		c0.2-1.1,0.6-2.1,1-3.1c0.1-0.4,0.3-0.7,0.4-1.1c0.3,1.7,0.8,3.5,1.2,5.2c0.5,2.2,1.1,4.4,1.8,6.5c-0.7,0.6-1.2,1.3-1.7,2
		c-0.4,0.5-0.7,1-1.1,1.5c-0.2,0.2-0.3,0.5-0.4,0.7C224.8,22.1,224.2,21.5,223.7,20.9z"/>
	<path class="st0" d="M228.9,464.3c-0.3-0.5-0.8-0.9-1.4-0.9c0,0-0.1,0-0.1,0c-0.5-0.2-1.2,0.2-1.6,0.6c-0.4,0.4-0.6,1-0.6,1.6
		c0.1,1.3,1.5,2.2,2.7,1.7C228.9,466.9,229.5,465.3,228.9,464.3z M226,465.3c0-0.3,0.1-0.7,0.4-0.9c0.3-0.3,0.6-0.3,0.9-0.5
		c0.1,0,0.1,0.1,0.2,0.1c0.3,0.2,0.4,0.4,0.5,0.8c0.1,0.6,0,1.4-0.7,1.6C226.7,466.6,226,466,226,465.3z"/>
	<path class="st0" d="M226.2,486.9C226.2,486.8,226.2,486.8,226.2,486.9c0.5-0.7,0.8-1.6,1.1-2.4c0.4-1,0.8-1.9,1.1-3
		c0.7-2.5,0.9-5.1,1.6-7.6c0-0.1,0-0.2,0-0.2c-0.1-0.9-0.7-1.7-1.2-2.4c-0.5-0.8-1.1-1.5-1.8-2.2c-0.2-0.3-0.6-0.2-0.7,0.1
		c-0.3,0.2-0.7,0.4-1,0.7c-0.3,0.4-0.6,0.8-0.9,1.2c-0.6,0.9-1.3,1.8-1.9,2.7c-0.1,0.1-0.2,0.2-0.1,0.3c0.2,2.2,1,4.4,1.7,6.5
		c0.6,2,0.9,4.6,2.1,6.4C226,487,226.3,487,226.2,486.9z M223,474c0.7-0.6,1.2-1.3,1.7-2c0.4-0.5,0.7-1,1.1-1.5
		c0.2-0.2,0.3-0.5,0.4-0.7c0.6,0.6,1.2,1.1,1.7,1.8c0.6,0.7,1,1.4,1.5,2.2c0,0,0,0.1,0,0.1c-0.3,2.6-1.5,5.1-2,7.6
		c-0.2,1.1-0.6,2.1-1,3.1c-0.1,0.4-0.3,0.7-0.4,1.1c-0.3-1.7-0.8-3.5-1.2-5.2C224.3,478.4,223.8,476.1,223,474z"/>
	<path class="st0" d="M231.8,106.2c1.1-1.4,1.7-3.3,1.5-5.1c0.1-3-2.6-5.5-5.3-6.3c-3.7-1.1-7.3,0.6-8.8,4.1
		c-1.4,3.3-0.4,7.5,2.7,9.4C225,110.3,229.6,109.1,231.8,106.2z M220.3,104.1c-1.5-3.6,0.8-8.2,4.9-8.5c3.2-0.2,6.5,2,7.1,5.1
		c0,0.2,0,0.4,0,0.6c-0.1,2.2-1.1,4.1-2.9,5.3C226.1,108.7,221.8,107.8,220.3,104.1z"/>
	<path class="st0" d="M226.3,178.6c-0.3-0.5-0.9-0.8-1.5-0.7c-0.1,0-0.1,0-0.2,0c-0.5-0.1-1.1,0.3-1.5,0.7c-0.4,0.5-0.5,1.1-0.4,1.7
		c0.2,1.3,1.7,2,2.9,1.4C226.6,181.1,226.9,179.6,226.3,178.6z M223.6,180c0-0.3,0-0.7,0.2-0.9c0.2-0.3,0.6-0.4,0.9-0.7
		c0.1,0,0.1,0.1,0.2,0.1c0.3,0.2,0.5,0.4,0.6,0.7c0.2,0.6,0.2,1.4-0.5,1.6C224.4,181.1,223.7,180.7,223.6,180z"/>
	<path class="st0" d="M224.6,206.6c0.5,0.1,1.1-0.3,1.5-0.7c0.4-0.5,0.5-1.1,0.4-1.7c-0.2-1.3-1.7-2-2.9-1.4c-1,0.6-1.3,2.1-0.7,3.1
		c0.3,0.5,0.9,0.8,1.5,0.7C224.5,206.6,224.6,206.6,224.6,206.6z M223.7,205.2c-0.2-0.6-0.2-1.4,0.5-1.6c0.6-0.3,1.4,0.2,1.5,0.9
		c0,0.3,0,0.7-0.2,0.9c-0.2,0.3-0.6,0.4-0.9,0.7c-0.1,0-0.1-0.1-0.2-0.1C224,205.8,223.8,205.6,223.7,205.2z"/>
	<path class="st0" d="M231.8,196.6c1.1-1.4,1.7-3.3,1.5-5.1c0.1-3-2.6-5.5-5.3-6.3c-3.7-1.1-7.3,0.6-8.8,4.1
		c-1.4,3.3-0.4,7.5,2.7,9.4C225,200.6,229.6,199.4,231.8,196.6z M220.3,194.5c-1.5-3.6,0.8-8.2,4.9-8.5c3.2-0.2,6.5,2,7.1,5.1
		c0,0.2,0,0.4,0,0.6c-0.1,2.2-1.1,4.1-2.9,5.3C226.1,199,221.8,198.2,220.3,194.5z"/>
	<path class="st0" d="M225.7,264.5c0.3-8.7,0.3-17.4,0.1-26c-0.1-4.3-0.2-8.6-0.3-12.9c0-2,0-4-0.1-6c0-2,0.2-4.1-0.3-6
		c-0.2-0.6-1.1-0.6-1.3,0c-0.6,1.8-0.4,3.8-0.4,5.7c0,2.1,0,4.2,0,6.3c0,4.3,0.1,8.6,0.1,12.9c0.1,8.7,0.3,17.4,0.1,26
		C223.6,265.8,225.7,265.8,225.7,264.5z"/>
	<path class="st0" d="M226.3,271.7c-0.3-0.5-0.9-0.8-1.5-0.7c-0.1,0-0.1,0-0.2,0c-0.5-0.1-1.1,0.3-1.5,0.7c-0.4,0.5-0.5,1.1-0.4,1.7
		c0.2,1.3,1.7,2,2.9,1.4C226.6,274.2,226.9,272.6,226.3,271.7z M223.6,273.1c0-0.3,0-0.7,0.2-0.9c0.2-0.3,0.6-0.4,0.9-0.7
		c0.1,0,0.1,0.1,0.2,0.1c0.3,0.2,0.5,0.4,0.6,0.7c0.2,0.6,0.2,1.4-0.5,1.6C224.4,274.2,223.7,273.7,223.6,273.1z"/>
	<path class="st0" d="M224.6,299.6c0.5,0.1,1.1-0.3,1.5-0.7c0.4-0.5,0.5-1.1,0.4-1.7c-0.2-1.3-1.7-2-2.9-1.4c-1,0.6-1.3,2.1-0.7,3.1
		c0.3,0.5,0.9,0.8,1.5,0.7C224.5,299.7,224.6,299.7,224.6,299.6z M223.7,298.3c-0.2-0.6-0.2-1.4,0.5-1.6c0.6-0.3,1.4,0.2,1.5,0.9
		c0,0.3,0,0.7-0.2,0.9c-0.2,0.3-0.6,0.4-0.9,0.7c-0.1,0-0.1-0.1-0.2-0.1C224,298.8,223.8,298.7,223.7,298.3z"/>
	<path class="st0" d="M231.8,289.7c1.1-1.4,1.7-3.3,1.5-5.1c0.1-3-2.6-5.5-5.3-6.3c-3.7-1.1-7.3,0.6-8.8,4.1
		c-1.4,3.3-0.4,7.5,2.7,9.4C225,293.7,229.6,292.5,231.8,289.7z M220.3,287.6c-1.5-3.6,0.8-8.2,4.9-8.5c3.2-0.2,6.5,2,7.1,5.1
		c0,0.2,0,0.4,0,0.6c-0.1,2.2-1.1,4.1-2.9,5.3C226.1,292.1,221.8,291.3,220.3,287.6z"/>
	<path class="st0" d="M225.7,356.6c0.3-8.7,0.3-17.4,0.1-26c-0.1-4.3-0.2-8.6-0.3-12.9c0-2,0-4-0.1-6c0-2,0.2-4.1-0.3-6
		c-0.2-0.6-1.1-0.6-1.3,0c-0.6,1.8-0.4,3.8-0.4,5.7c0,2.1,0,4.2,0,6.3c0,4.3,0.1,8.6,0.1,12.9c0.1,8.7,0.3,17.4,0.1,26
		C223.6,357.9,225.7,357.9,225.7,356.6z"/>
	<path class="st0" d="M226.3,363.7c-0.3-0.5-0.9-0.8-1.5-0.7c-0.1,0-0.1,0-0.2,0c-0.5-0.1-1.1,0.3-1.5,0.7c-0.4,0.5-0.5,1.1-0.4,1.7
		c0.2,1.3,1.7,2,2.9,1.4C226.6,366.3,226.9,364.7,226.3,363.7z M223.6,365.1c0-0.3,0-0.7,0.2-0.9c0.2-0.3,0.6-0.4,0.9-0.7
		c0.1,0,0.1,0.1,0.2,0.1c0.3,0.2,0.5,0.4,0.6,0.7c0.2,0.6,0.2,1.4-0.5,1.6C224.4,366.3,223.7,365.8,223.6,365.1z"/>
	<path class="st0" d="M224.6,391.7c0.5,0.1,1.1-0.3,1.5-0.7c0.4-0.5,0.5-1.1,0.4-1.7c-0.2-1.3-1.7-2-2.9-1.4c-1,0.6-1.3,2.1-0.7,3.1
		c0.3,0.5,0.9,0.8,1.5,0.7C224.5,391.7,224.6,391.7,224.6,391.7z M223.7,390.4c-0.2-0.6-0.2-1.4,0.5-1.6c0.6-0.3,1.4,0.2,1.5,0.9
		c0,0.3,0,0.7-0.2,0.9c-0.2,0.3-0.6,0.4-0.9,0.7c-0.1,0-0.1-0.1-0.2-0.1C224,390.9,223.8,390.7,223.7,390.4z"/>
	<path class="st0" d="M231.8,381.7c1.1-1.4,1.7-3.3,1.5-5.1c0.1-3-2.6-5.5-5.3-6.3c-3.7-1.1-7.3,0.6-8.8,4.1
		c-1.4,3.3-0.4,7.5,2.7,9.4C225,385.8,229.6,384.6,231.8,381.7z M220.3,379.6c-1.5-3.6,0.8-8.2,4.9-8.5c3.2-0.2,6.5,2,7.1,5.1
		c0,0.2,0,0.4,0,0.6c-0.1,2.2-1.1,4.1-2.9,5.3C226.1,384.2,221.8,383.3,220.3,379.6z"/>
	<ellipse class="st0" cx="226.1" cy="377.1" rx="7" ry="6.4"/>
</g>
</svg>
