<?xml version="1.0" encoding="utf-8"?>
<!-- Generator: Adobe Illustrator 23.0.0, SVG Export Plug-In . SVG Version: 6.00 Build 0)  -->
<svg version="1.1" id="Layer_1" xmlns="http://www.w3.org/2000/svg" xmlns:xlink="http://www.w3.org/1999/xlink" x="0px" y="0px"
	 viewBox="0 0 47.3 500.9" style="enable-background:new 0 0 47.3 500.9;" xml:space="preserve">
<style type="text/css">
	.Drop_x0020_Shadow{fill:none;}
	.Round_x0020_Corners_x0020_2_x0020_pt{fill:#FFFFFF;stroke:#000000;stroke-miterlimit:10;}
	.Live_x0020_Reflect_x0020_X{fill:none;}
	.Bevel_x0020_Soft{fill:url(#SVGID_1_);}
	.Dusk{fill:#FFFFFF;}
	.Foliage_GS{fill:#FFDD00;}
	.Pompadour_GS{fill-rule:evenodd;clip-rule:evenodd;fill:#44ADE2;}
	.st0{fill:#D3C6A9;}
</style>
<linearGradient id="SVGID_1_" gradientUnits="userSpaceOnUse" x1="-476.8286" y1="-313.5428" x2="-476.1215" y2="-312.8358">
	<stop  offset="0" style="stop-color:#DEDFE3"/>
	<stop  offset="0.1738" style="stop-color:#D8D9DD"/>
	<stop  offset="0.352" style="stop-color:#C9CACD"/>
	<stop  offset="0.5323" style="stop-color:#B4B5B8"/>
	<stop  offset="0.7139" style="stop-color:#989A9C"/>
	<stop  offset="0.8949" style="stop-color:#797C7E"/>
	<stop  offset="1" style="stop-color:#656B6C"/>
</linearGradient>
<g>
	<path class="st0" d="M-176.1,460.2c-0.5-9.3,0.1-18.7-0.7-28c-0.5-5.8-0.8-11.5-0.9-17.3c-0.1-2.9-0.1-5.9-0.3-8.8
		c-0.1-2.8,0.1-6-0.8-8.7c-0.2-0.6-1.2-0.7-1.3,0c-0.4,2.7,0,5.6,0,8.4c0.1,2.9,0.1,5.9,0.2,8.8c0.1,5.9,0.3,11.7,0.8,17.6
		c0.8,9.3,0.3,18.7,0.9,28C-178,461.5-176,461.6-176.1,460.2z"/>
	<path class="st0" d="M-178.2,83.4c0.3-8.7,0.3-17.4,0.1-26c-0.1-4.3-0.2-8.6-0.3-12.9c0-2,0-4-0.1-6c0-2,0.2-4.1-0.3-6
		c-0.2-0.6-1.1-0.6-1.3,0c-0.6,1.8-0.4,3.8-0.4,5.7c0,2.1,0,4.2,0,6.3c0,4.3,0.1,8.6,0.1,12.9c0.1,8.7,0.3,17.4,0.1,26
		C-180.3,84.8-178.2,84.7-178.2,83.4z"/>
	<path class="st0" d="M-178.2,171.4c0.3-8.7,0.3-17.4,0.1-26c-0.1-4.3-0.2-8.6-0.3-12.9c0-2,0-4-0.1-6c0-2,0.2-4.1-0.3-6
		c-0.2-0.6-1.1-0.6-1.3,0c-0.6,1.8-0.4,3.8-0.4,5.7c0,2.1,0,4.2,0,6.3c0,4.3,0.1,8.6,0.1,12.9c0.1,8.7,0.3,17.4,0.1,26
		C-180.3,172.8-178.2,172.8-178.2,171.4z"/>
	<path class="st0" d="M-177.9,28.5c0.4-0.4,0.6-1,0.6-1.6c-0.1-1.3-1.5-2.2-2.7-1.7c-1.1,0.4-1.6,2-1,3c0.3,0.5,0.8,0.9,1.4,0.9
		c0,0,0.1,0,0.1,0C-179,29.3-178.3,28.8-177.9,28.5z M-180.2,27.7c-0.1-0.6,0-1.4,0.7-1.6c0.7-0.2,1.3,0.4,1.3,1.1
		c0,0.3-0.1,0.7-0.4,0.9c-0.3,0.3-0.6,0.3-0.9,0.5c-0.1,0-0.1-0.1-0.2-0.1C-180,28.2-180.1,28-180.2,27.7z"/>
	<path class="st0" d="M-177.6,88.2c-0.3-0.5-0.9-0.8-1.5-0.7c-0.1,0-0.1,0-0.2,0c-0.5-0.1-1.1,0.3-1.5,0.7c-0.4,0.5-0.5,1.1-0.4,1.7
		c0.2,1.3,1.7,2,2.9,1.4C-177.3,90.8-177,89.2-177.6,88.2z M-180.3,89.6c0-0.3,0-0.7,0.2-0.9c0.2-0.3,0.6-0.4,0.9-0.7
		c0.1,0,0.1,0.1,0.2,0.1c0.3,0.2,0.5,0.4,0.6,0.7c0.2,0.6,0.2,1.4-0.5,1.6C-179.5,90.8-180.2,90.3-180.3,89.6z"/>
	<path class="st0" d="M-179.3,116.2c0.5,0.1,1.1-0.3,1.5-0.7c0.4-0.5,0.5-1.1,0.4-1.7c-0.2-1.3-1.7-2-2.9-1.4
		c-1,0.6-1.3,2.1-0.7,3.1c0.3,0.5,0.9,0.8,1.5,0.7C-179.4,116.2-179.3,116.2-179.3,116.2z M-180.2,114.9c-0.2-0.6-0.2-1.4,0.5-1.6
		c0.6-0.3,1.4,0.2,1.5,0.9c0,0.3,0,0.7-0.2,0.9c-0.2,0.3-0.6,0.4-0.9,0.7c-0.1,0-0.1-0.1-0.2-0.1
		C-179.9,115.4-180.1,115.2-180.2,114.9z"/>
	<path class="st0" d="M-178.3,23.4c0.3-0.2,0.7-0.4,1-0.7c0.3-0.4,0.6-0.8,0.9-1.2c0.6-0.9,1.3-1.8,1.9-2.7c0.1-0.1,0.2-0.2,0.1-0.3
		c-0.2-2.2-1-4.4-1.7-6.5c-0.6-2-0.9-4.6-2.1-6.4c-0.1-0.1-0.3-0.1-0.3,0.1c0,0,0,0,0,0c-0.6,0.7-0.8,1.6-1.1,2.3
		c-0.4,1-0.8,1.9-1.1,3c-0.7,2.5-0.9,5.1-1.6,7.6c0,0.1,0,0.2,0,0.2c0.1,0.9,0.7,1.7,1.2,2.4c0.5,0.8,1.1,1.5,1.8,2.2
		C-178.8,23.7-178.5,23.6-178.3,23.4z M-180.2,20.9c-0.6-0.7-1-1.4-1.5-2.2c0,0,0-0.1,0-0.1c0.3-2.6,1.5-5.1,2-7.6
		c0.2-1.1,0.6-2.1,1-3.1c0.1-0.4,0.3-0.7,0.4-1.1c0.3,1.7,0.8,3.5,1.2,5.2c0.5,2.2,1.1,4.4,1.8,6.5c-0.7,0.6-1.2,1.3-1.7,2
		c-0.4,0.5-0.7,1-1.1,1.5c-0.2,0.2-0.3,0.5-0.4,0.7C-179.1,22.1-179.6,21.5-180.2,20.9z"/>
	<path class="st0" d="M-175,464.3c-0.3-0.5-0.8-0.9-1.4-0.9c0,0-0.1,0-0.1,0c-0.5-0.2-1.2,0.2-1.6,0.6c-0.4,0.4-0.6,1-0.6,1.6
		c0.1,1.3,1.5,2.2,2.7,1.7C-174.9,466.9-174.4,465.3-175,464.3z M-177.8,465.3c0-0.3,0.1-0.7,0.4-0.9c0.3-0.3,0.6-0.3,0.9-0.5
		c0.1,0,0.1,0.1,0.2,0.1c0.3,0.2,0.4,0.4,0.5,0.8c0.1,0.6,0,1.4-0.7,1.6C-177.2,466.6-177.8,466-177.8,465.3z"/>
	<path class="st0" d="M-177.7,486.9C-177.7,486.8-177.7,486.8-177.7,486.9c0.5-0.7,0.8-1.6,1.1-2.4c0.4-1,0.8-1.9,1.1-3
		c0.7-2.5,0.9-5.1,1.6-7.6c0-0.1,0-0.2,0-0.2c-0.1-0.9-0.7-1.7-1.2-2.4c-0.5-0.8-1.1-1.5-1.8-2.2c-0.2-0.3-0.6-0.2-0.7,0.1
		c-0.3,0.2-0.7,0.4-1,0.7c-0.3,0.4-0.6,0.8-0.9,1.2c-0.6,0.9-1.3,1.8-1.9,2.7c-0.1,0.1-0.2,0.2-0.1,0.3c0.2,2.2,1,4.4,1.7,6.5
		c0.6,2,0.9,4.6,2.1,6.4C-177.9,487-177.6,487-177.7,486.9z M-180.9,474c0.7-0.6,1.2-1.3,1.7-2c0.4-0.5,0.7-1,1.1-1.5
		c0.2-0.2,0.3-0.5,0.4-0.7c0.6,0.6,1.2,1.1,1.7,1.8c0.6,0.7,1,1.4,1.5,2.2c0,0,0,0.1,0,0.1c-0.3,2.6-1.5,5.1-2,7.6
		c-0.2,1.1-0.6,2.1-1,3.1c-0.1,0.4-0.3,0.7-0.4,1.1c-0.3-1.7-0.8-3.5-1.2-5.2C-179.6,478.4-180.1,476.1-180.9,474z"/>
	<path class="st0" d="M-172.1,106.2c1.1-1.4,1.7-3.3,1.5-5.1c0.1-3-2.6-5.5-5.3-6.3c-3.7-1.1-7.3,0.6-8.8,4.1
		c-1.4,3.3-0.4,7.5,2.7,9.4C-178.9,110.3-174.3,109.1-172.1,106.2z M-183.6,104.1c-1.5-3.6,0.8-8.2,4.9-8.5c3.2-0.2,6.5,2,7.1,5.1
		c0,0.2,0,0.4,0,0.6c-0.1,2.2-1.1,4.1-2.9,5.3C-177.7,108.7-182.1,107.8-183.6,104.1z"/>
	<path class="st0" d="M-177.6,178.6c-0.3-0.5-0.9-0.8-1.5-0.7c-0.1,0-0.1,0-0.2,0c-0.5-0.1-1.1,0.3-1.5,0.7
		c-0.4,0.5-0.5,1.1-0.4,1.7c0.2,1.3,1.7,2,2.9,1.4C-177.3,181.1-177,179.6-177.6,178.6z M-180.3,180c0-0.3,0-0.7,0.2-0.9
		c0.2-0.3,0.6-0.4,0.9-0.7c0.1,0,0.1,0.1,0.2,0.1c0.3,0.2,0.5,0.4,0.6,0.7c0.2,0.6,0.2,1.4-0.5,1.6
		C-179.5,181.1-180.2,180.7-180.3,180z"/>
	<path class="st0" d="M-179.3,206.6c0.5,0.1,1.1-0.3,1.5-0.7c0.4-0.5,0.5-1.1,0.4-1.7c-0.2-1.3-1.7-2-2.9-1.4
		c-1,0.6-1.3,2.1-0.7,3.1c0.3,0.5,0.9,0.8,1.5,0.7C-179.4,206.6-179.3,206.6-179.3,206.6z M-180.2,205.2c-0.2-0.6-0.2-1.4,0.5-1.6
		c0.6-0.3,1.4,0.2,1.5,0.9c0,0.3,0,0.7-0.2,0.9c-0.2,0.3-0.6,0.4-0.9,0.7c-0.1,0-0.1-0.1-0.2-0.1
		C-179.9,205.8-180.1,205.6-180.2,205.2z"/>
	<path class="st0" d="M-172.1,196.6c1.1-1.4,1.7-3.3,1.5-5.1c0.1-3-2.6-5.5-5.3-6.3c-3.7-1.1-7.3,0.6-8.8,4.1
		c-1.4,3.3-0.4,7.5,2.7,9.4C-178.9,200.6-174.3,199.4-172.1,196.6z M-183.6,194.5c-1.5-3.6,0.8-8.2,4.9-8.5c3.2-0.2,6.5,2,7.1,5.1
		c0,0.2,0,0.4,0,0.6c-0.1,2.2-1.1,4.1-2.9,5.3C-177.7,199-182.1,198.2-183.6,194.5z"/>
	<path class="st0" d="M-178.2,264.5c0.3-8.7,0.3-17.4,0.1-26c-0.1-4.3-0.2-8.6-0.3-12.9c0-2,0-4-0.1-6c0-2,0.2-4.1-0.3-6
		c-0.2-0.6-1.1-0.6-1.3,0c-0.6,1.8-0.4,3.8-0.4,5.7c0,2.1,0,4.2,0,6.3c0,4.3,0.1,8.6,0.1,12.9c0.1,8.7,0.3,17.4,0.1,26
		C-180.3,265.8-178.2,265.8-178.2,264.5z"/>
	<path class="st0" d="M-177.6,271.7c-0.3-0.5-0.9-0.8-1.5-0.7c-0.1,0-0.1,0-0.2,0c-0.5-0.1-1.1,0.3-1.5,0.7
		c-0.4,0.5-0.5,1.1-0.4,1.7c0.2,1.3,1.7,2,2.9,1.4C-177.3,274.2-177,272.6-177.6,271.7z M-180.3,273.1c0-0.3,0-0.7,0.2-0.9
		c0.2-0.3,0.6-0.4,0.9-0.7c0.1,0,0.1,0.1,0.2,0.1c0.3,0.2,0.5,0.4,0.6,0.7c0.2,0.6,0.2,1.4-0.5,1.6
		C-179.5,274.2-180.2,273.7-180.3,273.1z"/>
	<path class="st0" d="M-179.3,299.6c0.5,0.1,1.1-0.3,1.5-0.7c0.4-0.5,0.5-1.1,0.4-1.7c-0.2-1.3-1.7-2-2.9-1.4
		c-1,0.6-1.3,2.1-0.7,3.1c0.3,0.5,0.9,0.8,1.5,0.7C-179.4,299.7-179.3,299.7-179.3,299.6z M-180.2,298.3c-0.2-0.6-0.2-1.4,0.5-1.6
		c0.6-0.3,1.4,0.2,1.5,0.9c0,0.3,0,0.7-0.2,0.9c-0.2,0.3-0.6,0.4-0.9,0.7c-0.1,0-0.1-0.1-0.2-0.1
		C-179.9,298.8-180.1,298.7-180.2,298.3z"/>
	<path class="st0" d="M-172.1,289.7c1.1-1.4,1.7-3.3,1.5-5.1c0.1-3-2.6-5.5-5.3-6.3c-3.7-1.1-7.3,0.6-8.8,4.1
		c-1.4,3.3-0.4,7.5,2.7,9.4C-178.9,293.7-174.3,292.5-172.1,289.7z M-183.6,287.6c-1.5-3.6,0.8-8.2,4.9-8.5c3.2-0.2,6.5,2,7.1,5.1
		c0,0.2,0,0.4,0,0.6c-0.1,2.2-1.1,4.1-2.9,5.3C-177.7,292.1-182.1,291.3-183.6,287.6z"/>
	<path class="st0" d="M-178.2,356.6c0.3-8.7,0.3-17.4,0.1-26c-0.1-4.3-0.2-8.6-0.3-12.9c0-2,0-4-0.1-6c0-2,0.2-4.1-0.3-6
		c-0.2-0.6-1.1-0.6-1.3,0c-0.6,1.8-0.4,3.8-0.4,5.7c0,2.1,0,4.2,0,6.3c0,4.3,0.1,8.6,0.1,12.9c0.1,8.7,0.3,17.4,0.1,26
		C-180.3,357.9-178.2,357.9-178.2,356.6z"/>
	<path class="st0" d="M-177.6,363.7c-0.3-0.5-0.9-0.8-1.5-0.7c-0.1,0-0.1,0-0.2,0c-0.5-0.1-1.1,0.3-1.5,0.7
		c-0.4,0.5-0.5,1.1-0.4,1.7c0.2,1.3,1.7,2,2.9,1.4C-177.3,366.3-177,364.7-177.6,363.7z M-180.3,365.1c0-0.3,0-0.7,0.2-0.9
		c0.2-0.3,0.6-0.4,0.9-0.7c0.1,0,0.1,0.1,0.2,0.1c0.3,0.2,0.5,0.4,0.6,0.7c0.2,0.6,0.2,1.4-0.5,1.6
		C-179.5,366.3-180.2,365.8-180.3,365.1z"/>
	<path class="st0" d="M-179.3,391.7c0.5,0.1,1.1-0.3,1.5-0.7c0.4-0.5,0.5-1.1,0.4-1.7c-0.2-1.3-1.7-2-2.9-1.4
		c-1,0.6-1.3,2.1-0.7,3.1c0.3,0.5,0.9,0.8,1.5,0.7C-179.4,391.7-179.3,391.7-179.3,391.7z M-180.2,390.4c-0.2-0.6-0.2-1.4,0.5-1.6
		c0.6-0.3,1.4,0.2,1.5,0.9c0,0.3,0,0.7-0.2,0.9c-0.2,0.3-0.6,0.4-0.9,0.7c-0.1,0-0.1-0.1-0.2-0.1
		C-179.9,390.9-180.1,390.7-180.2,390.4z"/>
	<path class="st0" d="M-172.1,381.7c1.1-1.4,1.7-3.3,1.5-5.1c0.1-3-2.6-5.5-5.3-6.3c-3.7-1.1-7.3,0.6-8.8,4.1
		c-1.4,3.3-0.4,7.5,2.7,9.4C-178.9,385.8-174.3,384.6-172.1,381.7z M-183.6,379.6c-1.5-3.6,0.8-8.2,4.9-8.5c3.2-0.2,6.5,2,7.1,5.1
		c0,0.2,0,0.4,0,0.6c-0.1,2.2-1.1,4.1-2.9,5.3C-177.7,384.2-182.1,383.3-183.6,379.6z"/>
	<ellipse class="st0" cx="-177.6" cy="102" rx="7" ry="6.4"/>
</g>
<g>
	<path class="st0" d="M-108.7,460.2c-0.5-9.3,0.1-18.7-0.7-28c-0.5-5.8-0.8-11.5-0.9-17.3c-0.1-2.9-0.1-5.9-0.3-8.8
		c-0.1-2.8,0.1-6-0.8-8.7c-0.2-0.6-1.2-0.7-1.3,0c-0.4,2.7,0,5.6,0,8.4c0.1,2.9,0.1,5.9,0.2,8.8c0.1,5.9,0.3,11.7,0.8,17.6
		c0.8,9.3,0.3,18.7,0.9,28C-110.7,461.5-108.7,461.6-108.7,460.2z"/>
	<path class="st0" d="M-110.8,83.4c0.3-8.7,0.3-17.4,0.1-26c-0.1-4.3-0.2-8.6-0.3-12.9c0-2,0-4-0.1-6c0-2,0.2-4.1-0.3-6
		c-0.2-0.6-1.1-0.6-1.3,0c-0.6,1.8-0.4,3.8-0.4,5.7c0,2.1,0,4.2,0,6.3c0,4.3,0.1,8.6,0.1,12.9c0.1,8.7,0.3,17.4,0.1,26
		C-112.9,84.8-110.9,84.7-110.8,83.4z"/>
	<path class="st0" d="M-110.8,171.4c0.3-8.7,0.3-17.4,0.1-26c-0.1-4.3-0.2-8.6-0.3-12.9c0-2,0-4-0.1-6c0-2,0.2-4.1-0.3-6
		c-0.2-0.6-1.1-0.6-1.3,0c-0.6,1.8-0.4,3.8-0.4,5.7c0,2.1,0,4.2,0,6.3c0,4.3,0.1,8.6,0.1,12.9c0.1,8.7,0.3,17.4,0.1,26
		C-112.9,172.8-110.9,172.8-110.8,171.4z"/>
	<path class="st0" d="M-110.6,28.5c0.4-0.4,0.6-1,0.6-1.6c-0.1-1.3-1.5-2.2-2.7-1.7c-1.1,0.4-1.6,2-1,3c0.3,0.5,0.8,0.9,1.4,0.9
		c0,0,0.1,0,0.1,0C-111.7,29.3-111,28.8-110.6,28.5z M-112.9,27.7c-0.1-0.6,0-1.4,0.7-1.6c0.7-0.2,1.3,0.4,1.3,1.1
		c0,0.3-0.1,0.7-0.4,0.9c-0.3,0.3-0.6,0.3-0.9,0.5c-0.1,0-0.1-0.1-0.2-0.1C-112.7,28.2-112.8,28-112.9,27.7z"/>
	<path class="st0" d="M-110.3,88.2c-0.3-0.5-0.9-0.8-1.5-0.7c-0.1,0-0.1,0-0.2,0c-0.5-0.1-1.1,0.3-1.5,0.7c-0.4,0.5-0.5,1.1-0.4,1.7
		c0.2,1.3,1.7,2,2.9,1.4C-109.9,90.8-109.6,89.2-110.3,88.2z M-113,89.6c0-0.3,0-0.7,0.2-0.9c0.2-0.3,0.6-0.4,0.9-0.7
		c0.1,0,0.1,0.1,0.2,0.1c0.3,0.2,0.5,0.4,0.6,0.7c0.2,0.6,0.2,1.4-0.5,1.6C-112.2,90.8-112.9,90.3-113,89.6z"/>
	<path class="st0" d="M-112,116.2c0.5,0.1,1.1-0.3,1.5-0.7c0.4-0.5,0.5-1.1,0.4-1.7c-0.2-1.3-1.7-2-2.9-1.4c-1,0.6-1.3,2.1-0.7,3.1
		c0.3,0.5,0.9,0.8,1.5,0.7C-112.1,116.2-112,116.2-112,116.2z M-112.9,114.9c-0.2-0.6-0.2-1.4,0.5-1.6c0.6-0.3,1.4,0.2,1.5,0.9
		c0,0.3,0,0.7-0.2,0.9c-0.2,0.3-0.6,0.4-0.9,0.7c-0.1,0-0.1-0.1-0.2-0.1C-112.6,115.4-112.7,115.2-112.9,114.9z"/>
	<path class="st0" d="M-111,23.4c0.3-0.2,0.7-0.4,1-0.7c0.3-0.4,0.6-0.8,0.9-1.2c0.6-0.9,1.3-1.8,1.9-2.7c0.1-0.1,0.2-0.2,0.1-0.3
		c-0.2-2.2-1-4.4-1.7-6.5c-0.6-2-0.9-4.6-2.1-6.4c-0.1-0.1-0.3-0.1-0.3,0.1c0,0,0,0,0,0c-0.6,0.7-0.8,1.6-1.1,2.3
		c-0.4,1-0.8,1.9-1.1,3c-0.7,2.5-0.9,5.1-1.6,7.6c0,0.1,0,0.2,0,0.2c0.1,0.9,0.7,1.7,1.2,2.4c0.5,0.8,1.1,1.5,1.8,2.2
		C-111.5,23.7-111.2,23.6-111,23.4z M-112.9,20.9c-0.6-0.7-1-1.4-1.5-2.2c0,0,0-0.1,0-0.1c0.3-2.6,1.5-5.1,2-7.6
		c0.2-1.1,0.6-2.1,1-3.1c0.1-0.4,0.3-0.7,0.4-1.1c0.3,1.7,0.8,3.5,1.2,5.2c0.5,2.2,1.1,4.4,1.8,6.5c-0.7,0.6-1.2,1.3-1.7,2
		c-0.4,0.5-0.7,1-1.1,1.5c-0.2,0.2-0.3,0.5-0.4,0.7C-111.7,22.1-112.3,21.5-112.9,20.9z"/>
	<path class="st0" d="M-107.7,464.3c-0.3-0.5-0.8-0.9-1.4-0.9c0,0-0.1,0-0.1,0c-0.5-0.2-1.2,0.2-1.6,0.6c-0.4,0.4-0.6,1-0.6,1.6
		c0.1,1.3,1.5,2.2,2.7,1.7C-107.6,466.9-107.1,465.3-107.7,464.3z M-110.5,465.3c0-0.3,0.1-0.7,0.4-0.9c0.3-0.3,0.6-0.3,0.9-0.5
		c0.1,0,0.1,0.1,0.2,0.1c0.3,0.2,0.4,0.4,0.5,0.8c0.1,0.6,0,1.4-0.7,1.6C-109.9,466.6-110.5,466-110.5,465.3z"/>
	<path class="st0" d="M-110.3,486.9C-110.3,486.8-110.3,486.8-110.3,486.9c0.5-0.7,0.8-1.6,1.1-2.4c0.4-1,0.8-1.9,1.1-3
		c0.7-2.5,0.9-5.1,1.6-7.6c0-0.1,0-0.2,0-0.2c-0.1-0.9-0.7-1.7-1.2-2.4c-0.5-0.8-1.1-1.5-1.8-2.2c-0.2-0.3-0.6-0.2-0.7,0.1
		c-0.3,0.2-0.7,0.4-1,0.7c-0.3,0.4-0.6,0.8-0.9,1.2c-0.6,0.9-1.3,1.8-1.9,2.7c-0.1,0.1-0.2,0.2-0.1,0.3c0.2,2.2,1,4.4,1.7,6.5
		c0.6,2,0.9,4.6,2.1,6.4C-110.5,487-110.3,487-110.3,486.9z M-113.6,474c0.7-0.6,1.2-1.3,1.7-2c0.4-0.5,0.7-1,1.1-1.5
		c0.2-0.2,0.3-0.5,0.4-0.7c0.6,0.6,1.2,1.1,1.7,1.8c0.6,0.7,1,1.4,1.5,2.2c0,0,0,0.1,0,0.1c-0.3,2.6-1.5,5.1-2,7.6
		c-0.2,1.1-0.6,2.1-1,3.1c-0.1,0.4-0.3,0.7-0.4,1.1c-0.3-1.7-0.8-3.5-1.2-5.2C-112.2,478.4-112.8,476.1-113.6,474z"/>
	<path class="st0" d="M-104.8,106.2c1.1-1.4,1.7-3.3,1.5-5.1c0.1-3-2.6-5.5-5.3-6.3c-3.7-1.1-7.3,0.6-8.8,4.1
		c-1.4,3.3-0.4,7.5,2.7,9.4C-111.5,110.3-107,109.1-104.8,106.2z M-116.3,104.1c-1.5-3.6,0.8-8.2,4.9-8.5c3.2-0.2,6.5,2,7.1,5.1
		c0,0.2,0,0.4,0,0.6c-0.1,2.2-1.1,4.1-2.9,5.3C-110.4,108.7-114.8,107.8-116.3,104.1z"/>
	<path class="st0" d="M-110.3,178.6c-0.3-0.5-0.9-0.8-1.5-0.7c-0.1,0-0.1,0-0.2,0c-0.5-0.1-1.1,0.3-1.5,0.7
		c-0.4,0.5-0.5,1.1-0.4,1.7c0.2,1.3,1.7,2,2.9,1.4C-109.9,181.1-109.6,179.6-110.3,178.6z M-113,180c0-0.3,0-0.7,0.2-0.9
		c0.2-0.3,0.6-0.4,0.9-0.7c0.1,0,0.1,0.1,0.2,0.1c0.3,0.2,0.5,0.4,0.6,0.7c0.2,0.6,0.2,1.4-0.5,1.6
		C-112.2,181.1-112.9,180.7-113,180z"/>
	<path class="st0" d="M-112,206.6c0.5,0.1,1.1-0.3,1.5-0.7c0.4-0.5,0.5-1.1,0.4-1.7c-0.2-1.3-1.7-2-2.9-1.4c-1,0.6-1.3,2.1-0.7,3.1
		c0.3,0.5,0.9,0.8,1.5,0.7C-112.1,206.6-112,206.6-112,206.6z M-112.9,205.2c-0.2-0.6-0.2-1.4,0.5-1.6c0.6-0.3,1.4,0.2,1.5,0.9
		c0,0.3,0,0.7-0.2,0.9c-0.2,0.3-0.6,0.4-0.9,0.7c-0.1,0-0.1-0.1-0.2-0.1C-112.6,205.8-112.7,205.6-112.9,205.2z"/>
	<path class="st0" d="M-104.8,196.6c1.1-1.4,1.7-3.3,1.5-5.1c0.1-3-2.6-5.5-5.3-6.3c-3.7-1.1-7.3,0.6-8.8,4.1
		c-1.4,3.3-0.4,7.5,2.7,9.4C-111.5,200.6-107,199.4-104.8,196.6z M-116.3,194.5c-1.5-3.6,0.8-8.2,4.9-8.5c3.2-0.2,6.5,2,7.1,5.1
		c0,0.2,0,0.4,0,0.6c-0.1,2.2-1.1,4.1-2.9,5.3C-110.4,199-114.8,198.2-116.3,194.5z"/>
	<path class="st0" d="M-110.8,264.5c0.3-8.7,0.3-17.4,0.1-26c-0.1-4.3-0.2-8.6-0.3-12.9c0-2,0-4-0.1-6c0-2,0.2-4.1-0.3-6
		c-0.2-0.6-1.1-0.6-1.3,0c-0.6,1.8-0.4,3.8-0.4,5.7c0,2.1,0,4.2,0,6.3c0,4.3,0.1,8.6,0.1,12.9c0.1,8.7,0.3,17.4,0.1,26
		C-112.9,265.8-110.9,265.8-110.8,264.5z"/>
	<path class="st0" d="M-110.3,271.7c-0.3-0.5-0.9-0.8-1.5-0.7c-0.1,0-0.1,0-0.2,0c-0.5-0.1-1.1,0.3-1.5,0.7
		c-0.4,0.5-0.5,1.1-0.4,1.7c0.2,1.3,1.7,2,2.9,1.4C-109.9,274.2-109.6,272.6-110.3,271.7z M-113,273.1c0-0.3,0-0.7,0.2-0.9
		c0.2-0.3,0.6-0.4,0.9-0.7c0.1,0,0.1,0.1,0.2,0.1c0.3,0.2,0.5,0.4,0.6,0.7c0.2,0.6,0.2,1.4-0.5,1.6
		C-112.2,274.2-112.9,273.7-113,273.1z"/>
	<path class="st0" d="M-112,299.6c0.5,0.1,1.1-0.3,1.5-0.7c0.4-0.5,0.5-1.1,0.4-1.7c-0.2-1.3-1.7-2-2.9-1.4c-1,0.6-1.3,2.1-0.7,3.1
		c0.3,0.5,0.9,0.8,1.5,0.7C-112.1,299.7-112,299.7-112,299.6z M-112.9,298.3c-0.2-0.6-0.2-1.4,0.5-1.6c0.6-0.3,1.4,0.2,1.5,0.9
		c0,0.3,0,0.7-0.2,0.9c-0.2,0.3-0.6,0.4-0.9,0.7c-0.1,0-0.1-0.1-0.2-0.1C-112.6,298.8-112.7,298.7-112.9,298.3z"/>
	<path class="st0" d="M-104.8,289.7c1.1-1.4,1.7-3.3,1.5-5.1c0.1-3-2.6-5.5-5.3-6.3c-3.7-1.1-7.3,0.6-8.8,4.1
		c-1.4,3.3-0.4,7.5,2.7,9.4C-111.5,293.7-107,292.5-104.8,289.7z M-116.3,287.6c-1.5-3.6,0.8-8.2,4.9-8.5c3.2-0.2,6.5,2,7.1,5.1
		c0,0.2,0,0.4,0,0.6c-0.1,2.2-1.1,4.1-2.9,5.3C-110.4,292.1-114.8,291.3-116.3,287.6z"/>
	<path class="st0" d="M-110.8,356.6c0.3-8.7,0.3-17.4,0.1-26c-0.1-4.3-0.2-8.6-0.3-12.9c0-2,0-4-0.1-6c0-2,0.2-4.1-0.3-6
		c-0.2-0.6-1.1-0.6-1.3,0c-0.6,1.8-0.4,3.8-0.4,5.7c0,2.1,0,4.2,0,6.3c0,4.3,0.1,8.6,0.1,12.9c0.1,8.7,0.3,17.4,0.1,26
		C-112.9,357.9-110.9,357.9-110.8,356.6z"/>
	<path class="st0" d="M-110.3,363.7c-0.3-0.5-0.9-0.8-1.5-0.7c-0.1,0-0.1,0-0.2,0c-0.5-0.1-1.1,0.3-1.5,0.7
		c-0.4,0.5-0.5,1.1-0.4,1.7c0.2,1.3,1.7,2,2.9,1.4C-109.9,366.3-109.6,364.7-110.3,363.7z M-113,365.1c0-0.3,0-0.7,0.2-0.9
		c0.2-0.3,0.6-0.4,0.9-0.7c0.1,0,0.1,0.1,0.2,0.1c0.3,0.2,0.5,0.4,0.6,0.7c0.2,0.6,0.2,1.4-0.5,1.6
		C-112.2,366.3-112.9,365.8-113,365.1z"/>
	<path class="st0" d="M-112,391.7c0.5,0.1,1.1-0.3,1.5-0.7c0.4-0.5,0.5-1.1,0.4-1.7c-0.2-1.3-1.7-2-2.9-1.4c-1,0.6-1.3,2.1-0.7,3.1
		c0.3,0.5,0.9,0.8,1.5,0.7C-112.1,391.7-112,391.7-112,391.7z M-112.9,390.4c-0.2-0.6-0.2-1.4,0.5-1.6c0.6-0.3,1.4,0.2,1.5,0.9
		c0,0.3,0,0.7-0.2,0.9c-0.2,0.3-0.6,0.4-0.9,0.7c-0.1,0-0.1-0.1-0.2-0.1C-112.6,390.9-112.7,390.7-112.9,390.4z"/>
	<path class="st0" d="M-104.8,381.7c1.1-1.4,1.7-3.3,1.5-5.1c0.1-3-2.6-5.5-5.3-6.3c-3.7-1.1-7.3,0.6-8.8,4.1
		c-1.4,3.3-0.4,7.5,2.7,9.4C-111.5,385.8-107,384.6-104.8,381.7z M-116.3,379.6c-1.5-3.6,0.8-8.2,4.9-8.5c3.2-0.2,6.5,2,7.1,5.1
		c0,0.2,0,0.4,0,0.6c-0.1,2.2-1.1,4.1-2.9,5.3C-110.4,384.2-114.8,383.3-116.3,379.6z"/>
	<ellipse class="st0" cx="-110.5" cy="192.2" rx="7" ry="6.4"/>
</g>
<g>
	<path class="st0" d="M-41.4,460.2c-0.5-9.3,0.1-18.7-0.7-28c-0.5-5.8-0.8-11.5-0.9-17.3c-0.1-2.9-0.1-5.9-0.3-8.8
		c-0.1-2.8,0.1-6-0.8-8.7c-0.2-0.6-1.2-0.7-1.3,0c-0.4,2.7,0,5.6,0,8.4c0.1,2.9,0.1,5.9,0.2,8.8c0.1,5.9,0.3,11.7,0.8,17.6
		c0.8,9.3,0.3,18.7,0.9,28C-43.4,461.5-41.4,461.6-41.4,460.2z"/>
	<path class="st0" d="M-43.5,83.4c0.3-8.7,0.3-17.4,0.1-26c-0.1-4.3-0.2-8.6-0.3-12.9c0-2,0-4-0.1-6c0-2,0.2-4.1-0.3-6
		c-0.2-0.6-1.1-0.6-1.3,0c-0.6,1.8-0.4,3.8-0.4,5.7c0,2.1,0,4.2,0,6.3c0,4.3,0.1,8.6,0.1,12.9c0.1,8.7,0.3,17.4,0.1,26
		C-45.6,84.8-43.6,84.7-43.5,83.4z"/>
	<path class="st0" d="M-43.5,171.4c0.3-8.7,0.3-17.4,0.1-26c-0.1-4.3-0.2-8.6-0.3-12.9c0-2,0-4-0.1-6c0-2,0.2-4.1-0.3-6
		c-0.2-0.6-1.1-0.6-1.3,0c-0.6,1.8-0.4,3.8-0.4,5.7c0,2.1,0,4.2,0,6.3c0,4.3,0.1,8.6,0.1,12.9c0.1,8.7,0.3,17.4,0.1,26
		C-45.6,172.8-43.6,172.8-43.5,171.4z"/>
	<path class="st0" d="M-43.3,28.5c0.4-0.4,0.6-1,0.6-1.6c-0.1-1.3-1.5-2.2-2.7-1.7c-1.1,0.4-1.6,2-1,3c0.3,0.5,0.8,0.9,1.4,0.9
		c0,0,0.1,0,0.1,0C-44.3,29.3-43.6,28.8-43.3,28.5z M-45.6,27.7c-0.1-0.6,0-1.4,0.7-1.6c0.7-0.2,1.3,0.4,1.3,1.1
		c0,0.3-0.1,0.7-0.4,0.9c-0.3,0.3-0.6,0.3-0.9,0.5c-0.1,0-0.1-0.1-0.2-0.1C-45.4,28.2-45.5,28-45.6,27.7z"/>
	<path class="st0" d="M-43,88.2c-0.3-0.5-0.9-0.8-1.5-0.7c-0.1,0-0.1,0-0.2,0c-0.5-0.1-1.1,0.3-1.5,0.7c-0.4,0.5-0.5,1.1-0.4,1.7
		c0.2,1.3,1.7,2,2.9,1.4C-42.6,90.8-42.3,89.2-43,88.2z M-45.7,89.6c0-0.3,0-0.7,0.2-0.9c0.2-0.3,0.6-0.4,0.9-0.7
		c0.1,0,0.1,0.1,0.2,0.1c0.3,0.2,0.5,0.4,0.6,0.7c0.2,0.6,0.2,1.4-0.5,1.6C-44.9,90.8-45.6,90.3-45.7,89.6z"/>
	<path class="st0" d="M-44.6,116.2c0.5,0.1,1.1-0.3,1.5-0.7c0.4-0.5,0.5-1.1,0.4-1.7c-0.2-1.3-1.7-2-2.9-1.4c-1,0.6-1.3,2.1-0.7,3.1
		c0.3,0.5,0.9,0.8,1.5,0.7C-44.7,116.2-44.7,116.2-44.6,116.2z M-45.5,114.9c-0.2-0.6-0.2-1.4,0.5-1.6c0.6-0.3,1.4,0.2,1.5,0.9
		c0,0.3,0,0.7-0.2,0.9c-0.2,0.3-0.6,0.4-0.9,0.7c-0.1,0-0.1-0.1-0.2-0.1C-45.3,115.4-45.4,115.2-45.5,114.9z"/>
	<path class="st0" d="M-43.7,23.4c0.3-0.2,0.7-0.4,1-0.7c0.3-0.4,0.6-0.8,0.9-1.2c0.6-0.9,1.3-1.8,1.9-2.7c0.1-0.1,0.2-0.2,0.1-0.3
		c-0.2-2.2-1-4.4-1.7-6.5c-0.6-2-0.9-4.6-2.1-6.4c-0.1-0.1-0.3-0.1-0.3,0.1c0,0,0,0,0,0c-0.6,0.7-0.8,1.6-1.1,2.3
		c-0.4,1-0.8,1.9-1.1,3c-0.7,2.5-0.9,5.1-1.6,7.6c0,0.1,0,0.2,0,0.2c0.1,0.9,0.7,1.7,1.2,2.4c0.5,0.8,1.1,1.5,1.8,2.2
		C-44.2,23.7-43.9,23.6-43.7,23.4z M-45.6,20.9c-0.6-0.7-1-1.4-1.5-2.2c0,0,0-0.1,0-0.1c0.3-2.6,1.5-5.1,2-7.6
		c0.2-1.1,0.6-2.1,1-3.1c0.1-0.4,0.3-0.7,0.4-1.1c0.3,1.7,0.8,3.5,1.2,5.2c0.5,2.2,1.1,4.4,1.8,6.5c-0.7,0.6-1.2,1.3-1.7,2
		c-0.4,0.5-0.7,1-1.1,1.5c-0.2,0.2-0.3,0.5-0.4,0.7C-44.4,22.1-45,21.5-45.6,20.9z"/>
	<path class="st0" d="M-40.4,464.3c-0.3-0.5-0.8-0.9-1.4-0.9c0,0-0.1,0-0.1,0c-0.5-0.2-1.2,0.2-1.6,0.6c-0.4,0.4-0.6,1-0.6,1.6
		c0.1,1.3,1.5,2.2,2.7,1.7C-40.3,466.9-39.8,465.3-40.4,464.3z M-43.2,465.3c0-0.3,0.1-0.7,0.4-0.9c0.3-0.3,0.6-0.3,0.9-0.5
		c0.1,0,0.1,0.1,0.2,0.1c0.3,0.2,0.4,0.4,0.5,0.8c0.1,0.6,0,1.4-0.7,1.6C-42.6,466.6-43.2,466-43.2,465.3z"/>
	<path class="st0" d="M-43,486.9C-43,486.8-43,486.8-43,486.9c0.5-0.7,0.8-1.6,1.1-2.4c0.4-1,0.8-1.9,1.1-3c0.7-2.5,0.9-5.1,1.6-7.6
		c0-0.1,0-0.2,0-0.2c-0.1-0.9-0.7-1.7-1.2-2.4c-0.5-0.8-1.1-1.5-1.8-2.2c-0.2-0.3-0.6-0.2-0.7,0.1c-0.3,0.2-0.7,0.4-1,0.7
		c-0.3,0.4-0.6,0.8-0.9,1.2c-0.6,0.9-1.3,1.8-1.9,2.7c-0.1,0.1-0.2,0.2-0.1,0.3c0.2,2.2,1,4.4,1.7,6.5c0.6,2,0.9,4.6,2.1,6.4
		C-43.2,487-43,487-43,486.9z M-46.2,474c0.7-0.6,1.2-1.3,1.7-2c0.4-0.5,0.7-1,1.1-1.5c0.2-0.2,0.3-0.5,0.4-0.7
		c0.6,0.6,1.2,1.1,1.7,1.8c0.6,0.7,1,1.4,1.5,2.2c0,0,0,0.1,0,0.1c-0.3,2.6-1.5,5.1-2,7.6c-0.2,1.1-0.6,2.1-1,3.1
		c-0.1,0.4-0.3,0.7-0.4,1.1c-0.3-1.7-0.8-3.5-1.2-5.2C-44.9,478.4-45.5,476.1-46.2,474z"/>
	<path class="st0" d="M-37.5,106.2c1.1-1.4,1.7-3.3,1.5-5.1c0.1-3-2.6-5.5-5.3-6.3c-3.7-1.1-7.3,0.6-8.8,4.1
		c-1.4,3.3-0.4,7.5,2.7,9.4C-44.2,110.3-39.7,109.1-37.5,106.2z M-49,104.1c-1.5-3.6,0.8-8.2,4.9-8.5c3.2-0.2,6.5,2,7.1,5.1
		c0,0.2,0,0.4,0,0.6c-0.1,2.2-1.1,4.1-2.9,5.3C-43.1,108.7-47.4,107.8-49,104.1z"/>
	<path class="st0" d="M-43,178.6c-0.3-0.5-0.9-0.8-1.5-0.7c-0.1,0-0.1,0-0.2,0c-0.5-0.1-1.1,0.3-1.5,0.7c-0.4,0.5-0.5,1.1-0.4,1.7
		c0.2,1.3,1.7,2,2.9,1.4C-42.6,181.1-42.3,179.6-43,178.6z M-45.7,180c0-0.3,0-0.7,0.2-0.9c0.2-0.3,0.6-0.4,0.9-0.7
		c0.1,0,0.1,0.1,0.2,0.1c0.3,0.2,0.5,0.4,0.6,0.7c0.2,0.6,0.2,1.4-0.5,1.6C-44.9,181.1-45.6,180.7-45.7,180z"/>
	<path class="st0" d="M-44.6,206.6c0.5,0.1,1.1-0.3,1.5-0.7c0.4-0.5,0.5-1.1,0.4-1.7c-0.2-1.3-1.7-2-2.9-1.4c-1,0.6-1.3,2.1-0.7,3.1
		c0.3,0.5,0.9,0.8,1.5,0.7C-44.7,206.6-44.7,206.6-44.6,206.6z M-45.5,205.2c-0.2-0.6-0.2-1.4,0.5-1.6c0.6-0.3,1.4,0.2,1.5,0.9
		c0,0.3,0,0.7-0.2,0.9c-0.2,0.3-0.6,0.4-0.9,0.7c-0.1,0-0.1-0.1-0.2-0.1C-45.3,205.8-45.4,205.6-45.5,205.2z"/>
	<path class="st0" d="M-37.5,196.6c1.1-1.4,1.7-3.3,1.5-5.1c0.1-3-2.6-5.5-5.3-6.3c-3.7-1.1-7.3,0.6-8.8,4.1
		c-1.4,3.3-0.4,7.5,2.7,9.4C-44.2,200.6-39.7,199.4-37.5,196.6z M-49,194.5c-1.5-3.6,0.8-8.2,4.9-8.5c3.2-0.2,6.5,2,7.1,5.1
		c0,0.2,0,0.4,0,0.6c-0.1,2.2-1.1,4.1-2.9,5.3C-43.1,199-47.4,198.2-49,194.5z"/>
	<path class="st0" d="M-43.5,264.5c0.3-8.7,0.3-17.4,0.1-26c-0.1-4.3-0.2-8.6-0.3-12.9c0-2,0-4-0.1-6c0-2,0.2-4.1-0.3-6
		c-0.2-0.6-1.1-0.6-1.3,0c-0.6,1.8-0.4,3.8-0.4,5.7c0,2.1,0,4.2,0,6.3c0,4.3,0.1,8.6,0.1,12.9c0.1,8.7,0.3,17.4,0.1,26
		C-45.6,265.8-43.6,265.8-43.5,264.5z"/>
	<path class="st0" d="M-43,271.7c-0.3-0.5-0.9-0.8-1.5-0.7c-0.1,0-0.1,0-0.2,0c-0.5-0.1-1.1,0.3-1.5,0.7c-0.4,0.5-0.5,1.1-0.4,1.7
		c0.2,1.3,1.7,2,2.9,1.4C-42.6,274.2-42.3,272.6-43,271.7z M-45.7,273.1c0-0.3,0-0.7,0.2-0.9c0.2-0.3,0.6-0.4,0.9-0.7
		c0.1,0,0.1,0.1,0.2,0.1c0.3,0.2,0.5,0.4,0.6,0.7c0.2,0.6,0.2,1.4-0.5,1.6C-44.9,274.2-45.6,273.7-45.7,273.1z"/>
	<path class="st0" d="M-44.6,299.6c0.5,0.1,1.1-0.3,1.5-0.7c0.4-0.5,0.5-1.1,0.4-1.7c-0.2-1.3-1.7-2-2.9-1.4c-1,0.6-1.3,2.1-0.7,3.1
		c0.3,0.5,0.9,0.8,1.5,0.7C-44.7,299.7-44.7,299.7-44.6,299.6z M-45.5,298.3c-0.2-0.6-0.2-1.4,0.5-1.6c0.6-0.3,1.4,0.2,1.5,0.9
		c0,0.3,0,0.7-0.2,0.9c-0.2,0.3-0.6,0.4-0.9,0.7c-0.1,0-0.1-0.1-0.2-0.1C-45.3,298.8-45.4,298.7-45.5,298.3z"/>
	<path class="st0" d="M-37.5,289.7c1.1-1.4,1.7-3.3,1.5-5.1c0.1-3-2.6-5.5-5.3-6.3c-3.7-1.1-7.3,0.6-8.8,4.1
		c-1.4,3.3-0.4,7.5,2.7,9.4C-44.2,293.7-39.7,292.5-37.5,289.7z M-49,287.6c-1.5-3.6,0.8-8.2,4.9-8.5c3.2-0.2,6.5,2,7.1,5.1
		c0,0.2,0,0.4,0,0.6c-0.1,2.2-1.1,4.1-2.9,5.3C-43.1,292.1-47.4,291.3-49,287.6z"/>
	<path class="st0" d="M-43.5,356.6c0.3-8.7,0.3-17.4,0.1-26c-0.1-4.3-0.2-8.6-0.3-12.9c0-2,0-4-0.1-6c0-2,0.2-4.1-0.3-6
		c-0.2-0.6-1.1-0.6-1.3,0c-0.6,1.8-0.4,3.8-0.4,5.7c0,2.1,0,4.2,0,6.3c0,4.3,0.1,8.6,0.1,12.9c0.1,8.7,0.3,17.4,0.1,26
		C-45.6,357.9-43.6,357.9-43.5,356.6z"/>
	<path class="st0" d="M-43,363.7c-0.3-0.5-0.9-0.8-1.5-0.7c-0.1,0-0.1,0-0.2,0c-0.5-0.1-1.1,0.3-1.5,0.7c-0.4,0.5-0.5,1.1-0.4,1.7
		c0.2,1.3,1.7,2,2.9,1.4C-42.6,366.3-42.3,364.7-43,363.7z M-45.7,365.1c0-0.3,0-0.7,0.2-0.9c0.2-0.3,0.6-0.4,0.9-0.7
		c0.1,0,0.1,0.1,0.2,0.1c0.3,0.2,0.5,0.4,0.6,0.7c0.2,0.6,0.2,1.4-0.5,1.6C-44.9,366.3-45.6,365.8-45.7,365.1z"/>
	<path class="st0" d="M-44.6,391.7c0.5,0.1,1.1-0.3,1.5-0.7c0.4-0.5,0.5-1.1,0.4-1.7c-0.2-1.3-1.7-2-2.9-1.4c-1,0.6-1.3,2.1-0.7,3.1
		c0.3,0.5,0.9,0.8,1.5,0.7C-44.7,391.7-44.7,391.7-44.6,391.7z M-45.5,390.4c-0.2-0.6-0.2-1.4,0.5-1.6c0.6-0.3,1.4,0.2,1.5,0.9
		c0,0.3,0,0.7-0.2,0.9c-0.2,0.3-0.6,0.4-0.9,0.7c-0.1,0-0.1-0.1-0.2-0.1C-45.3,390.9-45.4,390.7-45.5,390.4z"/>
	<path class="st0" d="M-37.5,381.7c1.1-1.4,1.7-3.3,1.5-5.1c0.1-3-2.6-5.5-5.3-6.3c-3.7-1.1-7.3,0.6-8.8,4.1
		c-1.4,3.3-0.4,7.5,2.7,9.4C-44.2,385.8-39.7,384.6-37.5,381.7z M-49,379.6c-1.5-3.6,0.8-8.2,4.9-8.5c3.2-0.2,6.5,2,7.1,5.1
		c0,0.2,0,0.4,0,0.6c-0.1,2.2-1.1,4.1-2.9,5.3C-43.1,384.2-47.4,383.3-49,379.6z"/>
	<ellipse class="st0" cx="-43.3" cy="285.1" rx="7" ry="6.4"/>
</g>
<g>
	<path class="st0" d="M25.9,460.2c-0.5-9.3,0.1-18.7-0.7-28c-0.5-5.8-0.8-11.5-0.9-17.3c-0.1-2.9-0.1-5.9-0.3-8.8
		c-0.1-2.8,0.1-6-0.8-8.7c-0.2-0.6-1.2-0.7-1.3,0c-0.4,2.7,0,5.6,0,8.4c0.1,2.9,0.1,5.9,0.2,8.8c0.1,5.9,0.3,11.7,0.8,17.6
		c0.8,9.3,0.3,18.7,0.9,28C23.9,461.5,26,461.6,25.9,460.2z"/>
	<path class="st0" d="M23.8,83.4c0.3-8.7,0.3-17.4,0.1-26c-0.1-4.3-0.2-8.6-0.3-12.9c0-2,0-4-0.1-6c0-2,0.2-4.1-0.3-6
		c-0.2-0.6-1.1-0.6-1.3,0c-0.6,1.8-0.4,3.8-0.4,5.7c0,2.1,0,4.2,0,6.3c0,4.3,0.1,8.6,0.1,12.9c0.1,8.7,0.3,17.4,0.1,26
		C21.7,84.8,23.7,84.7,23.8,83.4z"/>
	<path class="st0" d="M23.8,171.4c0.3-8.7,0.3-17.4,0.1-26c-0.1-4.3-0.2-8.6-0.3-12.9c0-2,0-4-0.1-6c0-2,0.2-4.1-0.3-6
		c-0.2-0.6-1.1-0.6-1.3,0c-0.6,1.8-0.4,3.8-0.4,5.7c0,2.1,0,4.2,0,6.3c0,4.3,0.1,8.6,0.1,12.9c0.1,8.7,0.3,17.4,0.1,26
		C21.7,172.8,23.7,172.8,23.8,171.4z"/>
	<path class="st0" d="M24,28.5c0.4-0.4,0.6-1,0.6-1.6c-0.1-1.3-1.5-2.2-2.7-1.7c-1.1,0.4-1.6,2-1,3c0.3,0.5,0.8,0.9,1.4,0.9
		c0,0,0.1,0,0.1,0C23,29.3,23.7,28.8,24,28.5z M21.7,27.7c-0.1-0.6,0-1.4,0.7-1.6c0.7-0.2,1.3,0.4,1.3,1.1c0,0.3-0.1,0.7-0.4,0.9
		c-0.3,0.3-0.6,0.3-0.9,0.5c-0.1,0-0.1-0.1-0.2-0.1C21.9,28.2,21.8,28,21.7,27.7z"/>
	<path class="st0" d="M24.3,88.2c-0.3-0.5-0.9-0.8-1.5-0.7c-0.1,0-0.1,0-0.2,0c-0.5-0.1-1.1,0.3-1.5,0.7c-0.4,0.5-0.5,1.1-0.4,1.7
		c0.2,1.3,1.7,2,2.9,1.4C24.7,90.8,25,89.2,24.3,88.2z M21.6,89.6c0-0.3,0-0.7,0.2-0.9c0.2-0.3,0.6-0.4,0.9-0.7
		c0.1,0,0.1,0.1,0.2,0.1c0.3,0.2,0.5,0.4,0.6,0.7c0.2,0.6,0.2,1.4-0.5,1.6C22.4,90.8,21.7,90.3,21.6,89.6z"/>
	<path class="st0" d="M22.7,116.2c0.5,0.1,1.1-0.3,1.5-0.7c0.4-0.5,0.5-1.1,0.4-1.7c-0.2-1.3-1.7-2-2.9-1.4c-1,0.6-1.3,2.1-0.7,3.1
		c0.3,0.5,0.9,0.8,1.5,0.7C22.6,116.2,22.6,116.2,22.7,116.2z M21.8,114.9c-0.2-0.6-0.2-1.4,0.5-1.6c0.6-0.3,1.4,0.2,1.5,0.9
		c0,0.3,0,0.7-0.2,0.9c-0.2,0.3-0.6,0.4-0.9,0.7c-0.1,0-0.1-0.1-0.2-0.1C22,115.4,21.9,115.2,21.8,114.9z"/>
	<path class="st0" d="M23.6,23.4c0.3-0.2,0.7-0.4,1-0.7c0.3-0.4,0.6-0.8,0.9-1.2c0.6-0.9,1.3-1.8,1.9-2.7c0.1-0.1,0.2-0.2,0.1-0.3
		c-0.2-2.2-1-4.4-1.7-6.5c-0.6-2-0.9-4.6-2.1-6.4c-0.1-0.1-0.3-0.1-0.3,0.1c0,0,0,0,0,0C23,6.3,22.7,7.2,22.4,8
		c-0.4,1-0.8,1.9-1.1,3c-0.7,2.5-0.9,5.1-1.6,7.6c0,0.1,0,0.2,0,0.2c0.1,0.9,0.7,1.7,1.2,2.4c0.5,0.8,1.1,1.5,1.8,2.2
		C23.1,23.7,23.4,23.6,23.6,23.4z M21.8,20.9c-0.6-0.7-1-1.4-1.5-2.2c0,0,0-0.1,0-0.1c0.3-2.6,1.5-5.1,2-7.6c0.2-1.1,0.6-2.1,1-3.1
		c0.1-0.4,0.3-0.7,0.4-1.1c0.3,1.7,0.8,3.5,1.2,5.2c0.5,2.2,1.1,4.4,1.8,6.5c-0.7,0.6-1.2,1.3-1.7,2c-0.4,0.5-0.7,1-1.1,1.5
		c-0.2,0.2-0.3,0.5-0.4,0.7C22.9,22.1,22.3,21.5,21.8,20.9z"/>
	<path class="st0" d="M26.9,464.3c-0.3-0.5-0.8-0.9-1.4-0.9c0,0-0.1,0-0.1,0c-0.5-0.2-1.2,0.2-1.6,0.6c-0.4,0.4-0.6,1-0.6,1.6
		c0.1,1.3,1.5,2.2,2.7,1.7C27,466.9,27.5,465.3,26.9,464.3z M24.1,465.3c0-0.3,0.1-0.7,0.4-0.9c0.3-0.3,0.6-0.3,0.9-0.5
		c0.1,0,0.1,0.1,0.2,0.1c0.3,0.2,0.4,0.4,0.5,0.8c0.1,0.6,0,1.4-0.7,1.6C24.7,466.6,24.1,466,24.1,465.3z"/>
	<path class="st0" d="M24.3,486.9C24.3,486.8,24.3,486.8,24.3,486.9c0.5-0.7,0.8-1.6,1.1-2.4c0.4-1,0.8-1.9,1.1-3
		c0.7-2.5,0.9-5.1,1.6-7.6c0-0.1,0-0.2,0-0.2c-0.1-0.9-0.7-1.7-1.2-2.4c-0.5-0.8-1.1-1.5-1.8-2.2c-0.2-0.3-0.6-0.2-0.7,0.1
		c-0.3,0.2-0.7,0.4-1,0.7c-0.3,0.4-0.6,0.8-0.9,1.2c-0.6,0.9-1.3,1.8-1.9,2.7c-0.1,0.1-0.2,0.2-0.1,0.3c0.2,2.2,1,4.4,1.7,6.5
		c0.6,2,0.9,4.6,2.1,6.4C24.1,487,24.3,487,24.3,486.9z M21.1,474c0.7-0.6,1.2-1.3,1.7-2c0.4-0.5,0.7-1,1.1-1.5
		c0.2-0.2,0.3-0.5,0.4-0.7c0.6,0.6,1.2,1.1,1.7,1.8c0.6,0.7,1,1.4,1.5,2.2c0,0,0,0.1,0,0.1c-0.3,2.6-1.5,5.1-2,7.6
		c-0.2,1.1-0.6,2.1-1,3.1c-0.1,0.4-0.3,0.7-0.4,1.1c-0.3-1.7-0.8-3.5-1.2-5.2C22.4,478.4,21.9,476.1,21.1,474z"/>
	<path class="st0" d="M29.8,106.2c1.1-1.4,1.7-3.3,1.5-5.1c0.1-3-2.6-5.5-5.3-6.3c-3.7-1.1-7.3,0.6-8.8,4.1
		c-1.4,3.3-0.4,7.5,2.7,9.4C23.1,110.3,27.6,109.1,29.8,106.2z M18.4,104.1c-1.5-3.6,0.8-8.2,4.9-8.5c3.2-0.2,6.5,2,7.1,5.1
		c0,0.2,0,0.4,0,0.6c-0.1,2.2-1.1,4.1-2.9,5.3C24.2,108.7,19.9,107.8,18.4,104.1z"/>
	<path class="st0" d="M24.3,178.6c-0.3-0.5-0.9-0.8-1.5-0.7c-0.1,0-0.1,0-0.2,0c-0.5-0.1-1.1,0.3-1.5,0.7c-0.4,0.5-0.5,1.1-0.4,1.7
		c0.2,1.3,1.7,2,2.9,1.4C24.7,181.1,25,179.6,24.3,178.6z M21.6,180c0-0.3,0-0.7,0.2-0.9c0.2-0.3,0.6-0.4,0.9-0.7
		c0.1,0,0.1,0.1,0.2,0.1c0.3,0.2,0.5,0.4,0.6,0.7c0.2,0.6,0.2,1.4-0.5,1.6C22.4,181.1,21.7,180.7,21.6,180z"/>
	<path class="st0" d="M22.7,206.6c0.5,0.1,1.1-0.3,1.5-0.7c0.4-0.5,0.5-1.1,0.4-1.7c-0.2-1.3-1.7-2-2.9-1.4c-1,0.6-1.3,2.1-0.7,3.1
		c0.3,0.5,0.9,0.8,1.5,0.7C22.6,206.6,22.6,206.6,22.7,206.6z M21.8,205.2c-0.2-0.6-0.2-1.4,0.5-1.6c0.6-0.3,1.4,0.2,1.5,0.9
		c0,0.3,0,0.7-0.2,0.9c-0.2,0.3-0.6,0.4-0.9,0.7c-0.1,0-0.1-0.1-0.2-0.1C22,205.8,21.9,205.6,21.8,205.2z"/>
	<path class="st0" d="M29.8,196.6c1.1-1.4,1.7-3.3,1.5-5.1c0.1-3-2.6-5.5-5.3-6.3c-3.7-1.1-7.3,0.6-8.8,4.1
		c-1.4,3.3-0.4,7.5,2.7,9.4C23.1,200.6,27.6,199.4,29.8,196.6z M18.4,194.5c-1.5-3.6,0.8-8.2,4.9-8.5c3.2-0.2,6.5,2,7.1,5.1
		c0,0.2,0,0.4,0,0.6c-0.1,2.2-1.1,4.1-2.9,5.3C24.2,199,19.9,198.2,18.4,194.5z"/>
	<path class="st0" d="M23.8,264.5c0.3-8.7,0.3-17.4,0.1-26c-0.1-4.3-0.2-8.6-0.3-12.9c0-2,0-4-0.1-6c0-2,0.2-4.1-0.3-6
		c-0.2-0.6-1.1-0.6-1.3,0c-0.6,1.8-0.4,3.8-0.4,5.7c0,2.1,0,4.2,0,6.3c0,4.3,0.1,8.6,0.1,12.9c0.1,8.7,0.3,17.4,0.1,26
		C21.7,265.8,23.7,265.8,23.8,264.5z"/>
	<path class="st0" d="M24.3,271.7c-0.3-0.5-0.9-0.8-1.5-0.7c-0.1,0-0.1,0-0.2,0c-0.5-0.1-1.1,0.3-1.5,0.7c-0.4,0.5-0.5,1.1-0.4,1.7
		c0.2,1.3,1.7,2,2.9,1.4C24.7,274.2,25,272.6,24.3,271.7z M21.6,273.1c0-0.3,0-0.7,0.2-0.9c0.2-0.3,0.6-0.4,0.9-0.7
		c0.1,0,0.1,0.1,0.2,0.1c0.3,0.2,0.5,0.4,0.6,0.7c0.2,0.6,0.2,1.4-0.5,1.6C22.4,274.2,21.7,273.7,21.6,273.1z"/>
	<path class="st0" d="M22.7,299.6c0.5,0.1,1.1-0.3,1.5-0.7c0.4-0.5,0.5-1.1,0.4-1.7c-0.2-1.3-1.7-2-2.9-1.4c-1,0.6-1.3,2.1-0.7,3.1
		c0.3,0.5,0.9,0.8,1.5,0.7C22.6,299.7,22.6,299.7,22.7,299.6z M21.8,298.3c-0.2-0.6-0.2-1.4,0.5-1.6c0.6-0.3,1.4,0.2,1.5,0.9
		c0,0.3,0,0.7-0.2,0.9c-0.2,0.3-0.6,0.4-0.9,0.7c-0.1,0-0.1-0.1-0.2-0.1C22,298.8,21.9,298.7,21.8,298.3z"/>
	<path class="st0" d="M29.8,289.7c1.1-1.4,1.7-3.3,1.5-5.1c0.1-3-2.6-5.5-5.3-6.3c-3.7-1.1-7.3,0.6-8.8,4.1
		c-1.4,3.3-0.4,7.5,2.7,9.4C23.1,293.7,27.6,292.5,29.8,289.7z M18.4,287.6c-1.5-3.6,0.8-8.2,4.9-8.5c3.2-0.2,6.5,2,7.1,5.1
		c0,0.2,0,0.4,0,0.6c-0.1,2.2-1.1,4.1-2.9,5.3C24.2,292.1,19.9,291.3,18.4,287.6z"/>
	<path class="st0" d="M23.8,356.6c0.3-8.7,0.3-17.4,0.1-26c-0.1-4.3-0.2-8.6-0.3-12.9c0-2,0-4-0.1-6c0-2,0.2-4.1-0.3-6
		c-0.2-0.6-1.1-0.6-1.3,0c-0.6,1.8-0.4,3.8-0.4,5.7c0,2.1,0,4.2,0,6.3c0,4.3,0.1,8.6,0.1,12.9c0.1,8.7,0.3,17.4,0.1,26
		C21.7,357.9,23.7,357.9,23.8,356.6z"/>
	<path class="st0" d="M24.3,363.7c-0.3-0.5-0.9-0.8-1.5-0.7c-0.1,0-0.1,0-0.2,0c-0.5-0.1-1.1,0.3-1.5,0.7c-0.4,0.5-0.5,1.1-0.4,1.7
		c0.2,1.3,1.7,2,2.9,1.4C24.7,366.3,25,364.7,24.3,363.7z M21.6,365.1c0-0.3,0-0.7,0.2-0.9c0.2-0.3,0.6-0.4,0.9-0.7
		c0.1,0,0.1,0.1,0.2,0.1c0.3,0.2,0.5,0.4,0.6,0.7c0.2,0.6,0.2,1.4-0.5,1.6C22.4,366.3,21.7,365.8,21.6,365.1z"/>
	<path class="st0" d="M22.7,391.7c0.5,0.1,1.1-0.3,1.5-0.7c0.4-0.5,0.5-1.1,0.4-1.7c-0.2-1.3-1.7-2-2.9-1.4c-1,0.6-1.3,2.1-0.7,3.1
		c0.3,0.5,0.9,0.8,1.5,0.7C22.6,391.7,22.6,391.7,22.7,391.7z M21.8,390.4c-0.2-0.6-0.2-1.4,0.5-1.6c0.6-0.3,1.4,0.2,1.5,0.9
		c0,0.3,0,0.7-0.2,0.9c-0.2,0.3-0.6,0.4-0.9,0.7c-0.1,0-0.1-0.1-0.2-0.1C22,390.9,21.9,390.7,21.8,390.4z"/>
	<path class="st0" d="M29.8,381.7c1.1-1.4,1.7-3.3,1.5-5.1c0.1-3-2.6-5.5-5.3-6.3c-3.7-1.1-7.3,0.6-8.8,4.1
		c-1.4,3.3-0.4,7.5,2.7,9.4C23.1,385.8,27.6,384.6,29.8,381.7z M18.4,379.6c-1.5-3.6,0.8-8.2,4.9-8.5c3.2-0.2,6.5,2,7.1,5.1
		c0,0.2,0,0.4,0,0.6c-0.1,2.2-1.1,4.1-2.9,5.3C24.2,384.2,19.9,383.3,18.4,379.6z"/>
	<ellipse class="st0" cx="24.1" cy="377.1" rx="7" ry="6.4"/>
</g>
</svg>
