<?xml version="1.0" encoding="utf-8"?>
<!-- Generator: Adobe Illustrator 23.0.0, SVG Export Plug-In . SVG Version: 6.00 Build 0)  -->
<svg version="1.1" id="Layer_1" xmlns="http://www.w3.org/2000/svg" xmlns:xlink="http://www.w3.org/1999/xlink" x="0px" y="0px"
	 viewBox="0 0 47.3 215" style="enable-background:new 0 0 47.3 215;" xml:space="preserve">
<style type="text/css">
	.Drop_x0020_Shadow{fill:none;}
	.Round_x0020_Corners_x0020_2_x0020_pt{fill:#FFFFFF;stroke:#000000;stroke-miterlimit:10;}
	.Live_x0020_Reflect_x0020_X{fill:none;}
	.Bevel_x0020_Soft{fill:url(#SVGID_1_);}
	.Dusk{fill:#FFFFFF;}
	.Foliage_GS{fill:#FFDD00;}
	.Pompadour_GS{fill-rule:evenodd;clip-rule:evenodd;fill:#44ADE2;}
	.st0{fill:#D3C6A9;}
</style>
<linearGradient id="SVGID_1_" gradientUnits="userSpaceOnUse" x1="-274.8857" y1="-313.5428" x2="-274.1786" y2="-312.8358">
	<stop  offset="0" style="stop-color:#DEDFE3"/>
	<stop  offset="0.1738" style="stop-color:#D8D9DD"/>
	<stop  offset="0.352" style="stop-color:#C9CACD"/>
	<stop  offset="0.5323" style="stop-color:#B4B5B8"/>
	<stop  offset="0.7139" style="stop-color:#989A9C"/>
	<stop  offset="0.8949" style="stop-color:#797C7E"/>
	<stop  offset="1" style="stop-color:#656B6C"/>
</linearGradient>
<g>
	<path class="st0" d="M25.9,182.7c-0.5-9.3,0.1-18.7-0.7-28c-0.5-5.8-0.8-11.5-0.9-17.3c-0.1-2.9-0.1-5.9-0.3-8.8
		c-0.1-2.8,0.1-6-0.8-8.7c-0.2-0.6-1.2-0.7-1.3,0c-0.4,2.7,0,5.6,0,8.4c0.1,2.9,0.1,5.9,0.2,8.8c0.1,5.9,0.3,11.7,0.8,17.6
		c0.8,9.3,0.3,18.7,0.9,28C23.9,184,26,184,25.9,182.7z"/>
	<path class="st0" d="M23.8,83.4c0.3-8.7,0.3-17.4,0.1-26c-0.1-4.3-0.2-8.6-0.3-12.9c0-2,0-4-0.1-6c0-2,0.2-4.1-0.3-6
		c-0.2-0.6-1.1-0.6-1.3,0c-0.6,1.8-0.4,3.8-0.4,5.7c0,2.1,0,4.2,0,6.3c0,4.3,0.1,8.6,0.1,12.9c0.1,8.7,0.3,17.4,0.1,26
		C21.7,84.8,23.7,84.7,23.8,83.4z"/>
	<path class="st0" d="M24,28.5c0.4-0.4,0.6-1,0.6-1.6c-0.1-1.3-1.5-2.2-2.7-1.7c-1.1,0.4-1.6,2-1,3c0.3,0.5,0.8,0.9,1.4,0.9
		c0,0,0.1,0,0.1,0C23,29.3,23.7,28.8,24,28.5z M21.7,27.7c-0.1-0.6,0-1.4,0.7-1.6c0.7-0.2,1.3,0.4,1.3,1.1c0,0.3-0.1,0.7-0.4,0.9
		c-0.3,0.3-0.6,0.3-0.9,0.5c-0.1,0-0.1-0.1-0.2-0.1C21.9,28.2,21.8,28,21.7,27.7z"/>
	<path class="st0" d="M24.3,88.2c-0.3-0.5-0.9-0.8-1.5-0.7c-0.1,0-0.1,0-0.2,0c-0.5-0.1-1.1,0.3-1.5,0.7c-0.4,0.5-0.5,1.1-0.4,1.7
		c0.2,1.3,1.7,2,2.9,1.4C24.7,90.8,25,89.2,24.3,88.2z M21.6,89.6c0-0.3,0-0.7,0.2-0.9c0.2-0.3,0.6-0.4,0.9-0.7
		c0.1,0,0.1,0.1,0.2,0.1c0.3,0.2,0.5,0.4,0.6,0.7c0.2,0.6,0.2,1.4-0.5,1.6C22.4,90.8,21.7,90.3,21.6,89.6z"/>
	<path class="st0" d="M22.7,116.2c0.5,0.1,1.1-0.3,1.5-0.7c0.4-0.5,0.5-1.1,0.4-1.7c-0.2-1.3-1.7-2-2.9-1.4c-1,0.6-1.3,2.1-0.7,3.1
		c0.3,0.5,0.9,0.8,1.5,0.7C22.6,116.2,22.6,116.2,22.7,116.2z M21.8,114.9c-0.2-0.6-0.2-1.4,0.5-1.6c0.6-0.3,1.4,0.2,1.5,0.9
		c0,0.3,0,0.7-0.2,0.9c-0.2,0.3-0.6,0.4-0.9,0.7c-0.1,0-0.1-0.1-0.2-0.1C22,115.4,21.9,115.2,21.8,114.9z"/>
	<path class="st0" d="M23.6,23.4c0.3-0.2,0.7-0.4,1-0.7c0.3-0.4,0.6-0.8,0.9-1.2c0.6-0.9,1.3-1.8,1.9-2.7c0.1-0.1,0.2-0.2,0.1-0.3
		c-0.2-2.2-1-4.4-1.7-6.5c-0.6-2-0.9-4.6-2.1-6.4c-0.1-0.1-0.3-0.1-0.3,0.1c0,0,0,0,0,0C23,6.3,22.7,7.2,22.4,8
		c-0.4,1-0.8,1.9-1.1,3c-0.7,2.5-0.9,5.1-1.6,7.6c0,0.1,0,0.2,0,0.2c0.1,0.9,0.7,1.7,1.2,2.4c0.5,0.8,1.1,1.5,1.8,2.2
		C23.1,23.7,23.4,23.6,23.6,23.4z M21.8,20.9c-0.6-0.7-1-1.4-1.5-2.2c0,0,0-0.1,0-0.1c0.3-2.6,1.5-5.1,2-7.6c0.2-1.1,0.6-2.1,1-3.1
		c0.1-0.4,0.3-0.7,0.4-1.1c0.3,1.7,0.8,3.5,1.2,5.2c0.5,2.2,1.1,4.4,1.8,6.5c-0.7,0.6-1.2,1.3-1.7,2c-0.4,0.5-0.7,1-1.1,1.5
		c-0.2,0.2-0.3,0.5-0.4,0.7C22.9,22.1,22.3,21.5,21.8,20.9z"/>
	<path class="st0" d="M26.9,186.7c-0.3-0.5-0.8-0.9-1.4-0.9c0,0-0.1,0-0.1,0c-0.5-0.2-1.2,0.2-1.6,0.6c-0.4,0.4-0.6,1-0.6,1.6
		c0.1,1.3,1.5,2.2,2.7,1.7C27,189.4,27.5,187.8,26.9,186.7z M24.1,187.8c0-0.3,0.1-0.7,0.4-0.9c0.3-0.3,0.6-0.3,0.9-0.5
		c0.1,0,0.1,0.1,0.2,0.1c0.3,0.2,0.4,0.4,0.5,0.8c0.1,0.6,0,1.4-0.7,1.6C24.7,189.1,24.1,188.5,24.1,187.8z"/>
	<path class="st0" d="M24.3,209.3C24.3,209.3,24.3,209.3,24.3,209.3c0.5-0.7,0.8-1.6,1.1-2.4c0.4-1,0.8-1.9,1.1-3
		c0.7-2.5,0.9-5.1,1.6-7.6c0-0.1,0-0.2,0-0.2c-0.1-0.9-0.7-1.7-1.2-2.4c-0.5-0.8-1.1-1.5-1.8-2.2c-0.2-0.3-0.6-0.2-0.7,0.1
		c-0.3,0.2-0.7,0.4-1,0.7c-0.3,0.4-0.6,0.8-0.9,1.2c-0.6,0.9-1.3,1.8-1.9,2.7c-0.1,0.1-0.2,0.2-0.1,0.3c0.2,2.2,1,4.4,1.7,6.5
		c0.6,2,0.9,4.6,2.1,6.4C24.1,209.5,24.3,209.5,24.3,209.3z M21.1,196.5c0.7-0.6,1.2-1.3,1.7-2c0.4-0.5,0.7-1,1.1-1.5
		c0.2-0.2,0.3-0.5,0.4-0.7c0.6,0.6,1.2,1.1,1.7,1.8c0.6,0.7,1,1.4,1.5,2.2c0,0,0,0.1,0,0.1c-0.3,2.6-1.5,5.1-2,7.6
		c-0.2,1.1-0.6,2.1-1,3.1c-0.1,0.4-0.3,0.7-0.4,1.1c-0.3-1.7-0.8-3.5-1.2-5.2C22.4,200.8,21.9,198.6,21.1,196.5z"/>
	<path class="st0" d="M29.8,106.2c1.1-1.4,1.7-3.3,1.5-5.1c0.1-3-2.6-5.5-5.3-6.3c-3.7-1.1-7.3,0.6-8.8,4.1
		c-1.4,3.3-0.4,7.5,2.7,9.4C23.1,110.3,27.6,109.1,29.8,106.2z M18.4,104.1c-1.5-3.6,0.8-8.2,4.9-8.5c3.2-0.2,6.5,2,7.1,5.1
		c0,0.2,0,0.4,0,0.6c-0.1,2.2-1.1,4.1-2.9,5.3C24.2,108.7,19.9,107.8,18.4,104.1z"/>
</g>
</svg>
