<?xml version="1.0" encoding="utf-8"?>
<!-- Generator: Adobe Illustrator 23.0.0, SVG Export Plug-In . SVG Version: 6.00 Build 0)  -->
<svg version="1.1" id="Layer_1" xmlns="http://www.w3.org/2000/svg" xmlns:xlink="http://www.w3.org/1999/xlink" x="0px" y="0px"
	 viewBox="0 0 64.1 50" style="enable-background:new 0 0 64.1 50;" xml:space="preserve">
<style type="text/css">
	.st0{fill:#D4C6A9;}
</style>
<g>
	<path class="st0" d="M8.5,13.5c0.1-0.3,0.1-0.6,0.2-0.9c0.7-2.9,3.4-5,6.4-5c10.8,0,21.5,0,32.3,0c3.7,0,6.6,3,6.6,6.6
		c0,7.2,0,14.3,0,21.5c0,3.7-3,6.6-6.6,6.6c-10.8,0-21.5,0-32.3,0c-3.3,0-6-2.4-6.5-5.6c0-0.1-0.1-0.2-0.1-0.2
		C8.5,28.8,8.5,21.2,8.5,13.5z M31.3,39.7c5.3,0,10.6,0,15.9,0c2.5,0,4.2-1.7,4.2-4.2c0-7,0-13.9,0-20.9c0-2.6-1.7-4.3-4.3-4.3
		c-10.6,0-21.1,0-31.7,0c-2.6,0-4.3,1.7-4.3,4.3c0,6.9,0,13.9,0,20.8c0,2.6,1.7,4.3,4.3,4.3C20.7,39.7,26,39.7,31.3,39.7z"/>
	<path class="st0" d="M39.1,25c-4.9,3-9.7,6-14.5,9.1c0-6.1,0-12.1,0-18.1C29.5,19,34.3,22,39.1,25z M27.3,20.8c0,2.9,0,5.6,0,8.5
		c2.3-1.4,4.5-2.8,6.8-4.2C31.8,23.6,29.6,22.2,27.3,20.8z"/>
</g>
</svg>
