<?xml version="1.0" encoding="utf-8"?>
<!-- Generator: Adobe Illustrator 23.0.0, SVG Export Plug-In . SVG Version: 6.00 Build 0)  -->
<svg version="1.1" id="Layer_1" xmlns="http://www.w3.org/2000/svg" xmlns:xlink="http://www.w3.org/1999/xlink" x="0px" y="0px"
	 viewBox="0 0 278.7 207.1" style="enable-background:new 0 0 278.7 207.1;" xml:space="preserve">
<style type="text/css">
	.st0{fill:#1F1B35;}
</style>
<g>
	<path class="st0" d="M87.9,187.8c-2.9-8.7-5.8-17.4-8.7-26.1c-0.3,0-0.6,0-0.8-0.1c-2.4,8.6-4.9,17.2-7.3,25.8
		c-0.5,0-1.1-0.1-1.6-0.1c-2.2-5.8-4.3-11.5-6.5-17.3c-2.2-5.7-4.4-11.4-6.7-17.3c2.6,0,5.3,0,7.4,0c2.4,6.6,4.7,13.1,7,19.6
		c0.3,0,0.6,0,0.9,0c1.7-6.5,3.4-13,5.2-19.8c1.9,0,4.6,0,7,0c0.9,7.2,3.9,13.6,7,20.3c2.2-6.6,4.4-13.1,6.6-19.7
		c-0.3-0.2-0.7-0.3-1-0.5c1.8,0,3.6,0,5.2,0c-3.5,10.1-7,20.2-10.5,30.2c-0.6,1.7-1.6,3.3-2.4,4.9C88.4,187.8,88.1,187.8,87.9,187.8
		z"/>
	<path class="st0" d="M251.4,128.5c-0.8,2.7-2.1,5.4-2.3,8.2c-0.4,5.4-0.1,5.5-5.4,6.6c-2.2,0.4-4.5,0.7-6.7,0.7
		c-8.7-0.2-14.4-5.7-14.7-13.8c-0.2-8.3,5.8-14.7,14.4-15.1c2.4-0.1,4.9,0.5,7.4,0.8c1.9,0.3,3.8,0.6,6.1,1c-0.5,1.7-1,3.7-1.7,6.1
		c-0.9-0.7-1.4-1.1-1.9-1.6c-3.9-3.8-9.2-4.6-13.3-1.9c-4.4,2.9-6.4,9.1-4.4,14.3c1.8,4.9,6.3,7.6,11.5,7.1c2.4-0.2,3.6-1.1,3.4-3.7
		c-0.2-2.1,0-4.2,0-7.2c-2.2,0.9-4.1,1.6-6.6,2.6c-0.3-0.4-1.6-2-1.3-2.5c0.6-1.1,2.1-2.2,3.4-2.4c4.1-0.4,8.2-0.4,12.3-0.6
		C251.4,127.5,251.4,128,251.4,128.5z"/>
	<path class="st0" d="M148,106.1c-0.1-0.9-0.2-1.6-0.3-2.4c-0.8-3.5-3.4-5.8-6.5-5.6c-3.5,0.2-6,2.1-6.5,5.6c-0.3,2-0.9,2.8-3,2.8
		c-25.1,0-50.2,0-75.3,0c-0.5,0-0.9-0.2-1.4-0.3c-0.1-0.4-0.2-0.8-0.4-1.2c2-0.6,3.9-1.8,5.9-1.8c21.6-0.1,43.2-0.1,64.8,0
		c3.4,0,5.6-0.4,7.6-3.9c3.7-6.8,13.7-6,17,1c1.1,2.4,2.4,2.9,4.8,2.9c22.1-0.1,44.2-0.1,66.3,0c2.1,0,4.3,1,6.4,1.5
		c-0.1,0.5-0.2,1-0.2,1.4C200.9,106.1,174.6,106.1,148,106.1z"/>
	<path class="st0" d="M195.1,186.3c0.6-10.4,1.2-20.3-2.2-30.6c0,0,0.3-0.1,0.6-0.2c0.4-0.1,0.7-0.2,1.3-0.3
		c-0.4-0.8-0.7-1.5-1.1-2.3c0.3-0.2,0.6-0.5,1-0.5c6.6,0,13.3-0.4,19.8,0.2c2.9,0.3,6.3,2.1,8.3,4.3c5,5.4,5.5,12.2,3,18.9
		c-2.4,6.5-7.5,9.9-14.3,10.3C205.9,186.5,200.3,186.3,195.1,186.3z M202.1,155.4c0,9.6,0,18.7,0,27.8c6.2,0.6,12.2,0.6,15.7-5.7
		c3.3-5.9,3.3-11.9-0.1-17.8C214,153.5,207.9,155.8,202.1,155.4z"/>
	<path class="st0" d="M117.5,168.7c-2.1-0.5-3.4-2.4-3-5.3c0.5-3.6,3.2-6.6,5.9-6.6c9.3-0.1,15.9,5.4,16.2,13.6
		c0.3,8.8-6.5,16.2-15.7,16.7c-14.7,0.9-24.3-11-19.4-24.2c3.7-10,16.7-14.2,27.1-8.2c-1.2-0.1-2.4-0.3-3.6-0.4
		c-6.8-0.9-12.9,1.8-15.7,7.1c-3.2,5.9-2.4,13.7,1.8,18.7c4.9,5.7,12.4,5.4,16.4-0.9c2.9-4.6,3.3-9.4,0.7-14.2
		c-0.8-1.6-2.3-3.1-3.8-3.9c-2.5-1.2-5.5-0.9-6.9,1.7C116.6,164.3,117.4,166.7,117.5,168.7z"/>
	<path class="st0" d="M147,186.2c-2.4,0-5.1,0-7.4,0c0-11.3,0-22.3,0-33.7c4.7,0,9.7-0.2,14.6,0c6.4,0.3,10.7,8.8,7,14.6
		c-0.9,1.4-3.1,1.9-4.5,2.8c3.7,5.3,7.5,10.5,11.5,16.1c-3.3,0-6.2,0-9.1,0c-0.3-4.9-8.5-15-12.1-14.8C147,176.1,147,181,147,186.2z
		 M146.6,155.7c0,3.4-0.1,6.7,0.1,10c0.1,0.7,1.7,2.1,2.2,1.9c2-0.7,4.7-1.4,5.4-2.9c0.9-1.9,0.8-4.9-0.1-6.9
		C152.9,155,149.8,155.1,146.6,155.7z"/>
	<path class="st0" d="M39.3,145c-2-3.6-5-7-5.6-10.8c-0.6-3.5-2.5-5.9-3.7-8.9c-1.3-2.9-1.8-6.2-2.7-9.7c1.9,0,3.8,0,5.8,0
		c1.9,0.1,5.4,4.2,4.3,5.3c-1.5,1.7-0.1,2.5,0.2,3.7c0.4,1.5,0.4,3.1,0.7,4.7c0.3,1.3,1,2.5,2.3,3.7c1.6-5.6,3.3-11.2,5-17.2
		c1.4,0,3.7,0,5.1,0c2.1,5.6,4.1,10.9,6.5,17.2c2.1-6.3,3.9-11.6,5.7-17.2c0.7,0,2.3,0,4,0c-3.3,9.6-6.5,19.2-9.8,28.7
		c-0.4,0-0.8,0-1.2,0c-2.7-6.9-5.3-13.8-8.4-21.7c-2.6,8-4.9,15.2-7.1,22.3C40,145,39.7,145,39.3,145z"/>
	<path class="st0" d="M171.1,143.8c-0.9,0.2-1.9,0.4-3.2,0.7c1.5-4.1,4.4-1.9,7.1-2.8c-1,4.4-3.3,6.7-6.9,7.8
		c-6.4,1.9-14.5-0.6-18.7-6.4c-2.1-2.9-3.4-6.3-5.3-9.4c-0.7-1.2-2-2-3-2.9c-0.3,0.3-0.5,0.5-0.8,0.8c0,3.7,0,7.5,0,11.5
		c-1.8,0-4.1,0-6.2,0c0-9.2,0-18.2,0-27.3c4.3,0,8.9-0.5,13.4,0.1c5.5,0.7,7.7,7.7,4,12c-0.7,0.8-1.6,1.5-2.5,2.3
		c1.8,3.6,3.5,7.4,5.6,10.8c2.8,4.6,7,6.7,12.4,5.9c1.7-0.2,3.2-1.2,4.8-1.9C171.5,144.7,171.3,144.3,171.1,143.8z M140,117.7
		c0,4.3,0,7.3,0,10.5c2.9,0.4,5.7,0.6,7-2.3c0.7-1.5,0.9-4.3,0.1-5.1C145.4,119.3,142.8,118.8,140,117.7z"/>
	<path class="st0" d="M215.2,135.1c0-7.1,0-13.1,0-19.3c1.3,0,2.9,0,4.2,0c0,9.2,0,18.2,0,27.3c-2.9,0.8-5.4,0.3-7.5-3
		c-3.6-5.6-7.7-10.9-11.9-16.9c0,7,0,13.3,0,19.8c-1.3,0-2.9,0-4.3,0c0-9.1,0-18,0-27.2c3.4-1,6.2-0.2,8.4,3.4
		C207.3,124.5,211.1,129.4,215.2,135.1z"/>
	<path class="st0" d="M158.4,139.6c0-8,0-15.8,0-24c4,0,8.2-0.2,12.4,0c6.1,0.3,9.6,4.4,9.8,11c0.2,6.8-3.7,12.4-9.4,12.8
		C166.8,139.9,162.4,139.6,158.4,139.6z M164.1,136.3c4.9,0.9,7.7-0.1,9.4-3.2c2.2-4,2-10.3-1-12.6c-1.9-1.4-4.8-1.4-7.2-1.7
		c-0.2,0-1,2.9-1.1,4.5C164,127.6,164.1,131.9,164.1,136.3z"/>
	<path class="st0" d="M114.5,115.7c2.4,0,4.7,0,6.3,0c3.3,9.2,6.4,18.2,9.7,27.4c-2.2,0-4.6,0-6.7,0c-0.3-2.3-0.7-4.6-1.1-7.4
		c-2.7,0-5.3,0-7.9,0c-4.8,0-6.7,2.4-5.8,7.4c-1.8,0-3.6,0-5.6,0c0.8-3.4,4.7-6,2.4-9.9C108.8,132.2,114.7,120.1,114.5,115.7z
		 M116.9,121.8c-1.8,4-3.2,7.2-4.7,10.7c3.2,0,5.8,0,8.8,0C119.6,128.8,118.4,125.7,116.9,121.8z"/>
	<path class="st0" d="M192.3,179.9c-0.3,2.6-0.5,4.4-0.8,6.3c-7.1,0-14,0-20.4,0c0-11.2,0-22.3,0-33.7c2.3,0,5.1,0,7.4,0
		c0,10.3,0,20.4,0,30.5C185.5,184.1,188.3,183.6,192.3,179.9z"/>
	<path class="st0" d="M95.2,119c-6.7-1.4-9.9-0.7-14.2,2.8c0.3-2.3,0.6-4,0.8-6c6.4,0,12.7,0,18.9,0c0.6,1.7,1.1,3.2,1.5,4.4
		c-5,6.3-10,12.7-15.3,19.4c7,1.6,11,1,14.9-2.1c-0.2,2-0.4,3.7-0.7,5.6c-6.7,0-13.1,0-20.7,0c0.9-2.5,1.3-4.8,2.5-6.6
		C86.9,130.7,91,125.1,95.2,119z"/>
	<path class="st0" d="M65.5,83.3c0.8,1.4,1.2,2.1,1.8,3c-3.5,0.3-5.7-0.7-7-4c-1.3-3.3,2.4-3.7,2.9-5.8c1.3,0.5,2.6,0.9,3.8,1.5
		c2.6,1.3,5,3.2,7.7,4c4.6,1.2,9.2,1.7,13.8,3.6c11.6,4.7,23.8,8.1,35.8,12.1c1.1,0.4,2.2,0.9,3.3,1.3c-0.1,0.3-0.1,0.7-0.2,1
		c-1.2-0.2-2.4-0.3-3.5-0.6c-10.9-3.2-21.7-6.5-32.7-9.5c-6.5-1.7-13.2-2.7-19.7-4.2C69.7,85.3,68.1,84.4,65.5,83.3z"/>
	<path class="st0" d="M136.7,91.1c-0.3-0.8-0.7-1.5-1-2.3c-4.4-13.1-8.8-26.3-13.2-39.4c-2-6.1-4.1-12.2-6.2-18.3
		c-0.4-1-1.1-1.9-1.6-2.9c-0.4-0.9-1-2.4-0.6-2.7c0.9-0.8,2.3-1.5,3.5-1.6c0.5,0,1.3,1.7,1.6,2.7c0.9,2.9,1.7,5.9,2.5,8.9
		c5.1,17.2,10.2,34.4,15.3,51.6c0.4,1.2,0.5,2.5,0.8,3.8C137.4,90.9,137,91,136.7,91.1z"/>
	<path class="st0" d="M139.2,19.3c1.6,0,2.7,0,4.1,0c-0.3,24-0.5,47.7-0.8,71.4c-0.6,0-1.2,0-1.8,0C140.2,67,139.7,43.4,139.2,19.3z
		"/>
	<path class="st0" d="M133.4,92.9c-0.8-0.8-1.6-1.5-2.3-2.4c-10.5-13.9-20.9-27.8-31.4-41.8c-2.2-3-4.6-5.8-6.7-8.9
		c-0.7-1.1-0.5-2.7-0.7-4.1c1.1,0.6,2.7,0.8,3.3,1.7c12.7,17.8,25.3,35.6,37.9,53.4c0.3,0.4,0.4,0.9,0.6,1.3
		C133.9,92.4,133.6,92.6,133.4,92.9z"/>
	<path class="st0" d="M222.3,81.6c-22.6,6.3-44.9,12.5-67.2,18.7c-0.1-0.3-0.2-0.6-0.3-0.9c0.8-0.3,1.7-0.7,2.5-1
		c12.9-4.3,25.7-8.7,38.6-12.9c7-2.3,14.1-4.5,21.2-6.5C219.3,78.5,221.9,77.9,222.3,81.6z"/>
	<path class="st0" d="M191.9,37.5c-14.5,19-28.5,37.5-42.5,56c-0.3-0.2-0.7-0.4-1-0.7c0.6-1.1,1.2-2.2,1.9-3.2
		c4.8-6.7,9.7-13.3,14.4-20.1c7.1-10.1,14-20.3,20.9-30.4c0.8-1.2,1.3-2.6,2.1-4.4C189.3,35.7,190.8,36.8,191.9,37.5z"/>
	<path class="st0" d="M129.8,95.9c-1-0.6-2.1-1.2-3-1.8c-12.4-8.6-24.7-17.4-37.2-25.8c-4.9-3.4-10.3-6.1-15.3-9.3
		c-0.9-0.6-1.8-1.7-2-2.7c-0.1-0.6,0.9-2,1.6-2.2c0.9-0.3,2.2,0,3,0.6c15.8,11.8,31.5,23.6,47.3,35.4c2.2,1.6,4.3,3.3,6.5,4.9
		C130.3,95.2,130.1,95.5,129.8,95.9z"/>
	<path class="st0" d="M151.5,95.9c3-2.3,5.3-4.1,7.7-5.8C173.8,79,188.4,68,203,56.9c0.9-0.6,1.3-1.9,2.3-2.3
		c1.2-0.4,2.6-0.2,3.9-0.3c-0.1,1.3-0.1,2.6-0.3,4c0,0.2-0.6,0.4-0.9,0.6c-17.4,11.9-34.8,23.8-52.2,35.6c-0.8,0.6-1.6,1.1-2.5,1.6
		C153.2,96.3,152.9,96.1,151.5,95.9z"/>
	<path class="st0" d="M144.7,91.1c7.2-22.2,14.4-44.4,21.6-66.6c0.4-0.1,0.7-0.2,1.1-0.3c0.5,1.3,1.3,2.5,1.3,3.8
		c0.1,1.2-0.7,2.4-1.1,3.5c-6.8,19.4-13.6,38.8-20.5,58.2c-0.2,0.6-0.7,1.2-1,1.8C145.6,91.4,145.2,91.2,144.7,91.1z"/>
	<path class="st0" d="M70.5,115.8c2,0,4.2,0,6.1,0c0,9.2,0,18.2,0,27.4c-1.8,0-4,0-6.1,0C70.5,134.1,70.5,125,70.5,115.8z"/>
	<path class="st0" d="M190.1,143.2c-1.6,0-3.8,0-5.8,0c0-9.2,0-18.2,0-27.4c1.9,0,4.1,0,5.8,0c0,4.5,0,9,0,13.4
		C190.1,133.8,190.1,138.3,190.1,143.2z"/>
</g>
</svg>
